<?xml version="1.0" encoding="UTF-8" standalone="no"?>
<!-- Created with Keyshape -->
<svg xmlns="http://www.w3.org/2000/svg" id="getoff-road" data-name="Ebene 1" viewBox="0 0 1000 800">
    <defs>
        <linearGradient id="Gradient-0" x1="236.531" y1="40.6708" x2="236.531" y2="282.118" gradientUnits="userSpaceOnUse">
            <stop offset="0" stop-color="#000000"/>
            <stop offset="0.275" stop-color="#ffffff"/>
            <stop offset="0.77" stop-color="#ffffff"/>
            <stop offset="1" stop-color="#000000"/>
        </linearGradient>
        <linearGradient id="Gradient-1" x1="317.31" y1="189.19" x2="447.66" y2="189.19" gradientUnits="userSpaceOnUse" gradientTransform="matrix(0.995021 0.0996671 -0.0996671 0.995021 108.58 25.88)">
            <stop offset="0" stop-color="#c8dfc7"/>
            <stop offset="0.17" stop-color="#abd3ad"/>
            <stop offset="0.41" stop-color="#87c58f"/>
            <stop offset="0.63" stop-color="#6eba79"/>
            <stop offset="0.84" stop-color="#5eb46c"/>
            <stop offset="1" stop-color="#59b267"/>
        </linearGradient>
        <linearGradient id="Gradient-2" x1="-664.683" y1="576.161" x2="-531.512" y2="747.591" gradientUnits="userSpaceOnUse" gradientTransform="matrix(-0.1152 0.9933 -0.9933 -0.1152 792.858 748.67)">
            <stop offset="0" stop-color="#c8dfc7"/>
            <stop offset="0.1689" stop-color="#abd3ad"/>
            <stop offset="0.4082" stop-color="#87c58f"/>
            <stop offset="0.6334" stop-color="#6eba79"/>
            <stop offset="0.8371" stop-color="#5eb46c"/>
            <stop offset="1" stop-color="#59b267"/>
        </linearGradient>
        <linearGradient id="Gradient-3" x1="-57.6815" y1="151.359" x2="44.8503" y2="283.347" gradientUnits="userSpaceOnUse" gradientTransform="matrix(0.4834 0.8754 -0.8754 0.4834 426.59 5.2991)">
            <stop offset="0" stop-color="#c8dfc7"/>
            <stop offset="0.1689" stop-color="#abd3ad"/>
            <stop offset="0.4082" stop-color="#87c58f"/>
            <stop offset="0.6334" stop-color="#6eba79"/>
            <stop offset="0.8371" stop-color="#5eb46c"/>
            <stop offset="1" stop-color="#59b267"/>
        </linearGradient>
        <linearGradient id="Gradient-4" x1="-607.167" y1="384.735" x2="-492.587" y2="384.735" gradientUnits="userSpaceOnUse" gradientTransform="matrix(-0.0145386 0.9999 -0.9999 -0.0145386 767.261 614.009)">
            <stop offset="0" stop-color="#c8dfc7"/>
            <stop offset="0.1689" stop-color="#abd3ad"/>
            <stop offset="0.4082" stop-color="#87c58f"/>
            <stop offset="0.6334" stop-color="#6eba79"/>
            <stop offset="0.8371" stop-color="#5eb46c"/>
            <stop offset="1" stop-color="#59b267"/>
        </linearGradient>
        <linearGradient id="Gradient-5" x1="462.1" y1="508.75" x2="478.1" y2="386.3" gradientUnits="userSpaceOnUse" gradientTransform="matrix(0.993232 -0.116151 0.116151 0.993232 -47.01 30.54)">
            <stop offset="0.25" stop-color="#59b267"/>
            <stop offset="0.36" stop-color="#c8dfc7"/>
            <stop offset="0.49" stop-color="#c8dfc7"/>
            <stop offset="0.54" stop-color="#bbdabb"/>
            <stop offset="0.66" stop-color="#97cb9d"/>
            <stop offset="0.78" stop-color="#7ec187"/>
            <stop offset="0.89" stop-color="#6ebb7a"/>
            <stop offset="0.98" stop-color="#69b975"/>
        </linearGradient>
        <linearGradient id="Gradient-6" x1="369.66" y1="356.82" x2="452.39" y2="327.86" gradientUnits="userSpaceOnUse" gradientTransform="matrix(0.993232 -0.116151 0.116151 0.993232 -47.01 30.54)">
            <stop offset="0.25" stop-color="#59b267"/>
            <stop offset="0.36" stop-color="#c8dfc7"/>
            <stop offset="0.49" stop-color="#c8dfc7"/>
            <stop offset="0.58" stop-color="#abd3ad"/>
            <stop offset="0.69" stop-color="#87c58f"/>
            <stop offset="0.8" stop-color="#6eba79"/>
            <stop offset="0.9" stop-color="#5eb46c"/>
            <stop offset="0.98" stop-color="#59b267"/>
        </linearGradient>
        <linearGradient id="Gradient-7" x1="596.26" y1="380.01" x2="504.43" y2="333.68" gradientUnits="userSpaceOnUse">
            <stop offset="0.25" stop-color="#59b267"/>
            <stop offset="0.36" stop-color="#c8dfc7"/>
            <stop offset="0.49" stop-color="#c8dfc7"/>
            <stop offset="0.58" stop-color="#abd3ad"/>
            <stop offset="0.69" stop-color="#87c58f"/>
            <stop offset="0.8" stop-color="#6eba79"/>
            <stop offset="0.9" stop-color="#5eb46c"/>
            <stop offset="0.98" stop-color="#59b267"/>
        </linearGradient>
        <mask id="Mask-1">
            <rect id="masking" width="500" height="291.93" fill="url(#Gradient-0)" rx="1.17" stroke="none" transform="translate(227.61,-284.139) translate(-279.157,69.0928)"/>
        </mask>
    </defs>
    <style>
@keyframes a0_t { 0% { transform: translate(114.456px,723.12px); animation-timing-function: cubic-bezier(0.42,0,0.58,1); } 40% { transform: translate(283.896px,723.12px); animation-timing-function: cubic-bezier(0.42,0,0.58,1); } 80% { transform: translate(114.456px,723.12px); } 100% { transform: translate(114.456px,723.12px); } }
@keyframes leaves_t { 0% { transform: translate(0.1px,77.415px); } 80% { transform: translate(0.1px,-512.099px); } 100% { transform: translate(0.1px,-512.099px); } }
@keyframes a1_t { 0% { transform: translate(265.344px,702.137px); animation-timing-function: cubic-bezier(0.42,0,0.58,1); } 40% { transform: translate(472.867px,702.137px); animation-timing-function: cubic-bezier(0.42,0,0.58,1); } 80% { transform: translate(265.344px,702.137px); } 100% { transform: translate(265.344px,702.137px); } }
@keyframes driver_t { 0% { transform: rotate(0deg) translate(-472.867px,-702.137px); } 60% { transform: rotate(0deg) translate(-472.867px,-702.137px); animation-timing-function: cubic-bezier(0.42,0,0.58,1); } 80% { transform: rotate(-10deg) translate(-472.867px,-702.137px); animation-timing-function: cubic-bezier(0.42,0,0.58,1); } 100% { transform: rotate(70deg) translate(-472.867px,-702.137px); } }
@keyframes body1_t { 0% { transform: translate(323.62px,75.258px); animation-timing-function: cubic-bezier(0.42,0,0.58,1); } 5% { transform: translate(323.62px,82.269px); animation-timing-function: cubic-bezier(0.42,0,0.58,1); } 10% { transform: translate(323.62px,75.258px); animation-timing-function: cubic-bezier(0.42,0,0.58,1); } 15% { transform: translate(323.62px,82.269px); animation-timing-function: cubic-bezier(0.42,0,0.58,1); } 20% { transform: translate(323.62px,75.258px); animation-timing-function: cubic-bezier(0.42,0,0.58,1); } 25% { transform: translate(323.62px,82.269px); animation-timing-function: cubic-bezier(0.42,0,0.58,1); } 30% { transform: translate(323.62px,75.258px); animation-timing-function: cubic-bezier(0.42,0,0.58,1); } 35% { transform: translate(323.62px,82.269px); animation-timing-function: cubic-bezier(0.42,0,0.58,1); } 40% { transform: translate(323.62px,75.258px); animation-timing-function: cubic-bezier(0.42,0,0.58,1); } 45% { transform: translate(323.62px,82.269px); animation-timing-function: cubic-bezier(0.42,0,0.58,1); } 50% { transform: translate(323.62px,75.258px); animation-timing-function: cubic-bezier(0.42,0,0.58,1); } 55% { transform: translate(323.62px,82.269px); animation-timing-function: cubic-bezier(0.42,0,0.58,1); } 60% { transform: translate(323.62px,75.258px); animation-timing-function: cubic-bezier(0.42,0,0.58,1); } 65% { transform: translate(323.62px,82.269px); animation-timing-function: cubic-bezier(0.42,0,0.58,1); } 70% { transform: translate(323.62px,75.258px); animation-timing-function: cubic-bezier(0.42,0,0.58,1); } 75% { transform: translate(323.62px,82.269px); animation-timing-function: cubic-bezier(0.42,0,0.58,1); } 80% { transform: translate(323.62px,75.258px); } 100% { transform: translate(323.62px,75.258px); } }
@keyframes body1_o { 0% { opacity: 1; } 90% { opacity: 1; animation-timing-function: cubic-bezier(0.42,0,0.58,1); } 100% { opacity: 0; } }
@keyframes body2_o { 0% { opacity: 0; } 90% { opacity: 0; animation-timing-function: cubic-bezier(0.42,0,0.58,1); } 100% { opacity: 1; } }
@keyframes hand_o { 0% { opacity: 1; } 90% { opacity: 1; } 94% { opacity: 0; } 100% { opacity: 0; } }
@keyframes popup_t { 0% { transform: translate(765.572px,295.048px) scale(0,0) translate(-780.5px,-275.855px); } 80% { transform: translate(765.572px,295.048px) scale(0,0) translate(-780.5px,-275.855px); animation-timing-function: cubic-bezier(0.42,0,0.58,1); } 100% { transform: translate(765.572px,295.048px) scale(1,1) translate(-780.5px,-275.855px); } }
    </style>
    <g mask="url(#Mask-1)" transform="translate(292.406,1115.55) translate(-177.95,-392.43)" style="animation: 5s linear both a0_t;">
        <g id="leaves" transform="translate(177.95,469.836) translate(-177.85,-392.421)" style="animation: 5s linear both leaves_t;">
            <path class="st0" d="M155.3,67.5C163.9,71.1,172.8,74,179.5,73.9C182.5,73.9,184.7,73.3,186.7,72.7C190.2,71.7,193.1,71,195.5,70.3C191.6,68.9,187.2,66.5,182.3,65.8C180,65.5,177.8,65.5,175.5,65.6C173,65.7,170.2,65.9,167.7,66.5C164.9,67.2,160.4,67.9,155.3,67.5Z" fill="#39AF62"/>
            <path class="st1" d="M235.7,39.9C236.2,37.3,237.7,34.6,241.4,33.4C243.4,32.7,245.8,32.5,248.2,32.3C253.2,31.9,258.2,31.4,263.2,31C260.4,33.5,259.4,36.6,255,38.1C253.2,38.7,251.1,39,249,39.2C246.9,39.4,244.7,39.6,242.5,39.5C240.2,39.3,237.5,39.3,235.7,39.9Z" fill="#007D29"/>
            <path class="st1" d="M13.1,154.8C13.6,152.2,15.1,149.5,18.8,148.3C20.8,147.6,23.2,147.4,25.6,147.2C30.6,146.8,35.6,146.3,40.6,145.9C37.8,148.4,36.8,151.5,32.4,153C30.6,153.6,28.5,153.9,26.4,154.1C24.3,154.3,22.1,154.5,19.9,154.4C17.7,154.2,15,154.2,13.1,154.8Z" fill="#007D29"/>
            <path class="st2" d="M256.2,94.4C244.4,98.7,232.4,101.9,223.4,101.4C219.4,101.2,216.5,100.2,213.9,99.4C209.3,97.9,205.5,96.7,202.3,95.6C207.6,94,213.6,91.1,220.2,90.4C223.3,90.1,226.2,90.3,229.3,90.6C232.7,90.9,236.4,91.4,239.7,92.3C243.4,93.3,249.3,94.5,256.2,94.4Z" fill="#E6F5EB"/>
            <path class="st0" d="M86.8,203.7C95.4,207.3,104.3,210.2,111,210.1C114,210.1,116.2,209.5,118.2,208.9C121.7,207.9,124.6,207.2,127,206.5C123.1,205.1,118.7,202.7,113.8,202C111.5,201.7,109.3,201.7,107,201.8C104.5,201.9,101.7,202.1,99.2,202.7C96.4,203.4,92,204,86.8,203.7Z" fill="#39AF62"/>
            <path class="st2" d="M187.7,230.5C175.9,234.8,163.9,238,154.9,237.5C150.9,237.3,148,236.3,145.4,235.5C140.8,234,137,232.8,133.8,231.7C139.1,230.1,145.1,227.2,151.7,226.5C154.8,226.2,157.7,226.4,160.8,226.7C164.2,227,167.9,227.5,171.2,228.4C174.9,229.5,180.8,230.6,187.7,230.5Z" fill="#E6F5EB"/>
            <path class="st3" d="M63.2,102.6C72.6,105.7,82.2,108,89.2,107.4C92.3,107.1,94.6,106.3,96.7,105.6C100.3,104.3,103.3,103.2,105.7,102.3C101.5,101.2,96.6,99,91.4,98.6C89,98.4,86.7,98.6,84.2,98.9C81.5,99.2,78.6,99.7,76.1,100.5C73.2,101.5,68.6,102.5,63.2,102.6Z" fill="#51B975"/>
            <path class="st1" d="M355.8,72.5C344,76.8,332,80,323,79.5C319,79.3,316.1,78.3,313.5,77.5C308.9,76,305.1,74.8,301.9,73.7C307.2,72.1,313.2,69.2,319.8,68.5C322.9,68.2,325.8,68.4,328.9,68.7C332.3,69,336,69.5,339.3,70.4C343.1,71.5,348.9,72.7,355.8,72.5Z" fill="#007D29"/>
            <path class="st1" d="M317.3,376.9C305.5,381.2,293.5,384.4,284.5,383.9C280.5,383.7,277.6,382.7,275,381.9C270.4,380.4,266.6,379.2,263.4,378.1C268.7,376.5,274.7,373.6,281.3,372.9C284.4,372.6,287.3,372.8,290.4,373.1C293.8,373.4,297.5,373.9,300.8,374.8C304.5,375.9,310.4,377,317.3,376.9Z" fill="#007D29"/>
            <path class="st1" d="M222.4,154.5C210.6,158.8,198.6,162,189.6,161.5C185.6,161.3,182.7,160.3,180.1,159.5C175.5,158,171.7,156.8,168.5,155.7C173.8,154.1,179.8,151.2,186.4,150.5C189.5,150.2,192.4,150.4,195.5,150.7C198.9,151,202.6,151.5,205.9,152.4C209.6,153.5,215.5,154.7,222.4,154.5Z" fill="#007D29"/>
            <path class="st1" d="M313,205.9C301.2,210.2,289.2,213.4,280.2,212.9C276.2,212.7,273.3,211.7,270.7,210.9C266.1,209.4,262.3,208.2,259.1,207.1C264.4,205.5,270.4,202.6,277,201.9C280.1,201.6,283,201.8,286.1,202.1C289.5,202.4,293.2,202.9,296.5,203.8C300.3,204.8,306.1,206,313,205.9Z" fill="#007D29"/>
            <path class="st0" d="M114,289.9C122.6,293.5,131.5,296.4,138.2,296.3C141.2,296.3,143.4,295.7,145.4,295.1C148.9,294.1,151.8,293.4,154.2,292.7C150.3,291.3,145.9,288.9,141,288.2C138.7,287.9,136.5,287.9,134.2,288C131.7,288.1,128.9,288.3,126.4,288.9C123.6,289.6,119.2,290.3,114,289.9Z" fill="#39AF62"/>
            <path class="st2" d="M214.9,316.7C203.1,321,191.1,324.2,182.1,323.7C178.1,323.5,175.2,322.5,172.6,321.7C168,320.2,164.2,319,161,317.9C166.3,316.3,172.3,313.4,178.9,312.7C182,312.4,184.9,312.6,188,312.9C191.4,313.2,195.1,313.7,198.4,314.6C202.1,315.7,208,316.9,214.9,316.7Z" fill="#E6F5EB"/>
            <path class="st2" d="M328.9,316.7C317.1,321,305.1,324.2,296.1,323.7C292.1,323.5,289.2,322.5,286.6,321.7C282,320.2,278.2,319,275,317.9C280.3,316.3,286.3,313.4,292.9,312.7C296,312.4,298.9,312.6,302,312.9C305.4,313.2,309.1,313.7,312.4,314.6C316.2,315.7,322,316.9,328.9,316.7Z" fill="#E6F5EB"/>
            <path class="st2" d="M339.9,154.5C328.1,158.8,316.1,162,307.1,161.5C303.1,161.3,300.2,160.3,297.6,159.5C293,158,289.2,156.8,286,155.7C291.3,154.1,297.3,151.2,303.9,150.5C307,150.2,309.9,150.4,313,150.7C316.4,151,320.1,151.5,323.4,152.4C327.2,153.5,333,154.7,339.9,154.5Z" fill="#E6F5EB"/>
            <path class="st0" d="M20.6,397.3C29.2,400.9,38.1,403.8,44.8,403.7C47.8,403.7,50,403.1,52,402.5C55.5,401.5,58.4,400.8,60.8,400.1C56.9,398.7,52.5,396.3,47.6,395.6C45.3,395.3,43.1,395.3,40.8,395.4C38.3,395.5,35.5,395.7,33,396.3C30.2,397,25.7,397.7,20.6,397.3Z" fill="#39AF62"/>
            <path class="st2" d="M146.4,452.9C134.6,457.2,122.6,460.4,113.6,459.9C109.6,459.7,106.7,458.7,104.1,457.9C99.5,456.4,95.7,455.2,92.5,454.1C97.8,452.5,103.8,449.6,110.4,448.9C113.5,448.6,116.4,448.8,119.5,449.1C122.9,449.4,126.6,449.9,129.9,450.8C133.7,451.8,139.5,453,146.4,452.9Z" fill="#E6F5EB"/>
            <path class="st3" d="M21.9,325C31.3,328.1,40.9,330.4,47.9,329.8C51,329.5,53.3,328.7,55.4,328C59,326.7,62,325.6,64.4,324.7C60.2,323.6,55.3,321.4,50.1,321C47.7,320.8,45.4,321,42.9,321.3C40.2,321.6,37.3,322.1,34.8,322.9C31.9,323.9,27.3,324.9,21.9,325Z" fill="#51B975"/>
            <path class="st1" d="M290.4,259.2C278.6,263.5,266.6,266.7,257.6,266.2C253.6,266,250.7,265,248.1,264.2C243.5,262.7,239.7,261.5,236.5,260.4C241.8,258.8,247.8,255.9,254.4,255.2C257.5,254.9,260.4,255.1,263.5,255.4C266.9,255.7,270.6,256.2,273.9,257.1C277.6,258.2,283.5,259.3,290.4,259.2Z" fill="#007D29"/>
            <path class="st1" d="M181.1,376.9C169.3,381.2,157.3,384.4,148.3,383.9C144.3,383.7,141.4,382.7,138.8,381.9C134.2,380.4,130.4,379.2,127.2,378.1C132.5,376.5,138.5,373.6,145.1,372.9C148.2,372.6,151.1,372.8,154.2,373.1C157.6,373.4,161.3,373.9,164.6,374.8C168.3,375.9,174.2,377,181.1,376.9Z" fill="#007D29"/>
            <path class="st1" d="M263.5,422.6C251.7,426.9,239.7,430.1,230.7,429.6C226.7,429.4,223.8,428.4,221.2,427.6C216.6,426.1,212.8,424.9,209.6,423.8C214.9,422.2,220.9,419.3,227.5,418.6C230.6,418.3,233.5,418.5,236.6,418.8C240,419.1,243.7,419.6,247,420.5C250.7,421.6,256.6,422.8,263.5,422.6Z" fill="#007D29"/>
            <path class="st1" d="M67.6,253.6C55.8,257.9,43.8,261.1,34.8,260.6C30.8,260.4,27.9,259.4,25.3,258.6C20.7,257.1,16.9,255.9,13.7,254.8C19,253.2,25,250.3,31.6,249.6C34.7,249.3,37.6,249.5,40.7,249.8C44.1,250.1,47.8,250.6,51.1,251.5C54.8,252.6,60.7,253.7,67.6,253.6Z" fill="#007D29"/>
            <path class="st0" d="M90.8,523C99.4,526.6,108.3,529.5,115,529.4C118,529.4,120.2,528.8,122.2,528.2C125.7,527.2,128.6,526.5,131,525.8C127.1,524.4,122.7,522,117.8,521.3C115.5,521,113.3,521,111,521.1C108.5,521.2,105.7,521.4,103.2,522C100.4,522.7,96,523.3,90.8,523Z" fill="#39AF62"/>
            <path class="st2" d="M191.7,549.8C179.9,554.1,167.9,557.3,158.9,556.8C154.9,556.6,152,555.6,149.4,554.8C144.8,553.3,141,552.1,137.8,551C143.1,549.4,149.1,546.5,155.7,545.8C158.8,545.5,161.7,545.7,164.8,546C168.2,546.3,171.9,546.8,175.2,547.7C179,548.8,184.8,549.9,191.7,549.8Z" fill="#E6F5EB"/>
            <path class="st2" d="M53.8,479.4C42,483.7,30,486.9,21,486.4C17,486.2,14.1,485.2,11.5,484.4C6.9,482.9,3.1,481.7,-0.1,480.6C5.2,479,11.2,476.1,17.8,475.4C20.9,475.1,23.8,475.3,26.9,475.6C30.3,475.9,34,476.4,37.3,477.3C41.1,478.4,46.9,479.6,53.8,479.4Z" fill="#E6F5EB"/>
            <path class="st1" d="M318.5,675.5C306.7,679.8,294.7,683,285.7,682.5C281.7,682.3,278.8,681.3,276.2,680.5C271.6,679,267.8,677.8,264.6,676.7C269.9,675.1,275.9,672.2,282.5,671.5C285.6,671.2,288.5,671.4,291.6,671.7C295,672,298.7,672.5,302,673.4C305.7,674.5,311.6,675.6,318.5,675.5Z" fill="#007D29"/>
            <g transform="translate(194.139,421.571) translate(-43.8699,-27.3663)">
                <path d="M5.22879,0.195239C5.22879,0.195239,33.4173,0.512369,37.2377,2.69548C41.0581,4.87859,49.2448,7.06169,71.0759,2.1497C92.907,-2.7623,86.8988,-16.613,77.6206,-24.2538C68.3423,-31.8947,73.8604,-45.232,60.9929,-48.1783C42.789,-52.3465,19.7728,-47.5161,18.6813,-32.78C17.5897,-18.044,0.124866,-19.1356,-1.51247,-10.9489C-3.1498,-2.7623,5.22879,0.195239,5.22879,0.195239Z" fill="#007d29" stroke="none" transform="translate(1.7246,49.6153)"/>
                <path d="M-1.67496,-9.869C-0.494141,-10.6301,0.852808,-11.332,2.25381,-12.0621C6.70114,-14.3797,11.6932,-16.9812,13.6452,-22.6614C11.484,-20.7901,8.91035,-19.4489,6.49712,-18.1913C2.62882,-16.1755,-0.827367,-14.3744,-1.51247,-10.9489C-1.58659,-10.5783,-1.64019,-10.2184,-1.67496,-9.869ZM19.4004,-36.2724C23.5917,-48.2616,44.3126,-51.9976,60.9929,-48.1783C68.2642,-46.5134,69.6645,-41.5303,71.1814,-36.132C72.3489,-31.9774,73.5854,-27.5769,77.6206,-24.2538C84.8929,-18.2649,90.1563,-8.46098,81.5799,-2.1365C82.7281,-7.64234,78.5635,-13.8536,73.3773,-18.1246C69.3421,-21.4477,68.1056,-25.8482,66.9381,-30.0028C65.4212,-35.4011,64.0209,-40.3842,56.7496,-42.0491C43.3547,-45.1161,27.3543,-43.311,19.4004,-36.2724Z" fill="#13b349" stroke="none" fill-rule="evenodd" transform="translate(1.7246,49.6153)"/>
            </g>
            <path class="st1" d="M317,525.2C305.2,529.5,293.2,532.7,284.2,532.2C280.2,532,277.3,531,274.7,530.2C270.1,528.7,266.3,527.5,263.1,526.4C268.4,524.8,274.4,521.9,281,521.2C284.1,520.9,287,521.1,290.1,521.4C293.5,521.7,297.2,522.2,300.5,523.1C304.3,524.1,310.1,525.3,317,525.2Z" fill="#007D29"/>
            <path class="st0" d="M118,609.2C126.6,612.8,135.5,615.7,142.2,615.6C145.2,615.6,147.4,615,149.4,614.4C152.9,613.4,155.8,612.7,158.2,612C154.3,610.6,149.9,608.2,145,607.5C142.7,607.2,140.5,607.2,138.2,607.3C135.7,607.4,132.9,607.6,130.4,608.2C127.6,608.9,123.2,609.5,118,609.2Z" fill="#39AF62"/>
            <path class="st2" d="M218.9,636C207.1,640.3,195.1,643.5,186.1,643C182.1,642.8,179.2,641.8,176.6,641C172,639.5,168.2,638.3,165,637.2C170.3,635.6,176.3,632.7,182.9,632C186,631.7,188.9,631.9,192,632.2C195.4,632.5,199.1,633,202.4,633.9C206.2,635,212,636.2,218.9,636Z" fill="#E6F5EB"/>
            <path class="st2" d="M332.9,636C321.1,640.3,309.1,643.5,300.1,643C296.1,642.8,293.2,641.8,290.6,641C286,639.5,282.2,638.3,279,637.2C284.3,635.6,290.3,632.7,296.9,632C300,631.7,302.9,631.9,306,632.2C309.4,632.5,313.1,633,316.4,633.9C320.2,635,326,636.2,332.9,636Z" fill="#E6F5EB"/>
            <path class="st0" d="M20.6,729.3C29.2,732.9,38.1,735.8,44.8,735.7C47.8,735.7,50,735.1,52,734.5C55.5,733.5,58.4,732.8,60.8,732.1C56.9,730.7,52.5,728.3,47.6,727.6C45.3,727.3,43.1,727.3,40.8,727.4C38.3,727.5,35.5,727.7,33,728.3C30.2,729,25.7,729.7,20.6,729.3Z" fill="#39AF62"/>
            <path class="st2" d="M168.5,777.8C156.7,782.1,144.7,785.3,135.7,784.8C131.7,784.6,128.8,783.6,126.2,782.8C121.6,781.3,117.8,780.1,114.6,779C119.9,777.4,125.9,774.5,132.5,773.8C135.6,773.5,138.5,773.7,141.6,774C145,774.3,148.7,774.8,152,775.7C155.7,776.7,161.6,777.9,168.5,777.8Z" fill="#E6F5EB"/>
            <path class="st3" d="M25.9,644.2C35.3,647.3,44.9,649.6,51.9,649C55,648.7,57.3,647.9,59.4,647.2C63,645.9,66,644.8,68.4,643.9C64.2,642.8,59.3,640.6,54.1,640.2C51.7,640,49.4,640.2,46.9,640.5C44.2,640.8,41.3,641.3,38.8,642.1C36,643.1,31.4,644.2,25.9,644.2Z" fill="#51B975"/>
            <path class="st1" d="M294.4,578.5C282.6,582.8,270.6,586,261.6,585.5C257.6,585.3,254.7,584.3,252.1,583.5C247.5,582,243.7,580.8,240.5,579.7C245.8,578.1,251.8,575.2,258.4,574.5C261.5,574.2,264.4,574.4,267.5,574.7C270.9,575,274.6,575.5,277.9,576.4C281.6,577.5,287.5,578.6,294.4,578.5Z" fill="#007D29"/>
            <path class="st1" d="M185.1,696.2C173.3,700.5,161.3,703.7,152.3,703.2C148.3,703,145.4,702,142.8,701.2C138.2,699.7,134.4,698.5,131.2,697.4C136.5,695.8,142.5,692.9,149.1,692.2C152.2,691.9,155.1,692.1,158.2,692.4C161.6,692.7,165.3,693.2,168.6,694.1C172.4,695.2,178.2,696.3,185.1,696.2Z" fill="#007D29"/>
            <path class="st1" d="M298.6,734.3C286.8,738.6,274.8,741.8,265.8,741.3C261.8,741.1,258.9,740.1,256.3,739.3C251.7,737.8,247.9,736.6,244.7,735.5C250,733.9,256,731,262.6,730.3C265.7,730,268.6,730.2,271.7,730.5C275.1,730.8,278.8,731.3,282.1,732.2C285.9,733.3,291.8,734.5,298.6,734.3Z" fill="#007D29"/>
            <path class="st1" d="M332.9,468.2C321.1,472.5,309.1,475.7,300.1,475.2C296.1,475,293.2,474,290.6,473.2C286,471.7,282.2,470.5,279,469.4C284.3,467.8,290.3,464.9,296.9,464.2C300,463.9,302.9,464.1,306,464.4C309.4,464.7,313.1,465.2,316.4,466.1C320.2,467.2,326,468.4,332.9,468.2Z" fill="#007D29"/>
            <path class="st1" d="M71.6,572.9C59.8,577.2,47.8,580.4,38.8,579.9C34.8,579.7,31.9,578.7,29.3,577.9C24.7,576.4,20.9,575.2,17.7,574.1C23,572.5,29,569.6,35.6,568.9C38.7,568.6,41.6,568.8,44.7,569.1C48.1,569.4,51.8,569.9,55.1,570.8C58.9,571.8,64.7,573,71.6,572.9Z" fill="#007D29"/>
            <path class="st1" d="M284.1,2.2C277.9,4.5,271.6,6.1,266.9,5.9C264.8,5.8,263.3,5.3,261.9,4.8C259.5,4,257.5,3.4,255.8,2.8C258.6,2,261.8,0.4,265.2,0.1C266.8,-0.1,268.4,0,270,0.2C271.8,0.4,273.7,0.6,275.5,1.1C277.4,1.7,280.5,2.3,284.1,2.2Z" fill="#007D29"/>
            <path class="st1" d="M53.8,58.4C41.9,62.3,29.8,65.1,20.8,64.3C16.8,63.9,13.9,62.9,11.4,62C6.9,60.3,3.1,59,0,57.8C5.4,56.4,11.5,53.6,18.1,53.2C21.2,53,24.1,53.3,27.2,53.7C30.6,54.1,34.2,54.7,37.5,55.8C41.1,56.9,46.9,58.3,53.8,58.4Z" fill="#007D29"/>
            <path class="st1" d="M87.3,38.4C88.1,35.8,89.9,33.2,94.1,32.3C96.3,31.8,99,31.9,101.6,31.9C107.1,32,112.6,32.1,118.1,32.2C114.8,34.5,113.5,37.6,108.5,38.6C106.5,39,104.1,39.1,101.8,39.1C99.5,39.1,97.1,39,94.7,38.6C92.2,38.2,89.3,38,87.3,38.4Z" fill="#007D29"/>
        </g>
    </g>
    <g id="driver" style="animation: 5s linear both a1_t;">
        <g transform="translate(265.344,702.137) translate(-472.867,-702.137)" style="animation: 5s linear both driver_t;">
            <g id="body1" opacity="1" transform="translate(473,338.159) translate(-149.38,-262.901)" style="animation: 5s linear both body1_t, 5s linear both body1_o;">
                <g id="body" transform="translate(-323.62,-75.2582)">
                    <g>
                        <path class="cls-1" d="M442.51,165.14C442.51,165.14,472.36,160.22,503.51,164.42C503.51,164.42,497.38,188.74,473.02,188.74C443.1,188.74,442.51,165.14,442.51,165.14Z" fill="#075d24"/>
                        <rect class="cls-2" width="22.44" height="38.09" fill="#054d1e" transform="translate(0,0) translate(395.53,536.01)"/>
                        <g>
                            <path class="cls-3" d="M427.82,346.1C427.82,346.1,423.82,362.79,473.34,362.78C541.34,362.78,525.64,352.17,525.64,352.17L507.79,167.45L435.08,170.38Z" fill="#cdebd7"/>
                            <path class="cls-3" d="M491.21,174.43C491.21,174.43,492.9,142.49,492.82,135.83C492.74,129.17,449.38,135.83,449.38,135.83L450.19,174.43Z" fill="#cdebd7"/>
                            <path class="cls-3" d="M523.46,175.81C531.23,174.94,550.55,181.27,554.46,200.81C559.1,224.19,565.12,235.1,581.57,250.3C590.1,258.19,622.38,269.65,622.38,269.65L615.72,278.91C615.72,278.91,556.79,279.97,548.6,267.91C540.41,255.85,521.97,230.61,521.97,230.61C521.97,230.61,514.59,201.16,523.46,175.81Z" fill="#cdebd7"/>
                            <path class="cls-2" d="M430.08,586.56C428.79,579.97,422.93,568.73,403.13,570.89C383.33,573.05,376.53,587.05,376.13,589.81C375.73,592.57,376.13,601.06,376.13,601.06L430.06,601.06C430.06,601.06,430.78,590.14,430.08,586.56Z" fill="#054d1e"/>
                            <path class="cls-4" d="M417.16,391.27L475.23,377.27L474.53,340.16C474.53,340.16,412.71,335.7,398.67,342.24C384.63,348.78,381.4,349.82,378.13,367C374.86,384.18,384.22,556,384.22,556C384.22,556,422.79,553.34,423.03,552.27C430.31,519.59,417.16,391.27,417.16,391.27Z" fill="#b8d7b9"/>
                            <rect class="cls-2" width="22.44" height="38.09" fill="#054d1e" transform="translate(1091.73,1110.11) rotate(-180) translate(534.65,536.01)"/>
                            <path class="cls-2" d="M522.54,586.56C523.83,579.97,529.68,568.73,549.54,570.89C569.4,573.05,576.13,587.05,576.54,589.81C576.95,592.57,576.54,601.06,576.54,601.06L522.54,601.06C522.54,601.06,521.84,590.14,522.54,586.56Z" fill="#054d1e"/>
                            <path class="cls-4" d="M535.46,391.27L475.23,377.27L474.35,338.67C474.35,338.67,539.91,335.67,553.95,342.24C567.99,348.81,571.22,349.87,574.49,367.08C577.76,384.29,568.4,556,568.4,556C568.4,556,529.83,553.34,529.59,552.27C522.31,519.59,535.46,391.27,535.46,391.27Z" fill="#b8d7b9"/>
                        </g>
                    </g>
                    <path class="cls-3" d="M425.47,173.25C422.35,172.9,417.38,173.73,412.28,176.09L412.28,176.09C412.178,176.129,412.077,176.171,411.978,176.214C411.878,176.258,411.779,176.304,411.681,176.353C411.584,176.401,411.487,176.452,411.392,176.505C411.297,176.558,411.203,176.613,411.11,176.67L410.69,176.87C410.569,176.938,410.45,177.011,410.334,177.087C410.217,177.163,410.104,177.243,409.992,177.327C409.881,177.41,409.773,177.497,409.667,177.588C409.562,177.679,409.459,177.773,409.36,177.87C408.89,178.23,408.36,178.66,407.83,179.17L407.83,179.17L407.83,179.17C404.51,182.23,399.7,188.17,394.66,199.36L387.92,220.74C383.6,230.66,375.32,236.07,365.27,245.37C356.74,253.26,323.62,262.9,323.62,262.9L333.31,282.19C333.31,282.19,392.21,277.38,400.4,265.34C408.59,253.3,425.5,232.47,425.5,232.47C425.5,232.47,434.34,198.59,425.47,173.25Z" fill="#cdebd7"/>
                    <g>
                        <path class="cls-7" d="M442.51,165.14C442.51,165.14,447.72,172.55,468.88,175.46C471.986,175.874,475.128,175.944,478.249,175.671C481.371,175.397,484.453,174.781,487.439,173.833C490.426,172.885,493.299,171.611,496.007,170.035C498.715,168.459,501.241,166.589,503.54,164.46L527.2,174.46C527.2,174.46,521.84,217.26,521.26,246.83C520.94,262.83,526.58,332.32,527.2,338.06C527.82,343.8,428.12,339.88,426.33,339C424.54,338.12,424.69,308.79,424.82,306.42C424.95,304.05,424.24,287.85,424.38,281.42C424.52,274.99,422.68,244.28,421.84,234.49C421,224.7,412.56,174.85,412.56,174.85Z" fill="url(#Gradient-1)"/>
                    </g>
                </g>
                <g id="head" transform="translate(149.115,45.2078) translate(-37.725,-45.2078)">
                    <path class="cls-5" d="M498,96.14C500.37,105.89,497.33,129.44,495.88,136.29C495.27,139.17,483,157.56,478.11,157.59C474.89,157.59,470.63,157.79,467.41,157.81C463.06,157.81,449.3,141.14,448.62,139.12C447.89,136.9,446.78,118.19,445.77,110.5C444.84,103.31,444.54,95.72,446.66,91.5C448.78,87.28,455.66,79.57,460.14,78.03C466.14,75.96,479.88,75.22,485.31,78.5C489.87,81.27,496.68,90.81,498,96.14Z" fill="#d4e5d3" transform="translate(-435.01,-75.2581)"/>
                    <path class="cls-6" d="M497.56,125.06C497.56,125.06,495.8,130.79,495.37,131.47C494.46,132.94,492.79,136.91,490.94,135.97C490.372,135.687,489.799,135.412,489.223,135.145C488.647,134.878,488.067,134.62,487.483,134.37C486.899,134.12,486.312,133.878,485.722,133.644C485.131,133.411,484.537,133.186,483.94,132.97C481.94,132.28,475.09,132.17,473.84,132.33C473.84,132.33,467.44,132.07,465.1,132.91C462.76,133.75,456.53,136.02,455.33,135.13C454.13,134.24,452.95,129.08,452.12,127.87C451.674,127.38,451.221,126.896,450.762,126.419C450.302,125.941,449.837,125.469,449.365,125.004C448.893,124.539,448.415,124.08,447.931,123.628C447.446,123.175,446.956,122.729,446.46,122.29C446.46,122.29,447.73,131.95,447.81,132.8C447.89,133.65,448.92,143.32,449.24,144.46C451.63,152.81,454.32,157.98,458.96,161.46C462.19,163.84,470.77,166.74,476.58,165.28C482.99,163.66,487.58,160.83,489.04,159.28C490.5,157.73,493.62,150.8,494.04,149.35C494.353,148.269,494.646,147.182,494.92,146.09C495.194,144.998,495.448,143.902,495.683,142.801C495.917,141.7,496.132,140.595,496.326,139.486C496.521,138.377,496.695,137.265,496.85,136.15C497.37,131.33,497.56,125.06,497.56,125.06ZM479.93,151.41C478.796,150.987,477.627,150.663,476.437,150.444C475.247,150.224,474.04,150.109,472.83,150.099C471.619,150.09,470.411,150.187,469.217,150.388C468.024,150.589,466.85,150.894,465.71,151.3L463.58,147.7C471.18,140.28,478.68,144.05,481.88,147.36Z" fill="#009c33" transform="translate(-435.01,-75.2581)"/>
                    <path class="cls-6" d="M445.75,124.46C445.75,121.702,446.293,118.971,447.349,116.424C448.404,113.876,449.951,111.561,451.901,109.611C453.851,107.661,456.166,106.114,458.714,105.059C461.261,104.003,463.992,103.46,466.75,103.46L478.34,103.46C481.098,103.46,483.829,104.003,486.376,105.059C488.924,106.114,491.239,107.661,493.189,109.611C495.139,111.561,496.686,113.876,497.741,116.424C498.797,118.971,499.34,121.702,499.34,124.46L499.34,134.12C508.49,123.611,510.653,108.724,504.872,96.0462C499.09,83.3682,486.432,75.2399,472.498,75.2581C458.564,75.2763,445.927,83.4377,440.179,96.1308C434.43,108.824,436.632,123.705,445.81,134.19Z" fill="#009c33" transform="translate(-435.01,-75.2581)"/>
                    <path class="cls-1" d="M447.33,142.44L447.33,142.44C445.965,142.436,444.615,142.163,443.356,141.635C442.097,141.108,440.955,140.337,439.995,139.367C439.035,138.397,438.277,137.246,437.763,135.982C437.249,134.718,436.989,133.365,437,132L437,108.16L453,108.57L447.3,116.11Z" fill="#075d24" transform="translate(-435.01,-75.2581)"/>
                    <path class="cls-1" d="M497.72,142.44L497.72,142.44C499.081,142.43,500.426,142.151,501.679,141.621C502.931,141.091,504.068,140.319,505.022,139.349C505.977,138.38,506.731,137.232,507.242,135.971C507.753,134.71,508.011,133.361,508,132L508,108.16L492,108.57L497.7,116.11Z" fill="#075d24" transform="translate(-435.01,-75.2581)"/>
                    <rect class="cls-1" width="75.45" height="3.46" rx="1.17" fill="#075d24" transform="translate(-435.01,-75.2581) translate(435.01,105.84)"/>
                    <path class="cls-2" d="M451.77,93.94L472.3,93.94C472.947,93.94,473.588,94.0675,474.187,94.3153C474.785,94.563,475.328,94.9262,475.786,95.384C476.244,95.8418,476.607,96.3852,476.855,96.9834C477.102,97.5815,477.23,98.2226,477.23,98.87L477.23,99.34C477.23,101.47,476.81,103.58,475.994,105.548C475.178,107.516,473.982,109.304,472.475,110.809C470.968,112.315,469.178,113.508,467.209,114.322C465.24,115.135,463.13,115.553,461,115.55L457.17,115.55C455.811,115.55,454.465,115.282,453.209,114.762C451.954,114.242,450.813,113.48,449.851,112.519C448.89,111.557,448.128,110.416,447.608,109.161C447.088,107.905,446.82,106.559,446.82,105.2L446.82,98.87C446.82,98.2226,446.948,97.5815,447.195,96.9834C447.443,96.3852,447.806,95.8418,448.264,95.384C448.722,94.9262,449.265,94.563,449.863,94.3153C450.462,94.0675,451.103,93.94,451.75,93.94Z" fill="#054d1e" transform="translate(-435.01,-75.2581)"/>
                    <path class="cls-2" d="M478.59,93.94L482.42,93.94C484.549,93.94,486.657,94.3593,488.623,95.1739C490.59,95.9885,492.377,97.1826,493.882,98.6878C495.387,100.193,496.581,101.98,497.396,103.947C498.211,105.913,498.63,108.021,498.63,110.15L498.63,110.62C498.63,111.267,498.502,111.908,498.255,112.507C498.007,113.105,497.644,113.648,497.186,114.106C496.728,114.564,496.185,114.927,495.587,115.175C494.988,115.422,494.347,115.55,493.7,115.55L473.16,115.55C472.513,115.55,471.872,115.422,471.273,115.175C470.675,114.927,470.132,114.564,469.674,114.106C469.216,113.648,468.853,113.105,468.605,112.507C468.358,111.908,468.23,111.267,468.23,110.62L468.23,104.3C468.23,102.941,468.498,101.595,469.018,100.339C469.538,99.0835,470.3,97.9425,471.261,96.9814C472.223,96.0204,473.364,95.258,474.619,94.7378C475.875,94.2177,477.221,93.95,478.58,93.95Z" fill="#054d1e" transform="translate(531.84,134.232) rotate(-180)"/>
                    <path class="cls-8" d="M452.91,97.51L466.66,97.51C467.093,97.51,467.522,97.5954,467.923,97.7612C468.323,97.927,468.687,98.1701,468.993,98.4765C469.3,98.783,469.543,99.1468,469.709,99.5471C469.875,99.9475,469.96,100.377,469.96,100.81L469.96,101.13C469.961,102.556,469.682,103.969,469.137,105.287C468.593,106.605,467.794,107.803,466.786,108.812C465.779,109.821,464.582,110.623,463.265,111.17C461.948,111.716,460.536,111.999,459.11,112L456.55,112C455.639,112,454.736,111.82,453.894,111.472C453.052,111.123,452.287,110.612,451.643,109.967C450.998,109.323,450.487,108.558,450.138,107.716C449.79,106.874,449.61,105.971,449.61,105.06L449.61,100.82C449.61,100.387,449.695,99.9575,449.861,99.5571C450.027,99.1568,450.27,98.793,450.577,98.4865C450.883,98.1801,451.247,97.937,451.647,97.7712C452.048,97.6054,452.477,97.52,452.91,97.52Z" fill="#c8dfc8" transform="translate(-435.01,-75.2581)"/>
                    <path class="cls-8" d="M481.8,97.51L484.36,97.51C485.786,97.51,487.198,97.7909,488.516,98.3367C489.834,98.8824,491.031,99.6824,492.039,100.691C493.048,101.699,493.848,102.896,494.393,104.214C494.939,105.532,495.22,106.944,495.22,108.37L495.22,108.69C495.22,109.123,495.135,109.552,494.969,109.953C494.803,110.353,494.56,110.717,494.253,111.023C493.947,111.33,493.583,111.573,493.183,111.739C492.782,111.905,492.353,111.99,491.92,111.99L478.17,111.99C477.737,111.99,477.308,111.905,476.907,111.739C476.507,111.573,476.143,111.33,475.837,111.023C475.53,110.717,475.287,110.353,475.121,109.953C474.955,109.552,474.87,109.123,474.87,108.69L474.87,104.45C474.87,103.539,475.05,102.636,475.398,101.794C475.747,100.952,476.258,100.187,476.903,99.5427C477.547,98.8982,478.312,98.387,479.154,98.0383C479.996,97.6895,480.899,97.51,481.81,97.51Z" fill="#c8dfc8" transform="translate(535.08,134.232) rotate(-180)"/>
                </g>
            </g>
            <g id="body2" opacity="0" transform="translate(493.331,330.061) rotate(-50) translate(-311.74,-75.0051)" style="animation: 5s linear both body2_o;">
                <g>
                    <g>
                        <g>
                            <g>
                                <path class="st0" d="M470.4,25.6C470.4,25.6,486.3,61.3,473.6,92.6C473.6,92.6,450.3,86.8,448.8,60.8C446.8,28.8,470.4,25.6,470.4,25.6Z" fill="#075D24"/>
                                <g>
                                    <g>
                                        <path class="st1" d="M469,78.9C469,78.9,503.2,78.7,510.3,78.2C517.4,77.7,507.6,31.9,507.6,31.9L466.5,35.2L469,78.9Z" fill="#CDEBD7"/>
                                    </g>
                                </g>
                            </g>
                        </g>
                    </g>
                    <g>
                        <g>
                            <g>
                                <g>
                                    <path class="st2" d="M539.3,80.5C539.3,80.5,542.6,85.3,541.7,86.9C540.8,88.6,525.7,90.2,523.3,89.3C520.9,88.4,518.7,80.8,518.7,80.8C518.7,80.8,528.9,80.5,539.3,80.5Z" fill="#D4E5D3"/>
                                </g>
                            </g>
                        </g>
                        <g>
                            <g>
                                <g>
                                    <path class="st2" d="M552.9,81.2C542.7,84.3,517.3,82.6,509.9,81.4C506.8,80.9,486.4,69,486.1,63.8C485.9,60.4,485.4,55.8,485.2,52.4C484.9,47.8,501.9,32,504,31.2C506.3,30.3,526.2,27.9,534.3,26.4C541.9,25,550,24.2,554.6,26.2C559.3,28.2,567.9,35.1,569.8,39.7C572.4,45.9,574,60.6,570.9,66.6C568.3,71.7,558.5,79.5,552.9,81.2Z" fill="#D4E5D3"/>
                                </g>
                            </g>
                        </g>
                        <g>
                            <g>
                                <g>
                                    <path class="st2" d="M535.1,26.4C535.1,26.4,537.7,21.2,536.5,19.7C535.3,18.2,520.2,18.8,518,20.1C515.8,21.4,514.7,29.6,514.7,29.6C514.7,29.6,523.8,29.7,535.1,26.4Z" fill="#D4E5D3"/>
                                </g>
                            </g>
                        </g>
                        <path class="st3" d="M522.1,82.6C522.1,82.6,515.9,81.1,515.1,80.7C513.5,79.8,509.1,78.3,510,76.2C510.6,74.8,512,71.5,512.8,68.5C513.4,66.3,513.1,59,512.9,57.7C512.9,57.7,512.8,50.9,511.7,48.4C510.7,46,507.9,39.4,508.7,38.1C509.6,36.8,515,35.2,516.2,34.2C517.4,33.2,521.8,27.8,521.8,27.8C521.8,27.8,511.6,29.8,510.7,29.9C509.8,30,499.5,31.7,498.4,32.2C489.6,35.3,484.3,38.5,480.9,43.6C478.6,47.2,476,56.5,477.9,62.6C480,69.3,483.3,74,485.1,75.5C486.9,77,494.4,79.9,496,80.3C497.6,80.7,505.2,82.2,510.3,82.5C515.4,82.8,522.1,82.6,522.1,82.6ZM492.9,65.5C493.2,65.2,495.4,57.7,492.1,50.3L495.8,47.8C504.2,55.4,500.6,63.7,497.3,67.3L492.9,65.5Z" fill="#009C33"/>
                    </g>
                    <path class="st3" d="M519.5,27.3C531.9,26.6,542.5,36,543.2,48.4L543.9,60.8C544.6,73.2,535.2,83.8,522.8,84.5L512.5,85C519.5,90.4,528.4,93.4,537.9,92.9C558.8,91.7,574.8,73.7,573.6,52.8C572.4,31.9,554.4,15.9,533.5,17.1C524,17.7,515.5,21.7,509.1,27.9L519.5,27.3Z" fill="#009C33"/>
                    <rect class="st3" width="57.2" height="5.8" fill="#009C33" transform="translate(563.656,-488.909) rotate(86.6579) translate(512.4,51.4)"/>
                    <path class="st0" d="M500.4,30.1L500.4,30.1C500,24,504.7,18.8,510.9,18.5L536.3,17L536.9,34.1L528.5,28.5L500.4,30.1Z" fill="#075D24"/>
                    <path class="st0" d="M503.5,83.9L503.5,83.9C503.9,90,509.1,94.6,515.3,94.2L540.7,92.7L539.3,75.7L531.6,82.3L503.5,83.9Z" fill="#075D24"/>
                    <path class="st0" d="M539.6,94.1L535,16.1C535,15.4,535.5,14.8,536.2,14.8L537.4,14.7C538.1,14.7,538.7,15.2,538.7,15.9L543.3,93.9C543.3,94.6,542.8,95.2,542.1,95.2L540.9,95.3C540.2,95.3,539.6,94.8,539.6,94.1Z" fill="#075D24"/>
                    <g>
                        <path class="st4" d="M529.9,43L529.7,38.9C529.3,32.8,534,27.6,540.1,27.2L546.8,26.8C549.7,26.6,552.2,28.8,552.4,31.8L553.7,53.7C553.9,56.6,551.7,59.1,548.7,59.3L548.2,59.3C538.7,59.9,530.5,52.6,529.9,43Z" fill="#054D1E"/>
                        <path class="st4" d="M531.4,68L531.6,72.1C532,78.2,537.2,82.9,543.3,82.5L550,82.1C552.9,81.9,555.1,79.4,555,76.5L553.7,54.6C553.5,51.7,551,49.5,548.1,49.6L547.6,49.6C538.1,50.3,530.8,58.5,531.4,68Z" fill="#054D1E"/>
                        <path class="st5" d="M533.6,40.8L533.4,38.1C533.2,34,536.3,30.5,540.4,30.3L544.9,30C546.8,29.9,548.5,31.4,548.6,33.3L549.5,48C549.6,49.9,548.1,51.6,546.2,51.7L545.9,51.7C539.5,52.1,534,47.2,533.6,40.8Z" fill="#C8DFC8"/>
                        <path class="st5" d="M535.3,69.2L535.5,71.9C535.7,76,539.2,79.1,543.3,78.9L547.8,78.6C549.7,78.5,551.2,76.8,551.1,74.9L550.2,60.2C550.1,58.3,548.4,56.8,546.5,56.9L546.2,56.9C539.8,57.3,534.9,62.8,535.3,69.2Z" fill="#C8DFC8"/>
                    </g>
                </g>
                <g>
                    <g>
                        <g>
                            <g>
                                <path class="st2" d="M448.9,92.6C448.9,92.6,496.3,96.1,525.8,101.2C555.3,106.3,590.3,113.1,590.3,113.1C590.3,113.1,610.6,124.6,591.4,128.3C588.4,128.9,488,123.8,483.2,124C478.4,124.2,442.2,122,437.7,108.5C432.5,93.1,448.9,92.6,448.9,92.6Z" fill="#D4E5D3"/>
                            </g>
                        </g>
                    </g>
                    <path class="st3" d="M616.6,137.8C619.2,136.7,622.4,132.2,625.7,126.4C628,122.4,629.2,117.8,629.9,115.6C631,112.2,626.3,111.8,622.5,111C619.1,110.2,615.6,110,611.7,109.6C613.2,109.2,614.3,108.7,614.4,107.8C614.5,105.6,614.3,106,611.3,105.5C604.6,104.2,595.8,106.2,591.3,107.4C587.5,107.8,583.9,108.2,583.9,108.2L576.7,107.3L573.9,130.4L582.5,131C585.4,131.1,589.8,131.5,592.9,131.8C602.4,135.5,613.9,138.9,616.6,137.8Z" fill="#009C33"/>
                    <g>
                        <g>
                            <g>
                                <g>
                                    <path class="st1" d="M474,40.7C474,40.7,458.7,1.9,455.6,0.9C452.5,0,421.8,4.5,369,18.7C363.2,20.3,316.7,24.9,313.3,25.9C282.8,35.4,290.1,88.4,306.5,105.7C309.6,109,344.9,103.4,350.9,104.2C356.9,104.9,378.9,111.1,392.7,112.5C409.7,114.2,465.7,113,465.7,113L475.6,78.2C475.6,78.2,475.9,66,474,40.7Z" fill="#CDEBD7"/>
                                </g>
                            </g>
                        </g>
                    </g>
                    <path class="st4" d="M32.3,53.3C32.4,53.3,32.7,53.4,33,53.6C33.9,53.9,34.8,54.4,35,54.6L35,54.6C39.5,56.9,48.3,61.8,53.9,64.7C54,64.6,54,64.6,54.1,64.5L54.7,65.1C56.3,65.9,57.6,66.6,58.3,66.8C58.9,67,59.6,67.3,60.3,67.5C60.3,67.5,60.3,67.4,60.4,67.4L61.2,67.8C62,68,62.8,68.3,63.7,68.5C64.8,68.8,71.2,69,72.5,71.4C72.6,71.5,72.7,71.7,72.7,72C73.1,75.4,68.2,86,68.2,86L68.2,86C67.9,87,67.6,87.9,67.3,88.8L67,89.9C67,89.9,66.9,89.9,66.8,89.9C65.9,93,65.5,95.7,66.1,97C66.1,97,63.7,96.1,60.8,95.3C60.7,95.5,60.6,95.7,60.4,95.9C59.9,96.6,58.8,95.9,59.3,95.2C59.4,95.1,59.4,95,59.4,95C58.1,94.7,56.7,94.4,55.4,94.2C55.2,94.5,55,94.9,54.8,95.2C54.3,95.9,53.2,95.2,53.7,94.5C53.8,94.4,53.8,94.3,53.9,94.1C53.4,94.1,52.9,94.1,52.5,94.1C52,94.1,51.5,94.4,50.7,94.7C50.5,95.1,50.3,95.5,50,95.8C49.7,96.2,49.3,96,49.1,95.7C48.2,96.3,47.2,97,46.1,97.9C46.1,98.4,46,98.9,45.9,99.3C45.7,100.1,44.6,99.7,44.6,99C43.6,99.8,42.7,100.6,41.7,101.4C41.7,101.7,41.6,101.9,41.6,102.2C41.5,102.8,40.9,102.7,40.5,102.4C39.8,103,39,103.7,38.3,104.3C38.3,104.7,38.3,105.1,38.1,105.5C37.9,106.1,37.1,106,36.9,105.5C36.1,106.3,35.2,107,34.4,107.8C34.5,108.1,34.5,108.5,34.5,108.8C34.5,109.6,33.4,109.6,33.2,108.9C32.3,109.7,31.5,110.5,30.8,111.3L30.3,112C30.3,112,30.3,112,30.2,111.9C27.6,114.5,25.7,116.6,25.4,117.3C24.3,119.7,18.3,130.7,16.5,131.8C15.1,132.7,9,131.9,6.1,131.2C6.1,131.2,6.1,131.3,6.1,131.3C6.1,131.3,5.8,131.2,5.5,131.1C5.2,131,4.9,130.9,4.7,130.8C4.5,130.7,4.4,130.7,4.2,130.6C3.3,130.4,0.8,129.8,0.1,129.3C-0.1,129.1,0,128.2,0.2,126.6C0.8,126.7,1.5,126.9,1.7,126.8C2,126.6,2.2,126,2,125.9C1.9,125.8,1,125.5,0.4,125.3C0.5,124.5,0.7,123.6,0.9,122.6C1.4,122.7,2.1,122.8,2.2,122.7C2.5,122.5,2.7,121.9,2.5,121.8C2.4,121.7,1.7,121.5,1.1,121.3C1.3,120.5,1.4,119.7,1.6,118.8C2.1,118.9,2.8,119,2.9,118.9C3.2,118.7,3.4,118.1,3.2,118C3.1,117.9,2.4,117.7,1.8,117.5C2,116.6,2.2,115.6,2.4,114.7C2.9,114.8,3.6,114.9,3.8,114.8C4.1,114.6,4.3,114,4.1,113.9C4,113.8,3.3,113.6,2.7,113.4C2.9,112.6,3.1,111.7,3.3,110.9C3.8,111,4.4,111.1,4.5,111C4.8,110.8,5,110.2,4.8,110.1C4.7,110,4.1,109.8,3.6,109.7C3.9,108.8,4.1,107.9,4.3,107.1C4.8,107.2,5.5,107.4,5.7,107.3C6,107.1,6.3,106.6,6.1,106.4C6,106.3,5.3,106.1,4.8,105.9C4.9,105.4,5.1,105,5.2,104.6C5.3,104.2,5.5,103.8,5.6,103.4C6.1,103.6,6.7,103.7,6.9,103.6C7.2,103.4,7.5,102.9,7.3,102.7C7.2,102.6,6.6,102.3,6.1,102.1C6.5,101.1,6.9,100.1,7.3,99.1C7.8,99.3,8.5,99.6,8.7,99.5C9,99.4,9.4,98.9,9.2,98.6C9.2,98.4,8.6,98,8,97.7C8.4,96.8,8.8,95.9,9.2,94.9C9.7,95.1,10.3,95.4,10.5,95.3C10.8,95.2,11.2,94.7,11,94.4C10.9,94.3,10.3,93.9,9.7,93.6C10,92.8,10.4,92.1,10.7,91.4C11.2,91.6,11.9,91.9,12.1,91.8C12.4,91.7,12.8,91.2,12.6,90.9C12.5,90.8,11.8,90.4,11.3,90.1C11.7,89.3,12,88.6,12.4,87.9C12.9,88.1,13.5,88.4,13.7,88.3C14,88.2,14.4,87.7,14.2,87.4C14.1,87.3,13.5,87,13,86.7C13.4,85.9,13.8,85.2,14.2,84.6C14.7,84.8,15.5,85.2,15.7,85.1C16,85,16.4,84.5,16.2,84.2C16.1,84.1,15.5,83.7,14.9,83.4C15.1,83.1,15.2,82.9,15.4,82.7C18.3,78.6,21.8,72.9,21.8,72.9L18.8,71.9C18.8,71.9,19.1,71.2,19.5,70.1C20.2,70.4,21,70.6,21.4,70.7C22.1,70.8,22.6,69.5,21.3,69C20.8,68.8,20.4,68.7,20,68.6C20.3,67.7,20.7,66.7,21.1,65.6C21.7,65.8,22.5,66.1,22.8,66.1C23.5,66.2,24,64.9,22.7,64.4C22.3,64.3,22,64.2,21.6,64C22,62.9,22.4,61.8,22.9,60.7C23.6,60.9,24.3,61.2,24.7,61.2C25.4,61.3,25.9,60,24.6,59.5C24.2,59.4,23.8,59.2,23.5,59.1C23.9,58,24.4,56.9,24.7,55.9C25.3,56.1,26,56.4,26.4,56.4C27.1,56.5,27.6,55.2,26.3,54.7C26,54.6,25.6,54.5,25.3,54.4C26.1,52.4,26.7,51,26.8,51.1C27.3,51.5,32.3,53.3,32.3,53.3Z" fill="#054D1E"/>
                    <path class="st6" d="M252,60.2C224,61.7,176.7,64.1,165.4,64.5C164.7,64.5,164,64.6,163.4,64.8C153.9,65.3,135.3,66.2,114,66.5C83.1,66.9,58.4,64.7,53.8,67.9C49.1,71.1,45.5,92.6,53.6,97.9C61.5,103.2,148.5,106.1,164.9,104.6C165.3,104.6,165.7,104.6,166.2,104.6C176.3,104.7,243.9,111.6,263,108.8C265.3,109.9,325.3,106.7,325.3,106.7L333.3,23.8C333.2,23.9,287,8.2,252,60.2" fill="url(#Gradient-2)"/>
                    <path class="st3" d="M84.9,165.5C85,165.5,85.3,165.4,85.7,165.3C86.6,165.1,87.6,164.8,87.9,164.9L87.9,164.9C92.9,164.2,103,163,109.2,162.2C109.2,162.1,109.2,162,109.2,162L110,162.1C111.8,161.8,113.2,161.6,113.9,161.5C114.5,161.4,115.2,161.2,115.9,160.9C115.9,160.9,115.9,160.8,115.9,160.8L116.7,160.7C117.5,160.4,118.3,160.2,119.1,159.9C120.2,159.5,125.5,156,127.9,157.1C128.1,157.1,128.2,157.3,128.4,157.5C130.7,160,132.8,171.5,132.8,171.5L132.8,171.5C133.1,172.5,133.4,173.4,133.7,174.3L134.1,175C134.1,175,134,175.1,134,175.1C135.1,178.2,136.3,180.6,137.5,181.3C137.5,181.3,135.1,181.9,132.2,183C132.2,183.2,132.3,183.5,132.3,183.7C132.3,184.6,131,184.6,131,183.7C131,183.6,131,183.5,131,183.4C129.7,183.9,128.4,184.5,127.3,185.1C127.4,185.5,127.4,185.9,127.4,186.2C127.4,187.1,126.1,187.1,126.1,186.2C126.1,186.1,126.1,185.9,126.1,185.8C125.7,186.1,125.3,186.4,124.9,186.7C124.6,187,124.2,187.5,123.8,188.2C123.9,188.6,123.9,189.1,123.8,189.5C123.7,190,123.3,190.1,123,189.9C122.6,190.9,122.2,192.1,121.8,193.4C122.1,193.8,122.3,194.2,122.5,194.7C122.8,195.4,121.7,195.8,121.3,195.2C121,196.4,120.6,197.6,120.3,198.9C120.4,199.1,120.6,199.4,120.7,199.6C120.9,200.1,120.4,200.5,120,200.4C119.8,201.3,119.6,202.3,119.3,203.3C119.6,203.6,119.8,204,119.9,204.4C120.1,205,119.4,205.4,118.9,205.1C118.7,206.2,118.4,207.3,118.2,208.4C118.5,208.6,118.7,208.9,118.9,209.2C119.3,209.9,118.4,210.5,117.9,210.1C117.7,211.3,117.5,212.4,117.3,213.5L117.3,214.4C117.3,214.4,117.3,214.4,117.2,214.4C116.6,218.1,116.3,220.8,116.5,221.5C117,224.1,118.5,236.5,117.7,238.5C117.1,240.1,111.7,242.9,108.8,244C108.8,244,108.8,244,108.8,244C108.8,244,108.5,244.1,108.2,244.2C107.9,244.3,107.6,244.4,107.4,244.4C107.2,244.5,107.1,244.5,106.9,244.6C106.1,244.9,103.7,246,102.8,245.9C102.6,245.9,102,245.1,101.3,243.7C101.8,243.5,102.5,243.1,102.6,242.9C102.7,242.6,102.6,242,102.3,242C102.1,242,101.3,242.3,100.6,242.5C100.2,241.8,99.8,240.9,99.4,240C99.9,239.8,100.5,239.5,100.6,239.3C100.7,239,100.6,238.4,100.3,238.4C100.1,238.4,99.5,238.6,98.9,238.8C98.6,238.1,98.2,237.3,97.9,236.5C98.4,236.3,99,236,99,235.8C99.1,235.5,99,234.9,98.7,234.9C98.5,234.9,97.9,235.1,97.3,235.3C96.9,234.4,96.5,233.5,96.2,232.6C96.7,232.4,97.3,232.1,97.4,231.9C97.5,231.6,97.4,231,97.1,231C96.9,231,96.3,231.2,95.7,231.4C95.4,230.6,95.1,229.8,94.8,229C95.3,228.8,95.8,228.5,95.8,228.4C95.9,228.1,95.8,227.5,95.5,227.5C95.4,227.5,94.8,227.7,94.3,227.8C94,226.9,93.6,226,93.4,225.2C93.9,225,94.5,224.7,94.6,224.5C94.7,224.2,94.6,223.6,94.3,223.5C94.1,223.5,93.5,223.7,92.9,223.8C92.8,223.4,92.6,222.9,92.5,222.5C92.4,222.1,92.3,221.7,92.2,221.3C92.7,221.1,93.3,220.9,93.4,220.7C93.6,220.4,93.5,219.8,93.2,219.7C93,219.7,92.4,219.8,91.9,219.9C91.6,218.9,91.4,217.8,91.1,216.7C91.7,216.6,92.3,216.4,92.4,216.2C92.6,215.9,92.6,215.3,92.3,215.2C92.1,215.2,91.4,215.2,90.7,215.3C90.5,214.3,90.3,213.3,90.1,212.4C90.7,212.3,91.3,212.1,91.4,212C91.6,211.7,91.6,211.1,91.3,211C91.1,211,90.4,211,89.8,211.1C89.6,210.3,89.5,209.5,89.3,208.7C89.9,208.6,90.6,208.4,90.7,208.2C90.9,207.9,90.9,207.3,90.6,207.2C90.4,207.2,89.7,207.2,89.1,207.3C89,206.5,88.8,205.7,88.7,204.9C89.2,204.8,89.9,204.6,90,204.5C90.2,204.2,90.2,203.6,89.9,203.5C89.8,203.5,89.1,203.5,88.5,203.6C88.4,202.7,88.3,201.9,88.2,201.2C88.8,201.1,89.6,200.9,89.7,200.7C89.9,200.4,89.9,199.8,89.6,199.7C89.4,199.7,88.7,199.7,88.1,199.8C88.1,199.5,88.1,199.2,88.1,198.9C88.1,193.9,87.6,187.2,87.6,187.2L84.6,188.1C84.6,188.1,84.4,187.4,84.1,186.2C84.8,186,85.7,185.8,86,185.5C86.6,185.1,86.3,183.8,85,184.2C84.5,184.3,84.1,184.5,83.7,184.6C83.5,183.7,83.2,182.6,82.9,181.5C83.6,181.3,84.3,181.1,84.6,180.9C85.2,180.5,84.9,179.2,83.6,179.6C83.2,179.7,82.8,179.8,82.5,179.9C82.2,178.8,81.9,177.6,81.6,176.5C82.3,176.3,83,176.1,83.3,175.9C83.9,175.5,83.6,174.2,82.3,174.6C81.9,174.7,81.5,174.8,81.2,174.9C80.9,173.7,80.6,172.6,80.4,171.6C81,171.4,81.7,171.2,82,171C82.6,170.6,82.3,169.3,81,169.7C80.6,169.8,80.3,169.9,80,170C79.5,167.9,79.2,166.5,79.3,166.4C79.9,166.9,84.9,165.5,84.9,165.5Z" fill="#009C33"/>
                    <path class="st7" d="M212.7,89.4C212.2,89.8,211.7,90.3,211.2,90.8C203.8,96.7,189.2,108.3,172,120.9C147.1,139.2,125.7,151.7,123.8,157C121.9,162.3,131.4,181.9,141.1,181.6C150.6,181.3,223.1,133.2,235.6,122.3C236,122.1,236.3,121.8,236.7,121.6C245,115.8,288.3,110.2,318.1,109.1C319.8,108.8,330,48.4,318.5,26.6C313.3,16.6,281.3,34.9,281.3,34.9" fill="url(#Gradient-3)"/>
                    <g>
                        <g>
                            <path class="st8" d="M470.4,25.6C470.4,25.6,461.2,32.8,460.2,54.3C459.2,75.8,473.6,92.6,473.6,92.6L473.6,92.6C474.4,105.6,464,116.6,451,116.5C433.8,116.3,411.1,115.5,395.3,113C384.9,111.3,334.2,113.8,328.6,114.9C323.1,116,318.6,110.3,317.4,107.8C312.8,98,307.5,59.3,307.2,50.2C307.1,45.8,314.3,24.1,315,22.2C315.7,20.3,326.6,20.9,328.9,20.9C331.2,20.8,346.9,18.8,353.2,18.4C359.5,18,389,12.3,398.5,10.6C408,8.9,457.9,2.3,457.9,2.3L470.4,25.6Z" fill="url(#Gradient-4)"/>
                        </g>
                    </g>
                    <g>
                        <g>
                            <g>
                                <path class="st2" d="M464.2,11.5C464.2,11.5,452.9,32.8,438.2,51.7C423.6,70.6,415,84,411.5,86.5C407.9,89,390.7,97.1,387.5,77.2C386.9,73.7,415.2,28.3,418.2,24.4C421.1,20.4,452.6,-19,464.2,11.5Z" fill="#D4E5D3"/>
                            </g>
                        </g>
                    </g>
                    <g>
                        <g>
                            <g>
                                <path class="st2" d="M407.5,69.6C407.5,69.6,425.5,89.5,434.4,103.5C443.3,117.5,453.1,134.5,453.1,134.5C453.1,134.5,452.8,148.5,441.5,143.3C439.7,142.5,399.8,101.6,397.5,99.9C395.2,98.2,381.1,83.2,389.8,74.2C399.9,63.7,407.5,69.6,407.5,69.6Z" fill="#D4E5D3"/>
                            </g>
                        </g>
                    </g>
                    <path class="st3" d="M457.4,174C460,175.1,465.5,174.3,472,172.7C476.4,171.6,480.6,169.3,482.7,168.2C485.9,166.6,482.9,163,481,159.6C479.3,156.6,477,153.9,474.5,150.9C475.8,151.8,476.9,152.2,477.6,151.6C479.3,150.2,478.8,150.3,477.2,147.8C473.5,142.1,466,137.1,462,134.7C459.1,132.3,456.3,129.9,456.3,129.9L451.9,124.1L433.2,138L438.7,144.6C440.6,146.7,443.4,150.2,445.3,152.6C449.2,162.1,454.7,172.8,457.4,174Z" fill="#009C33"/>
                </g>
            </g>
            <g id="bike">
                <path class="cls-9" d="M420.08,457.22C420.08,457.22,407.24,533.4,407.47,579.28C407.7,625.16,413.4,633.05,457.3,632.83C501.2,632.61,461.09,457,461.09,457Z" fill="#007d29"/>
                <path class="cls-9" d="M529.55,456.69C529.55,456.69,543.13,532.74,543.35,578.62C543.57,624.5,537.94,632.44,494.04,632.62C450.14,632.8,488.54,456.85,488.54,456.85Z" fill="#007d29"/>
                <rect class="cls-10" width="192.59" height="13.42" rx="1.15" fill="#33b05c" transform="translate(-2.95,2.31) rotate(-0.28) translate(378.31,600.59)"/>
                <path class="cls-11" d="M549.63,415.84C541.33,381.91,498.19,375.21,473.47,375.33C447.87,375.46,399,383.01,393,420.33C392.894,420.999,392.801,421.671,392.722,422.344C392.642,423.017,392.577,423.692,392.525,424.367C392.473,425.043,392.436,425.72,392.411,426.397C392.387,427.075,392.377,427.752,392.38,428.43C392.59,472.74,398.97,481.79,430.65,481.63L513.39,481.23C545.08,481.08,551.39,471.97,551.15,427.66C551.142,426.664,551.104,425.669,551.037,424.676C550.969,423.683,550.872,422.692,550.745,421.704C550.618,420.717,550.461,419.734,550.275,418.755C550.089,417.777,549.874,416.805,549.63,415.84Z" fill="url(#Gradient-5)"/>
                <path class="cls-12" d="M463,375.38C462.82,375.38,444.22,378.05,427.21,374.43C412.13,371.2,407.54,362.88,394.63,334.22C377.56,296.32,360.41,252.85,344.81,258.75C336.51,261.9,322.56,267.99,313.65,271.82C311.65,275.38,312.31,279.12,314.57,282.52C323.62,278.52,335.91,273.52,344.87,271C355.87,268,371.55,308.16,385.38,338.45C398,366.07,404.33,379.93,425.08,384.37C426.971,384.75,428.871,385.081,430.78,385.361C432.688,385.641,434.603,385.871,436.523,386.051C438.444,386.23,440.368,386.359,442.296,386.438C444.223,386.516,446.151,386.543,448.08,386.52C449.449,386.516,450.818,386.491,452.186,386.445C453.554,386.399,454.921,386.331,456.287,386.242C457.653,386.152,459.017,386.042,460.38,385.91C461.742,385.778,463.102,385.625,464.46,385.45Z" fill="url(#Gradient-6)"/>
                <path class="cls-13" d="M623.2,266.74C614.53,263.15,601.76,256.67,593.64,254.51C572.49,248.88,563.36,306.24,551.24,333.46C538.45,362.18,534.1,370.61,519.05,373.98C502.05,377.77,483.45,375.32,483.27,375.28L481.89,385.36C483.249,385.525,484.611,385.667,485.974,385.788C487.338,385.908,488.703,386.006,490.07,386.082C491.437,386.158,492.805,386.212,494.174,386.243C495.542,386.274,496.911,386.283,498.28,386.27C500.211,386.276,502.141,386.232,504.069,386.136C505.997,386.04,507.922,385.893,509.843,385.695C511.763,385.497,513.678,385.248,515.585,384.949C517.492,384.65,519.391,384.3,521.28,383.9C541.99,379.26,548.18,365.34,560.53,337.6C574.08,307.17,582.45,263.9,593.46,266.84C595.574,267.456,597.678,268.104,599.773,268.783C601.867,269.463,603.951,270.173,606.024,270.916C608.097,271.658,610.159,272.431,612.208,273.235C614.258,274.039,616.295,274.874,618.32,275.74C620.76,272.85,622.87,269.59,623.2,266.74Z" fill="url(#Gradient-7)"/>
                <path class="cls-10" d="M438.18,609.39L436.94,353.32C436.932,352.475,436.759,351.639,436.429,350.86C436.1,350.081,435.621,349.375,435.02,348.78C434.419,348.186,433.707,347.715,432.925,347.394C432.143,347.073,431.305,346.909,430.46,346.91L429.53,346.91C428.686,346.917,427.851,347.089,427.072,347.417C426.294,347.746,425.588,348.223,424.994,348.824C424.4,349.424,423.93,350.135,423.61,350.917C423.291,351.699,423.127,352.535,423.13,353.38L424.37,609.45Z" fill="#33b05c"/>
                <path class="cls-10" d="M523.1,609L521.85,352.93C521.843,352.085,521.671,351.25,521.343,350.471C521.015,349.692,520.537,348.986,519.937,348.391C519.336,347.796,518.625,347.325,517.844,347.004C517.062,346.683,516.225,346.519,515.38,346.52L514.45,346.52C513.601,346.523,512.761,346.692,511.978,347.019C511.195,347.346,510.483,347.824,509.884,348.426C509.286,349.027,508.811,349.741,508.488,350.526C508.164,351.31,507.999,352.151,508,353L509.25,609.07Z" fill="#33b05c"/>
                <rect class="cls-10" width="109.47" height="8.81" rx="0.75" fill="#33b05c" transform="translate(-1.7,2.3) translate(416.82,346.71)"/>
                <rect class="cls-10" width="109.47" height="8.81" rx="0.75" fill="#33b05c" transform="translate(-1.97,2.3) rotate(-0.28) translate(417.08,401.98)"/>
                <path class="cls-10" d="M513.66,366C513.753,382.274,504.032,397.001,489.031,403.312C474.03,409.622,456.705,406.274,445.136,394.828C433.567,383.382,430.034,366.094,436.184,351.026C442.334,335.959,456.956,326.081,473.23,326C478.511,325.974,483.745,326.987,488.634,328.983C493.523,330.978,497.971,333.917,501.725,337.631C505.479,341.345,508.465,345.762,510.513,350.629C512.56,355.496,513.63,360.719,513.66,366Z" fill="#33b05c"/>
                <path class="cls-14" d="M507.13,366C507.195,379.63,499.042,391.957,486.474,397.233C473.906,402.509,459.398,399.694,449.714,390.102C440.031,380.51,437.079,366.029,442.235,353.411C447.391,340.794,459.64,332.525,473.27,332.46C477.695,332.44,482.081,333.292,486.177,334.967C490.273,336.641,494,339.106,497.144,342.22C500.287,345.334,502.788,349.037,504.501,353.117C506.214,357.197,507.108,361.575,507.13,366Z" fill="#b3e1c2"/>
                <path class="cls-6" d="M444.2,481.39L502.8,481.39C503.194,481.39,503.584,481.468,503.948,481.618C504.312,481.769,504.643,481.99,504.921,482.269C505.2,482.547,505.421,482.878,505.572,483.242C505.722,483.606,505.8,483.996,505.8,484.39L505.8,670.6C505.805,674.589,505.024,678.541,503.501,682.228C501.979,685.916,499.744,689.267,496.925,692.09C494.107,694.913,490.759,697.153,487.074,698.682C483.39,700.211,479.439,700.999,475.45,701L471.56,701C467.57,701,463.619,700.213,459.932,698.685C456.246,697.157,452.898,694.917,450.078,692.094C447.258,689.27,445.023,685.919,443.5,682.231C441.976,678.542,441.195,674.59,441.2,670.6L441.2,484.39C441.2,483.996,441.278,483.606,441.428,483.242C441.579,482.878,441.8,482.547,442.079,482.269C442.357,481.99,442.688,481.769,443.052,481.618C443.416,481.468,443.806,481.39,444.2,481.39Z" fill="#009c33" transform="translate(-2.87,2.31) rotate(-0.28)"/>
                <path class="cls-15" d="M496.32,366C496.364,375.258,490.828,383.631,482.291,387.215C473.755,390.799,463.9,388.888,457.323,382.373C450.745,375.858,448.739,366.022,452.241,357.452C455.742,348.882,464.062,343.265,473.32,343.22C476.326,343.206,479.305,343.783,482.088,344.92C484.871,346.057,487.402,347.731,489.538,349.846C491.674,351.962,493.372,354.477,494.536,357.249C495.699,360.02,496.306,362.994,496.32,366Z" fill="#fff"/>
            </g>
            <g id="hand" opacity="1" transform="translate(467.426,269.69) translate(-157.087,-16.9354)" style="animation: 5s linear both hand_o;">
                <path class="cls-16" d="M343.71,264.32C343.65,263.32,343.71,257.48,332.04,257.83C320.37,258.18,316.5,264.31,312,269.14C309.87,271.42,310,274.94,311.2,278.23C312.56,281.91,313.2,282.73,316.68,285.45C320.76,288.68,323.42,284.23,323.42,284.23C323.42,284.23,327.64,285.73,329.42,284.49C331.2,283.25,331.53,280.17,331.53,280.17C331.53,280.17,333.62,282.58,336.68,280.22C339.74,277.86,344.25,275.24,343.71,264.32Z" fill="#0f8b37" transform="translate(-310.338,-252.755)"/>
                <path class="cls-16" d="M591.13,259.26C591.13,258.26,591.13,252.42,602.79,252.77C614.45,253.12,618.34,259.25,622.85,264.08C624.98,266.36,624.85,269.87,623.66,273.17C622.3,276.85,621.66,277.66,618.17,280.39C614.1,283.62,611.44,279.17,611.44,279.17C611.44,279.17,607.22,280.67,605.44,279.43C603.66,278.19,603.33,275.1,603.33,275.1C603.33,275.1,601.24,277.52,598.19,275.1C595.14,272.68,590.58,270.18,591.13,259.26Z" fill="#0f8b37" transform="translate(-310.338,-252.755)"/>
            </g>
        </g>
    </g>
    <g id="popup" transform="translate(765.572,295.048) scale(0,0) translate(-780.5,-275.855)" style="animation: 5s linear both popup_t;">
        <path class="cls-17" d="M780.5,176.78L793.71,188.53L809.78,181.21L819,196.34L836.52,194.09L840.83,211.26L858.23,214.26L857.25,232L873,240L866.92,256.63L879.57,269L868.87,283.08L877.36,298.61L863,308.88L866.55,326.23L849.8,331.82L848.09,349.45L830.43,349.84L823.62,366.17L806.62,361.33L795.31,374.93L780.5,365.28L765.69,374.93L754.38,361.33L737.38,366.17L730.57,349.84L712.91,349.45L711.2,331.82L694.45,326.23L698,308.88L683.63,298.58L692.12,283.05L681.43,269L694.1,256.67L688,240L703.73,232L702.8,214.31L720.2,211.31L724.51,194.14L742.03,196.39L751.2,181.26L767.27,188.58Z" fill="#ff9632"/>
        <path class="cls-15" d="M712.57,273.18C713.047,273.338,713.53,273.475,714.019,273.593C714.507,273.711,715,273.808,715.497,273.885C715.993,273.962,716.493,274.019,716.994,274.055C717.495,274.09,717.998,274.106,718.5,274.1C724.5,274.1,728.04,271.21,728.04,266.17C728.04,263.67,727.2,261.78,725.54,260.67C725.319,260.546,725.095,260.43,724.867,260.321C724.639,260.212,724.407,260.111,724.172,260.017C723.937,259.924,723.699,259.838,723.459,259.76C723.218,259.682,722.975,259.612,722.73,259.55C722.902,259.504,723.072,259.454,723.241,259.4C723.411,259.347,723.579,259.289,723.746,259.228C723.913,259.167,724.078,259.103,724.242,259.035C724.406,258.967,724.569,258.895,724.73,258.82C726.73,257.82,727.73,255.9,727.73,253.24C727.73,248.93,724.73,246.43,719.38,246.43C718.847,246.447,718.315,246.485,717.785,246.542C717.255,246.599,716.727,246.675,716.202,246.771C715.678,246.868,715.157,246.983,714.641,247.118C714.125,247.253,713.614,247.407,713.11,247.58L713.34,251.89C713.746,251.633,714.17,251.404,714.607,251.205C715.045,251.007,715.496,250.839,715.957,250.703C716.418,250.567,716.888,250.463,717.364,250.393C717.839,250.322,718.319,250.284,718.8,250.28C721.23,250.28,722.61,251.55,722.61,253.86C722.61,256.55,720.8,257.86,717.03,257.86C716.921,257.866,716.812,257.87,716.703,257.873C716.593,257.876,716.484,257.878,716.375,257.878C716.266,257.878,716.157,257.876,716.047,257.873C715.938,257.87,715.829,257.866,715.72,257.86L715.72,261.98C715.857,261.957,715.994,261.937,716.132,261.92C716.27,261.903,716.409,261.89,716.547,261.88C716.686,261.87,716.824,261.863,716.963,261.86C717.102,261.857,717.241,261.857,717.38,261.86C721,261.86,722.73,263.17,722.73,265.94C722.738,266.227,722.718,266.515,722.671,266.799C722.625,267.082,722.551,267.361,722.452,267.631C722.353,267.901,722.229,268.161,722.081,268.407C721.933,268.654,721.762,268.886,721.57,269.1C721.327,269.311,721.062,269.498,720.782,269.657C720.501,269.815,720.205,269.945,719.898,270.045C719.591,270.144,719.275,270.212,718.955,270.249C718.634,270.285,718.311,270.289,717.99,270.26C715.99,270.26,715.11,269.99,712.72,268.75ZM738,268.71L733,268.71L733,273.71L738,273.71ZM743,273.1C746,273.99,746.62,274.1,748.54,274.1C751.82,274.1,754.39,273.22,756.01,271.56C756.412,271.132,756.771,270.665,757.081,270.165C757.39,269.666,757.649,269.137,757.854,268.586C758.059,268.036,758.208,267.466,758.3,266.885C758.391,266.305,758.425,265.717,758.4,265.13C758.4,259.94,755.13,256.51,750.16,256.51C750.002,256.509,749.844,256.511,749.686,256.515C749.528,256.52,749.371,256.527,749.213,256.537C749.055,256.547,748.898,256.56,748.741,256.576C748.583,256.591,748.427,256.609,748.27,256.63L748.27,250.85L757.13,250.85L757.13,246.85L743.64,246.85L743.64,261.25C743.976,261.112,744.318,260.989,744.665,260.882C745.012,260.775,745.364,260.684,745.719,260.61C746.074,260.535,746.433,260.477,746.794,260.435C747.154,260.393,747.517,260.368,747.88,260.36C751.03,260.36,753,262.25,753,265.36C753,268.47,751.27,270.05,748.19,270.05C747.772,270.058,747.355,270.037,746.94,269.986C746.525,269.936,746.115,269.857,745.711,269.75C745.307,269.643,744.912,269.507,744.527,269.345C744.142,269.183,743.769,268.994,743.41,268.78ZM770.58,246.43C770.239,246.436,769.899,246.462,769.561,246.507C769.222,246.552,768.887,246.617,768.557,246.701C768.226,246.785,767.901,246.889,767.582,247.01C767.264,247.132,766.952,247.272,766.65,247.43C763.58,249.2,762,253.59,762,260.36C762,269.41,764.92,274.1,770.58,274.1C771.284,274.119,771.987,274.037,772.668,273.855C773.349,273.674,774,273.395,774.601,273.028C775.202,272.661,775.747,272.209,776.219,271.686C776.691,271.163,777.086,270.575,777.39,269.94C778.62,267.52,779.16,264.59,779.16,260.28C779.16,255.97,778.62,253.05,777.39,250.58C777.077,249.946,776.676,249.36,776.198,248.84C775.72,248.319,775.171,247.869,774.566,247.503C773.961,247.138,773.308,246.86,772.625,246.678C771.942,246.497,771.236,246.413,770.53,246.43ZM770.58,250.08C773,250.08,774.08,253.16,774.08,260.25C774.08,267.34,773.08,270.44,770.54,270.44C768,270.44,767,267.44,767,260.59C767,253.16,768,250.08,770.57,250.08ZM790.58,246.43C790.239,246.436,789.899,246.462,789.561,246.507C789.222,246.552,788.887,246.617,788.557,246.701C788.226,246.785,787.901,246.889,787.582,247.01C787.264,247.132,786.952,247.272,786.65,247.43C783.57,249.2,781.99,253.59,781.99,260.36C781.99,269.41,784.92,274.1,790.58,274.1C791.284,274.119,791.987,274.037,792.668,273.855C793.349,273.674,794,273.395,794.601,273.028C795.202,272.661,795.747,272.209,796.219,271.686C796.691,271.163,797.086,270.575,797.39,269.94C798.62,267.52,799.16,264.59,799.16,260.28C799.16,255.97,798.62,253.05,797.39,250.58C797.077,249.946,796.676,249.36,796.198,248.84C795.72,248.319,795.171,247.869,794.566,247.503C793.961,247.138,793.308,246.86,792.625,246.678C791.942,246.497,791.236,246.413,790.53,246.43ZM790.58,250.08C793.01,250.08,794.09,253.16,794.09,260.25C794.09,267.34,793.09,270.44,790.55,270.44C788.01,270.44,787.01,267.44,787.01,260.59C787,253.16,788,250.08,790.56,250.08ZM825.33,265L826.33,261.34L819.52,261.34C819.506,261.231,819.493,261.123,819.483,261.014C819.472,260.905,819.464,260.796,819.457,260.686C819.45,260.577,819.446,260.468,819.443,260.358C819.44,260.249,819.439,260.139,819.44,260.03C819.44,259.924,819.441,259.818,819.444,259.712C819.447,259.606,819.452,259.5,819.459,259.394C819.466,259.288,819.474,259.182,819.484,259.076C819.494,258.971,819.506,258.865,819.52,258.76L827,258.76L828,255.11L820.3,255.11C820.542,254.424,820.892,253.781,821.337,253.206C821.782,252.63,822.316,252.13,822.919,251.723C823.522,251.316,824.186,251.008,824.886,250.81C825.586,250.613,826.313,250.528,827.04,250.56C827.218,250.561,827.397,250.568,827.574,250.581C827.752,250.595,827.93,250.614,828.106,250.64C828.282,250.666,828.458,250.698,828.632,250.737C828.806,250.775,828.979,250.819,829.15,250.87L830.15,246.95C829.858,246.858,829.562,246.777,829.264,246.708C828.965,246.639,828.664,246.582,828.361,246.537C828.058,246.492,827.754,246.459,827.448,246.437C827.143,246.416,826.836,246.407,826.53,246.41C820.53,246.41,816.34,249.49,814.76,255.11L812.26,255.11L811.26,258.76L814.11,258.76C814.11,259.46,814.11,259.88,814.11,260.34C814.105,260.423,814.102,260.507,814.1,260.59C814.097,260.673,814.096,260.757,814.096,260.84C814.096,260.923,814.097,261.007,814.1,261.09C814.102,261.173,814.105,261.257,814.11,261.34L812.23,261.34L811.23,265L814.58,265C814.709,265.58,814.882,266.149,815.097,266.703C815.312,267.256,815.569,267.793,815.865,268.308C816.162,268.822,816.497,269.314,816.867,269.778C817.238,270.242,817.643,270.677,818.08,271.08C820.39,273.16,823.24,274.08,827.08,274.08C827.241,274.073,827.401,274.065,827.562,274.053C827.722,274.042,827.883,274.029,828.043,274.013C828.203,273.997,828.363,273.979,828.522,273.958C828.682,273.938,828.841,273.915,829,273.89L829,269.46C828.835,269.49,828.669,269.518,828.503,269.542C828.337,269.567,828.171,269.589,828.004,269.608C827.837,269.627,827.67,269.644,827.503,269.657C827.335,269.671,827.168,269.682,827,269.69C826.256,269.714,825.513,269.619,824.799,269.409C824.084,269.199,823.408,268.877,822.796,268.454C822.183,268.031,821.642,267.513,821.192,266.919C820.743,266.326,820.391,265.664,820.15,264.96ZM845.71,258.3L842.4,254.3L847.29,253.03L846.37,249.68L841.94,251.83L842.4,246.68L838.59,246.68L839.09,251.83L834.67,249.68L833.67,253.03L838.59,254.3L835.21,258.3L838.05,260.57L840.48,256.18L842.83,260.57ZM740.91,290.19C740.693,290.102,740.472,290.026,740.248,289.96C740.023,289.894,739.796,289.84,739.566,289.797C739.336,289.754,739.104,289.723,738.871,289.704C738.638,289.684,738.404,289.676,738.17,289.68C735.55,289.68,733.93,291.19,733.93,293.59C733.93,295.52,734.54,296.34,737.28,298.06C739.17,299.24,739.63,299.81,739.63,301.06C739.637,301.402,739.572,301.742,739.439,302.057C739.306,302.373,739.108,302.657,738.858,302.891C738.608,303.125,738.311,303.303,737.988,303.415C737.664,303.527,737.321,303.57,736.98,303.54C736.719,303.523,736.459,303.488,736.202,303.437C735.945,303.386,735.692,303.318,735.444,303.234C735.196,303.149,734.954,303.049,734.719,302.933C734.485,302.817,734.258,302.686,734.04,302.54L734.04,304.54C734.287,304.649,734.54,304.745,734.797,304.827C735.055,304.91,735.316,304.979,735.58,305.035C735.845,305.09,736.112,305.132,736.381,305.159C736.65,305.187,736.92,305.2,737.19,305.2C737.776,305.254,738.367,305.181,738.922,304.986C739.477,304.791,739.983,304.478,740.406,304.068C740.829,303.659,741.158,303.163,741.371,302.614C741.584,302.066,741.676,301.477,741.64,300.89C741.64,298.97,740.82,297.81,738.51,296.44C736.41,295.18,735.93,294.66,735.93,293.61C735.919,293.297,735.974,292.986,736.093,292.696C736.211,292.406,736.39,292.145,736.616,291.929C736.843,291.714,737.113,291.549,737.409,291.446C737.704,291.342,738.018,291.303,738.33,291.33C738.555,291.327,738.78,291.34,739.004,291.367C739.227,291.395,739.448,291.437,739.666,291.495C739.884,291.552,740.098,291.624,740.306,291.71C740.514,291.796,740.715,291.897,740.91,292.01ZM750.44,294.19C750.258,294.111,750.073,294.042,749.884,293.982C749.695,293.922,749.503,293.872,749.31,293.832C749.116,293.792,748.92,293.761,748.723,293.741C748.526,293.721,748.328,293.71,748.13,293.71C745.28,293.71,743.43,295.97,743.43,299.48C743.43,302.99,745.26,305.28,747.97,305.28C748.182,305.28,748.394,305.269,748.605,305.247C748.816,305.224,749.026,305.191,749.233,305.146C749.441,305.102,749.646,305.046,749.847,304.98C750.049,304.914,750.247,304.837,750.44,304.75L750.37,303.09C750.213,303.192,750.049,303.282,749.879,303.36C749.71,303.438,749.534,303.504,749.355,303.557C749.176,303.61,748.993,303.651,748.808,303.678C748.624,303.705,748.437,303.719,748.25,303.72C746.49,303.72,745.35,302.04,745.35,299.44C745.344,299.158,745.359,298.875,745.394,298.595C745.43,298.315,745.485,298.037,745.56,297.765C745.636,297.493,745.73,297.226,745.844,296.968C745.958,296.709,746.09,296.459,746.24,296.22C746.364,296.062,746.506,295.918,746.663,295.793C746.82,295.667,746.991,295.56,747.172,295.473C747.354,295.387,747.545,295.321,747.742,295.279C747.938,295.236,748.139,295.216,748.34,295.22C748.466,295.221,748.592,295.229,748.717,295.243C748.842,295.258,748.966,295.28,749.089,295.309C749.212,295.337,749.333,295.372,749.451,295.414C749.57,295.456,749.687,295.505,749.8,295.56L750.23,295.75L750.37,295.75ZM760.29,305.05L760.29,299.46C760.29,296.59,760.22,296.02,759.68,295.08C759.553,294.856,759.395,294.651,759.21,294.472C759.026,294.292,758.817,294.14,758.59,294.019C758.362,293.899,758.119,293.811,757.867,293.758C757.615,293.706,757.357,293.69,757.1,293.71C756.807,293.695,756.514,293.724,756.23,293.794C755.945,293.865,755.673,293.976,755.421,294.126C755.168,294.275,754.94,294.461,754.741,294.677C754.543,294.893,754.378,295.136,754.25,295.4L754.25,288.6L752.4,288.6L752.4,305.05L754.25,305.05L754.25,300.05C754.22,299.742,754.209,299.432,754.218,299.123C754.227,298.813,754.255,298.504,754.303,298.199C754.351,297.893,754.419,297.59,754.505,297.293C754.591,296.996,754.697,296.704,754.82,296.42C754.906,296.253,755.014,296.099,755.142,295.962C755.269,295.825,755.415,295.705,755.574,295.607C755.734,295.509,755.906,295.433,756.086,295.381C756.266,295.329,756.453,295.302,756.64,295.3C756.78,295.292,756.92,295.305,757.057,295.338C757.193,295.371,757.324,295.424,757.445,295.494C757.566,295.565,757.676,295.653,757.772,295.756C757.868,295.858,757.948,295.974,758.01,296.1C758.38,296.74,758.44,297.38,758.44,299.77L758.44,305.02ZM763.51,296.33C763.715,296.158,763.934,296.003,764.164,295.866C764.395,295.73,764.636,295.613,764.885,295.516C765.135,295.419,765.392,295.343,765.654,295.289C765.916,295.234,766.182,295.201,766.45,295.19C767.75,295.19,768.45,296.13,768.45,297.82L768.45,298.34C768.367,298.335,768.283,298.331,768.2,298.328C768.117,298.326,768.033,298.324,767.95,298.324C767.867,298.324,767.783,298.326,767.7,298.328C767.617,298.331,767.533,298.335,767.45,298.34C767.084,298.311,766.717,298.316,766.352,298.357C765.988,298.397,765.628,298.472,765.278,298.58C764.927,298.689,764.588,298.83,764.265,299.003C763.941,299.176,763.635,299.379,763.35,299.61C763.195,299.771,763.057,299.948,762.938,300.137C762.819,300.326,762.719,300.527,762.64,300.736C762.562,300.945,762.504,301.162,762.469,301.382C762.433,301.603,762.42,301.827,762.43,302.05C762.39,302.483,762.444,302.92,762.59,303.331C762.735,303.741,762.969,304.115,763.273,304.426C763.577,304.737,763.946,304.978,764.353,305.132C764.76,305.287,765.196,305.351,765.63,305.32C765.927,305.334,766.225,305.305,766.513,305.232C766.801,305.159,767.077,305.043,767.331,304.889C767.585,304.735,767.815,304.544,768.013,304.322C768.211,304.1,768.375,303.85,768.5,303.58C768.499,303.706,768.5,303.832,768.504,303.958C768.507,304.085,768.512,304.211,768.52,304.336C768.527,304.462,768.537,304.588,768.549,304.714C768.56,304.839,768.574,304.965,768.59,305.09L770.39,305.09C770.28,303.67,770.23,302.53,770.23,300.96L770.23,298.96C770.23,296.96,770.1,296.06,769.69,295.31C769.524,295.052,769.323,294.817,769.093,294.613C768.863,294.409,768.606,294.238,768.329,294.104C768.053,293.969,767.759,293.874,767.457,293.819C767.154,293.764,766.846,293.751,766.54,293.78C766.252,293.774,765.965,293.791,765.68,293.831C765.395,293.871,765.114,293.933,764.839,294.018C764.564,294.103,764.297,294.21,764.039,294.337C763.781,294.465,763.534,294.613,763.3,294.78ZM768.51,299.55L768.51,300.26C768.51,302.47,767.51,303.88,766.07,303.88C765.814,303.887,765.56,303.838,765.325,303.737C765.091,303.635,764.88,303.485,764.709,303.295C764.538,303.105,764.41,302.88,764.335,302.635C764.259,302.391,764.237,302.134,764.27,301.88C764.266,301.749,764.275,301.617,764.295,301.487C764.314,301.357,764.346,301.229,764.388,301.105C764.431,300.981,764.485,300.86,764.549,300.745C764.613,300.631,764.687,300.522,764.77,300.42C764.969,300.249,765.184,300.098,765.414,299.971C765.643,299.843,765.885,299.74,766.135,299.662C766.386,299.584,766.644,299.531,766.905,299.506C767.166,299.481,767.429,299.482,767.69,299.51ZM780.95,288.6L779.1,288.6L779.1,295.49C778.981,295.222,778.823,294.973,778.631,294.75C778.439,294.528,778.216,294.335,777.968,294.178C777.721,294.02,777.451,293.9,777.169,293.821C776.886,293.742,776.593,293.704,776.3,293.71C773.9,293.71,772.42,295.95,772.42,299.51C772.42,303.07,773.9,305.28,776.42,305.28C777.72,305.28,778.35,304.87,779.27,303.41L779.38,305.05L781.11,305.05C781.02,303.61,781,302.72,781,301.17ZM776.64,295.19C778.08,295.19,779.13,297.04,779.13,299.55C779.13,302.06,778.13,303.79,776.66,303.79C775.19,303.79,774.34,302.08,774.34,299.46C774.34,296.84,775.24,295.22,776.63,295.22ZM791,300C791,299.82,791,299.57,791,299.25C791,295.85,789.5,293.75,787.06,293.75C784.44,293.75,782.84,295.94,782.84,299.48C782.84,303.26,784.5,305.32,787.56,305.32C787.804,305.321,788.047,305.306,788.289,305.278C788.531,305.249,788.771,305.205,789.007,305.147C789.244,305.089,789.477,305.016,789.704,304.93C789.932,304.844,790.154,304.743,790.37,304.63L790.27,302.88C790.08,303.038,789.876,303.179,789.662,303.302C789.448,303.426,789.223,303.53,788.991,303.615C788.759,303.7,788.52,303.765,788.277,303.81C788.034,303.854,787.787,303.878,787.54,303.88C787.297,303.875,787.057,303.836,786.825,303.764C786.593,303.692,786.372,303.588,786.169,303.455C785.966,303.322,785.782,303.162,785.623,302.978C785.465,302.795,785.332,302.59,785.23,302.37C785.14,302.188,785.061,302.001,784.993,301.81C784.926,301.619,784.869,301.424,784.823,301.226C784.778,301.029,784.744,300.829,784.722,300.627C784.699,300.425,784.689,300.223,784.69,300.02ZM784.71,298.63C784.98,296.19,785.71,295.14,787.08,295.14C788.45,295.14,789.08,296.14,789.2,298.63ZM800.92,305.09L800.92,299.29C800.92,297.1,800.83,296.37,800.49,295.58C800.388,295.302,800.242,295.043,800.059,294.81C799.875,294.578,799.656,294.377,799.41,294.213C799.163,294.05,798.892,293.926,798.607,293.848C798.321,293.769,798.026,293.736,797.73,293.75C797.418,293.737,797.106,293.771,796.804,293.85C796.502,293.929,796.213,294.052,795.947,294.216C795.681,294.38,795.441,294.583,795.235,294.817C795.029,295.052,794.859,295.315,794.73,295.6L794.73,294L793,294C793.09,295,793.11,296.14,793.11,298.13L793.11,305.13L794.98,305.13L794.98,299.68C794.954,299.411,794.947,299.141,794.959,298.871C794.97,298.601,795,298.332,795.048,298.066C795.096,297.8,795.162,297.538,795.246,297.281C795.33,297.024,795.432,296.773,795.55,296.53C795.631,296.364,795.735,296.21,795.859,296.073C795.982,295.935,796.124,295.816,796.281,295.717C796.437,295.619,796.607,295.542,796.784,295.491C796.961,295.439,797.145,295.411,797.33,295.41C797.467,295.4,797.606,295.41,797.74,295.439C797.875,295.468,798.005,295.517,798.126,295.583C798.246,295.649,798.357,295.732,798.454,295.83C798.552,295.928,798.634,296.039,798.7,296.16C799.04,296.78,799.13,297.58,799.13,299.56L799.13,305.13ZM810.83,289.33L809,289.33L809,291.43L810.87,291.43ZM810.83,293.98L809,293.98L809,305.09L810.87,305.09ZM815.43,293.98L813.63,293.98C813.72,295.74,813.75,296.83,813.75,298.63L813.75,305.09L815.62,305.09L815.62,299.6C815.596,299.325,815.589,299.049,815.598,298.773C815.607,298.498,815.632,298.223,815.674,297.95C815.717,297.677,815.775,297.407,815.849,297.142C815.924,296.876,816.014,296.615,816.12,296.36C816.194,296.215,816.287,296.08,816.396,295.959C816.506,295.839,816.631,295.733,816.768,295.645C816.906,295.558,817.054,295.489,817.21,295.441C817.366,295.393,817.527,295.365,817.69,295.36C817.805,295.356,817.92,295.367,818.031,295.394C818.143,295.421,818.25,295.463,818.35,295.519C818.45,295.575,818.542,295.645,818.623,295.726C818.705,295.808,818.774,295.9,818.83,296C819.22,296.71,819.29,297.32,819.29,299.65L819.29,305.08L821.14,305.08L821.14,299.85C821.14,297.85,821.25,297.12,821.66,296.34C821.735,296.193,821.83,296.057,821.942,295.935C822.054,295.813,822.182,295.707,822.322,295.619C822.462,295.532,822.614,295.463,822.772,295.416C822.931,295.369,823.095,295.343,823.26,295.34C823.378,295.332,823.496,295.341,823.612,295.367C823.727,295.392,823.838,295.433,823.942,295.49C824.046,295.546,824.142,295.617,824.226,295.7C824.31,295.783,824.382,295.877,824.44,295.98C824.76,296.57,824.83,297.21,824.83,299.38L824.83,305.06L826.68,305.06L826.68,299C826.68,296.63,826.56,295.88,826.06,295C825.941,294.798,825.795,294.613,825.626,294.45C825.457,294.287,825.267,294.148,825.062,294.036C824.856,293.924,824.635,293.84,824.407,293.786C824.179,293.733,823.944,293.711,823.71,293.72C823.395,293.714,823.081,293.757,822.779,293.848C822.477,293.938,822.19,294.075,821.93,294.253C821.67,294.431,821.439,294.649,821.246,294.898C821.052,295.147,820.898,295.424,820.79,295.72C820.726,295.432,820.612,295.158,820.454,294.909C820.296,294.66,820.097,294.44,819.864,294.259C819.631,294.078,819.369,293.938,819.089,293.846C818.809,293.754,818.515,293.712,818.22,293.72C817.1,293.72,816.3,294.25,815.43,295.52ZM730.21,315.53L730.21,330.75L733,330.75C733.443,330.788,733.888,330.784,734.33,330.74C734.773,330.696,735.21,330.611,735.636,330.487C736.063,330.362,736.477,330.198,736.873,329.998C737.27,329.797,737.647,329.56,738,329.29C739.51,328.01,740.33,325.82,740.33,323.13C740.35,322.64,740.329,322.15,740.267,321.664C740.205,321.178,740.102,320.698,739.961,320.229C739.819,319.76,739.638,319.304,739.42,318.865C739.202,318.426,738.948,318.006,738.66,317.61C737.43,316.08,735.88,315.53,732.78,315.53ZM732.15,317.08L733,317.08C733.298,317.053,733.598,317.055,733.896,317.085C734.194,317.115,734.489,317.173,734.776,317.258C735.063,317.343,735.341,317.456,735.607,317.594C735.873,317.732,736.125,317.894,736.36,318.08C736.671,318.44,736.948,318.827,737.188,319.238C737.428,319.649,737.628,320.081,737.788,320.529C737.948,320.977,738.065,321.439,738.139,321.909C738.214,322.379,738.244,322.855,738.23,323.33C738.241,323.734,738.215,324.138,738.155,324.537C738.094,324.937,737.998,325.33,737.867,325.712C737.737,326.094,737.573,326.465,737.377,326.818C737.182,327.171,736.955,327.507,736.7,327.82C736.466,328.069,736.204,328.291,735.92,328.482C735.636,328.672,735.332,328.83,735.012,328.953C734.693,329.076,734.361,329.162,734.022,329.21C733.684,329.258,733.341,329.268,733,329.24L732.16,329.24ZM750.23,319.64L748.39,319.64L748.39,325C748.39,328.19,747.77,329.36,746.13,329.36C745.988,329.372,745.846,329.363,745.706,329.335C745.567,329.306,745.433,329.257,745.308,329.19C745.182,329.123,745.067,329.038,744.966,328.938C744.865,328.838,744.779,328.724,744.71,328.6C744.37,328.01,744.3,327.35,744.3,325.04L744.3,319.64L742.46,319.64L742.46,325.36C742.46,328.12,742.55,328.69,743.07,329.63C743.193,329.852,743.347,330.054,743.528,330.233C743.708,330.411,743.913,330.563,744.136,330.683C744.358,330.804,744.597,330.892,744.845,330.946C745.093,331,745.347,331.018,745.6,331C745.911,331.018,746.223,330.988,746.525,330.913C746.827,330.837,747.116,330.717,747.382,330.555C747.649,330.394,747.889,330.193,748.095,329.96C748.302,329.727,748.472,329.464,748.6,329.18L748.69,330.78L750.4,330.78C750.371,330.435,750.346,330.09,750.326,329.744C750.306,329.399,750.29,329.053,750.278,328.707C750.266,328.361,750.259,328.015,750.256,327.668C750.253,327.322,750.254,326.976,750.26,326.63ZM757.85,319.53C757.81,319.526,757.77,319.524,757.73,319.522C757.69,319.52,757.65,319.519,757.61,319.519C757.57,319.519,757.53,319.52,757.49,319.522C757.45,319.524,757.41,319.526,757.37,319.53C755.98,319.53,755.37,320.01,754.61,321.63L754.61,319.63L752.86,319.63C752.95,321.2,752.97,322.46,752.97,323.69L752.97,330.74L754.84,330.74L754.84,325.88C754.84,323.94,754.98,323.16,755.43,322.39C755.502,322.231,755.596,322.083,755.709,321.951C755.822,321.818,755.953,321.701,756.098,321.605C756.243,321.508,756.401,321.432,756.567,321.379C756.733,321.326,756.906,321.296,757.08,321.29C757.139,321.29,757.198,321.292,757.257,321.296C757.316,321.3,757.375,321.306,757.434,321.314C757.492,321.323,757.55,321.333,757.608,321.346C757.666,321.358,757.723,321.373,757.78,321.39L757.85,321.39ZM765.93,319.89C765.749,319.811,765.564,319.742,765.376,319.682C765.189,319.622,764.998,319.572,764.805,319.532C764.612,319.492,764.417,319.461,764.22,319.441C764.024,319.421,763.827,319.41,763.63,319.41C760.78,319.41,758.93,321.67,758.93,325.18C758.93,328.69,760.75,330.97,763.47,330.97C763.681,330.971,763.892,330.962,764.102,330.94C764.313,330.919,764.521,330.886,764.728,330.843C764.935,330.799,765.139,330.744,765.34,330.679C765.54,330.613,765.737,330.537,765.93,330.45L765.86,328.79C765.703,328.891,765.538,328.98,765.368,329.058C765.199,329.136,765.023,329.201,764.844,329.254C764.665,329.308,764.483,329.348,764.298,329.376C764.113,329.404,763.927,329.418,763.74,329.42C761.98,329.42,760.84,327.74,760.84,325.14C760.834,324.858,760.848,324.575,760.883,324.295C760.918,324.014,760.973,323.737,761.048,323.465C761.123,323.192,761.218,322.926,761.333,322.667C761.447,322.409,761.579,322.159,761.73,321.92C761.855,321.763,761.997,321.62,762.154,321.495C762.312,321.369,762.483,321.263,762.664,321.176C762.845,321.09,763.036,321.024,763.232,320.981C763.429,320.938,763.629,320.918,763.83,320.92C763.956,320.92,764.082,320.928,764.207,320.943C764.332,320.957,764.456,320.979,764.579,321.008C764.702,321.036,764.823,321.072,764.942,321.114C765.06,321.156,765.177,321.205,765.29,321.26C765.328,321.274,765.365,321.288,765.402,321.303C765.439,321.318,765.476,321.333,765.513,321.349C765.549,321.365,765.586,321.381,765.622,321.398C765.658,321.415,765.694,321.432,765.73,321.45L765.86,321.45ZM775.79,330.75L775.79,325.16C775.79,322.28,775.72,321.71,775.17,320.78C775.044,320.556,774.886,320.351,774.701,320.171C774.517,319.991,774.308,319.838,774.08,319.718C773.853,319.597,773.609,319.509,773.357,319.457C773.105,319.405,772.847,319.389,772.59,319.41C772.297,319.395,772.004,319.424,771.72,319.494C771.435,319.565,771.163,319.676,770.911,319.826C770.658,319.975,770.43,320.161,770.231,320.377C770.033,320.593,769.868,320.836,769.74,321.1L769.74,314.3L767.89,314.3L767.89,330.75L769.74,330.75L769.74,325.75C769.71,325.443,769.699,325.134,769.708,324.825C769.717,324.516,769.746,324.209,769.794,323.904C769.842,323.599,769.909,323.297,769.996,323C770.082,322.704,770.187,322.413,770.31,322.13C770.397,321.963,770.506,321.809,770.634,321.671C770.763,321.534,770.909,321.414,771.069,321.316C771.23,321.218,771.403,321.142,771.584,321.09C771.765,321.038,771.952,321.011,772.14,321.01C772.279,321.003,772.419,321.017,772.554,321.05C772.689,321.084,772.819,321.136,772.939,321.207C773.059,321.278,773.169,321.366,773.264,321.468C773.359,321.57,773.438,321.685,773.5,321.81C773.87,322.45,773.94,323.09,773.94,325.48L773.94,330.73ZM783.79,319.89C783.59,319.813,783.387,319.746,783.181,319.687C782.975,319.628,782.767,319.579,782.556,319.539C782.346,319.498,782.134,319.468,781.921,319.446C781.708,319.425,781.494,319.413,781.28,319.41C780.858,319.37,780.432,319.42,780.031,319.557C779.63,319.694,779.263,319.914,778.953,320.203C778.643,320.492,778.398,320.844,778.233,321.235C778.069,321.625,777.99,322.046,778,322.47C778,323.84,778.59,324.61,780.39,325.57C781.99,326.41,782.39,326.89,782.39,327.78C782.39,328.83,781.64,329.47,780.39,329.47C780.173,329.468,779.956,329.449,779.741,329.412C779.527,329.375,779.316,329.32,779.111,329.249C778.906,329.178,778.706,329.09,778.515,328.986C778.324,328.882,778.142,328.763,777.97,328.63L777.81,330.27C778.021,330.384,778.239,330.485,778.462,330.572C778.685,330.66,778.914,330.733,779.146,330.792C779.379,330.851,779.615,330.895,779.853,330.925C780.091,330.955,780.33,330.97,780.57,330.97C782.83,330.97,784.24,329.72,784.24,327.74C784.24,326.25,783.51,325.3,781.69,324.38C780.21,323.65,779.75,323.2,779.75,322.38C779.75,321.56,780.34,320.92,781.44,320.92C781.625,320.919,781.81,320.929,781.993,320.95C782.177,320.97,782.359,321.002,782.54,321.044C782.72,321.086,782.897,321.138,783.071,321.201C783.245,321.264,783.415,321.337,783.58,321.42ZM792.95,319.89C792.768,319.811,792.583,319.742,792.394,319.682C792.205,319.622,792.013,319.572,791.82,319.532C791.626,319.492,791.43,319.461,791.233,319.441C791.036,319.421,790.838,319.41,790.64,319.41C787.79,319.41,785.95,321.67,785.95,325.18C785.95,328.69,787.77,330.97,790.48,330.97C790.692,330.971,790.904,330.962,791.115,330.94C791.326,330.919,791.536,330.887,791.743,330.843C791.95,330.799,792.155,330.744,792.357,330.679C792.559,330.613,792.757,330.537,792.95,330.45L792.88,328.79C792.723,328.891,792.558,328.98,792.388,329.058C792.219,329.136,792.043,329.201,791.864,329.254C791.685,329.308,791.503,329.348,791.318,329.376C791.133,329.404,790.947,329.418,790.76,329.42C789,329.42,787.86,327.74,787.86,325.14C787.854,324.858,787.868,324.575,787.903,324.295C787.938,324.014,787.993,323.737,788.068,323.465C788.143,323.192,788.238,322.926,788.353,322.667C788.467,322.409,788.599,322.159,788.75,321.92C788.874,321.762,789.016,321.618,789.173,321.493C789.33,321.367,789.501,321.26,789.682,321.173C789.864,321.087,790.055,321.021,790.252,320.979C790.448,320.936,790.649,320.916,790.85,320.92C790.976,320.921,791.102,320.929,791.227,320.943C791.352,320.958,791.476,320.98,791.599,321.009C791.722,321.037,791.843,321.072,791.961,321.114C792.08,321.156,792.197,321.205,792.31,321.26C792.347,321.273,792.384,321.287,792.42,321.302C792.456,321.316,792.493,321.331,792.528,321.347C792.564,321.363,792.6,321.38,792.635,321.397C792.67,321.414,792.705,321.432,792.74,321.45L792.88,321.45ZM802.8,330.75L802.8,325.16C802.8,322.28,802.73,321.71,802.19,320.78C802.064,320.556,801.906,320.351,801.721,320.171C801.537,319.991,801.328,319.838,801.1,319.718C800.873,319.597,800.629,319.509,800.377,319.457C800.125,319.405,799.867,319.389,799.61,319.41C799.317,319.395,799.024,319.424,798.74,319.494C798.455,319.565,798.183,319.676,797.931,319.826C797.678,319.975,797.45,320.161,797.251,320.377C797.053,320.593,796.888,320.836,796.76,321.1L796.76,314.3L794.91,314.3L794.91,330.75L796.76,330.75L796.76,325.75C796.73,325.443,796.719,325.134,796.728,324.825C796.737,324.516,796.766,324.209,796.814,323.904C796.862,323.599,796.929,323.297,797.016,323C797.102,322.704,797.207,322.413,797.33,322.13C797.416,321.963,797.524,321.809,797.652,321.672C797.779,321.535,797.925,321.415,798.084,321.317C798.244,321.219,798.416,321.143,798.596,321.091C798.776,321.039,798.963,321.012,799.15,321.01C799.29,321.002,799.43,321.015,799.567,321.048C799.703,321.081,799.834,321.134,799.955,321.204C800.076,321.275,800.186,321.363,800.282,321.466C800.378,321.568,800.458,321.684,800.52,321.81C800.89,322.45,800.96,323.09,800.96,325.48L800.96,330.73ZM813.23,330.75L813.23,324.95C813.23,322.76,813.13,322.03,812.79,321.24C812.688,320.962,812.542,320.703,812.359,320.47C812.175,320.238,811.956,320.037,811.71,319.873C811.463,319.71,811.192,319.586,810.907,319.508C810.621,319.429,810.326,319.396,810.03,319.41C809.718,319.397,809.406,319.431,809.104,319.51C808.802,319.589,808.513,319.712,808.247,319.876C807.981,320.04,807.741,320.243,807.535,320.477C807.329,320.712,807.159,320.975,807.03,321.26L807.03,319.64L805.2,319.64C805.29,320.69,805.32,321.78,805.32,323.77L805.32,330.77L807.19,330.77L807.19,325.32C807.163,325.051,807.155,324.78,807.166,324.51C807.176,324.24,807.206,323.971,807.254,323.705C807.302,323.439,807.369,323.177,807.454,322.92C807.538,322.663,807.641,322.413,807.76,322.17C807.84,321.995,807.945,321.832,808.071,321.687C808.197,321.542,808.344,321.415,808.507,321.312C808.669,321.209,808.845,321.13,809.031,321.077C809.216,321.024,809.407,320.998,809.6,321C809.737,320.99,809.874,321.001,810.008,321.03C810.142,321.06,810.271,321.108,810.391,321.174C810.511,321.24,810.621,321.324,810.717,321.421C810.813,321.518,810.895,321.629,810.96,321.75C811.31,322.37,811.4,323.17,811.4,325.15L811.4,330.72ZM817.94,315L816.07,315L816.07,317.09L817.94,317.09ZM817.94,319.65L816.07,319.65L816.07,330.76L817.94,330.76ZM821.52,321.11L821.52,327.2C821.52,329.27,821.61,329.75,822.18,330.28C822.307,330.387,822.444,330.482,822.589,330.563C822.735,330.643,822.888,330.709,823.046,330.76C823.204,330.81,823.367,330.845,823.533,330.863C823.698,330.882,823.864,330.884,824.03,330.87C824.164,330.875,824.298,330.874,824.431,330.867C824.565,330.859,824.698,330.846,824.83,330.827C824.963,330.808,825.094,330.782,825.224,330.751C825.355,330.72,825.483,330.683,825.61,330.64L825.61,329.09C825.527,329.138,825.441,329.181,825.352,329.218C825.263,329.255,825.172,329.286,825.079,329.311C824.987,329.337,824.893,329.356,824.797,329.369C824.702,329.382,824.606,329.389,824.51,329.39C824.424,329.395,824.337,329.389,824.252,329.374C824.167,329.358,824.084,329.332,824.005,329.296C823.926,329.261,823.852,329.216,823.783,329.163C823.715,329.109,823.654,329.048,823.6,328.98C823.37,328.61,823.37,328.61,823.37,326.22L823.37,321.11L825.51,321.11L825.51,319.65L823.37,319.65L823.37,316.71L821.52,317.3L821.52,319.65L819.7,319.65L819.7,321.11ZM827.98,321.11L827.98,327.2C827.98,329.27,828.07,329.75,828.64,330.28C828.767,330.387,828.904,330.482,829.049,330.563C829.195,330.643,829.348,330.709,829.506,330.76C829.664,330.81,829.827,330.845,829.993,330.863C830.158,330.882,830.324,330.884,830.49,330.87C830.623,330.875,830.756,330.874,830.889,330.867C831.022,330.86,831.154,330.847,831.286,330.828C831.417,330.808,831.548,330.783,831.677,330.752C831.806,330.72,831.934,330.683,832.06,330.64L832.06,329.09C831.978,329.138,831.892,329.181,831.805,329.218C831.717,329.255,831.627,329.286,831.535,329.312C831.443,329.337,831.349,329.356,831.255,329.369C831.16,329.382,831.065,329.389,830.97,329.39C830.884,329.395,830.797,329.389,830.712,329.374C830.627,329.358,830.544,329.332,830.465,329.296C830.386,329.261,830.312,329.216,830.243,329.163C830.175,329.109,830.114,329.048,830.06,328.98C829.83,328.61,829.83,328.61,829.83,326.22L829.83,321.11L832,321.11L832,319.65L829.86,319.65L829.86,316.71L828.01,317.3L828.01,319.65L826.19,319.65L826.19,321.11Z" fill="#fff" transform="translate(0,-10.2012)"/>
    </g>
</svg>
