<svg width="1376" height="2794" viewBox="0 0 1376 2794" fill="none" xmlns="http://www.w3.org/2000/svg">
<path d="M1359.88 25.8002C1359.88 25.8002 1052.48 25.8002 932.581 25.8002C812.681 25.8002 656.581 -2.49977 656.581 193.2C656.581 317.6 656.581 1136.8 656.581 1136.8C656.581 1136.8 636.181 1418.2 802.581 1418.2C802.581 1418.2 1004.08 1418.2 1077.08 1418.2C1150.08 1418.2 1297.98 1465 1297.98 1626.5C1297.98 1815.5 1297.98 1932.4 1297.98 1932.4C1297.98 1932.4 1307.18 2076.3 1114.08 2076.3C970.381 2076.3 313.381 2076.3 242.281 2076.3C171.181 2076.3 24.1806 2068.2 24.1806 2282.9C24.1806 2497.6 24.1806 2591.8 24.1806 2591.8C24.1806 2591.8 9.8806 2768.5 235.781 2768.5C580.481 2768.5 1354.08 2768.5 1354.08 2768.5" stroke="#E6F5EB" stroke-width="47" stroke-miterlimit="10" stroke-linecap="round" stroke-linejoin="round"/>
<path d="M1359.88 25.8002C1359.88 25.8002 1052.48 25.8002 932.581 25.8002C812.681 25.8002 656.581 -2.49977 656.581 193.2C656.581 317.6 656.581 1136.8 656.581 1136.8C656.581 1136.8 636.181 1418.2 802.581 1418.2C802.581 1418.2 1004.08 1418.2 1077.08 1418.2C1150.08 1418.2 1297.98 1465 1297.98 1626.5C1297.98 1815.5 1297.98 1932.4 1297.98 1932.4C1297.98 1932.4 1307.18 2076.3 1114.08 2076.3C970.381 2076.3 313.381 2076.3 242.281 2076.3C171.181 2076.3 24.1806 2068.2 24.1806 2282.9C24.1806 2497.6 24.1806 2591.8 24.1806 2591.8C24.1806 2591.8 9.8806 2768.5 235.781 2768.5C580.481 2768.5 1354.08 2768.5 1354.08 2768.5" stroke="#CCEBD6" stroke-width="7" stroke-miterlimit="10" stroke-dasharray="67 67"/>
<path d="M1383.28 1H1163.28V51H1383.28V1Z" fill="url(#paint0_linear)"/>
<path d="M1379.68 2743.4H1159.68V2793.4H1379.68V2743.4Z" fill="url(#paint1_linear)"/>
<defs>
<linearGradient id="paint0_linear" x1="1383.25" y1="26.0445" x2="1163.25" y2="26.0445" gradientUnits="userSpaceOnUse">
<stop stop-color="white"/>
<stop offset="1" stop-color="white" stop-opacity="0"/>
</linearGradient>
<linearGradient id="paint1_linear" x1="1379.66" y1="2768.45" x2="1159.66" y2="2768.45" gradientUnits="userSpaceOnUse">
<stop stop-color="white"/>
<stop offset="1" stop-color="white" stop-opacity="0"/>
</linearGradient>
</defs>
</svg>
