<svg width="110" height="130" viewBox="0 0 110 130" fill="none" xmlns="http://www.w3.org/2000/svg">
<path d="M83.3853 0H109.668C109.834 0 110 0.165418 110 0.330835V74.438C110 74.438 104.688 93.9572 83.3853 109.892C62.0825 125.828 55 129.412 55 129.412C55 129.412 47.9175 125.883 26.6147 109.892C5.31187 93.9021 0 74.438 0 74.438V0.330835C0 0.165418 0.165996 0 0.331992 0H26.6147H83.3853Z" fill="url(#paint0_linear)"/>
<path d="M78.5365 8.31934C88.0827 8.65211 100.262 8.31934 100.262 8.31934C100.592 8.31934 100.756 8.48572 100.756 8.65211V72.0454C100.756 72.0454 96.038 88.795 78.3719 102.494C60.7058 116.193 54.8354 119.244 54.8354 119.244C54.8354 119.244 49.0198 116.249 31.2988 102.494C13.6327 88.795 9.24365 72.1009 9.24365 72.1009V8.65211C9.24365 8.48572 9.40824 8.31934 9.57283 8.31934H78.5365Z" fill="url(#paint1_linear)"/>
<path d="M54.5378 8.31934H42.8069C42.8069 8.31934 41.5035 8.31934 31.0761 8.31934C20.6486 8.31934 9.56951 8.31934 9.56951 8.31934C9.40658 8.31934 9.24365 8.48572 9.24365 8.65211V72.0454C9.24365 72.0454 13.5884 88.795 31.0761 102.494C48.5637 116.193 54.3748 119.244 54.3748 119.244V8.31934H54.5378Z" fill="#CCEBD6"/>
<circle cx="54.2386" cy="56.0874" r="26.5075" fill="#007D29"/>
<mask id="mask0" mask-type="alpha" maskUnits="userSpaceOnUse" x="27" y="29" width="54" height="54">
<path d="M54.2386 82.5949C68.8783 82.5949 80.7462 70.7271 80.7462 56.0874C80.7462 41.4477 68.8783 29.5798 54.2386 29.5798C39.5989 29.5798 27.7311 41.4477 27.7311 56.0874C27.7311 70.7271 39.5989 82.5949 54.2386 82.5949Z" fill="#007D29"/>
</mask>
<g mask="url(#mask0)">
<path d="M28.7244 58.462C28.7244 58.462 31.6513 57.1918 32.4797 58.462C33.308 59.7322 32.2588 62.9904 34.7991 64.4814C37.3394 65.9725 39.714 63.8187 42.0886 66.0829C44.4633 68.3471 45.7887 76.0785 51.3663 75.2501C56.9439 74.4217 54.017 72.2128 54.1827 70.059C54.3484 67.9053 55.232 65.1993 57.1648 63.7635C59.0977 62.3277 59.7603 57.6336 55.4529 56.75C51.1454 55.8665 43.8006 56.75 42.9722 52.8291C42.1439 48.9082 45.126 49.5709 45.7887 48.3008C46.4513 47.0306 44.9051 45.0426 47.5006 42.5022C50.0961 39.9067 52.2499 38.8575 51.5872 34.55C50.9245 30.2425 49.2126 27.647 49.2126 27.647C49.2126 27.647 26.0184 37.5321 26.0184 38.4157C26.0184 39.2992 19.999 56.3083 19.999 56.3083L28.7244 58.462Z" fill="#33B05C"/>
<path d="M54.2928 27.647C54.9003 27.647 57.9376 30.9052 58.1585 34.7709C58.3794 38.6366 57.4958 41.453 59.4287 42.7231C61.3615 43.9933 63.6257 42.7231 65.6138 40.1276C67.6018 37.5321 71.6884 37.0903 71.6884 37.0903L78.8123 26.5425L54.2928 27.647Z" fill="#33B05C"/>
<path d="M78.8131 71.4949C78.8131 71.4949 71.4683 70.777 70.6399 67.5187C69.7563 64.2605 72.2414 61.2784 70.0324 58.462C67.8235 55.6456 62.8533 53.4918 63.2951 48.7426C63.7369 43.9933 67.7682 45.3187 71.0265 44.2142C74.2847 43.1097 75.7757 38.9127 78.8131 38.747C81.8504 38.5813 85.937 51.9456 85.937 51.9456L78.8131 71.4949Z" fill="#33B05C"/>
</g>
<defs>
<linearGradient id="paint0_linear" x1="110.012" y1="64.6818" x2="0" y2="64.6818" gradientUnits="userSpaceOnUse">
<stop stop-color="#168F3D"/>
<stop offset="1" stop-color="#4BB86F"/>
</linearGradient>
<linearGradient id="paint1_linear" x1="55" y1="8.31934" x2="55" y2="119.244" gradientUnits="userSpaceOnUse">
<stop stop-color="#CCEBD6"/>
<stop offset="1" stop-color="#4DBA71"/>
</linearGradient>
</defs>
</svg>
