<svg width="110" height="130" viewBox="0 0 110 130" fill="none" xmlns="http://www.w3.org/2000/svg">
<path d="M83.3853 0H109.668C109.834 0 110 0.165418 110 0.330835V74.438C110 74.438 104.688 93.9573 83.3853 109.892C62.0825 125.828 55 129.412 55 129.412C55 129.412 47.9175 125.883 26.6147 109.892C5.31187 93.9021 0 74.438 0 74.438V0.330835C0 0.165418 0.165996 0 0.331992 0H26.6147H83.3853Z" fill="url(#paint0_linear)"/>
<path d="M78.5367 8.31934C88.0829 8.65211 100.263 8.31934 100.263 8.31934C100.592 8.31934 100.756 8.48572 100.756 8.65211V72.0454C100.756 72.0454 96.0382 88.795 78.3721 102.494C60.706 116.193 54.8355 119.244 54.8355 119.244C54.8355 119.244 49.02 116.249 31.299 102.494C13.6329 88.795 9.24384 72.1008 9.24384 72.1008V8.65211C9.24384 8.48572 9.40843 8.31934 9.57302 8.31934H78.5367Z" fill="url(#paint1_linear)"/>
<path d="M54.538 8.31934H42.8071C42.8071 8.31934 41.5037 8.31934 31.0763 8.31934C20.6488 8.31934 9.56969 8.31934 9.56969 8.31934C9.40676 8.31934 9.24384 8.48572 9.24384 8.65211V72.0454C9.24384 72.0454 13.5886 88.795 31.0763 102.494C48.5639 116.193 54.375 119.244 54.375 119.244V8.31934H54.538Z" fill="#CCEBD6"/>
<path d="M62.8389 34.6308L54.505 20.1987L46.1711 34.6308H62.8389Z" fill="url(#paint2_linear)"/>
<path d="M83.0216 61.0429L97.0005 51.9662L82.1525 44.4048L83.0216 61.0429Z" fill="#1AA648"/>
<path fill-rule="evenodd" clip-rule="evenodd" d="M58.0051 32.1938V83.7421H51.0051V32.1938H58.0051Z" fill="#17903E"/>
<path fill-rule="evenodd" clip-rule="evenodd" d="M60.7385 88.9951C60.7675 91.1263 60.798 93.368 60.798 95.7529H53.798C53.798 93.5993 53.7695 91.4536 53.7416 89.3522C53.6932 85.7067 53.6466 82.1946 53.7535 79.0064C53.9245 73.9131 54.487 69.0445 56.246 64.7617C58.0565 60.3532 61.0735 56.7105 65.8295 54.0238C70.4793 51.3971 76.6427 49.7659 84.6765 48.9951L85.345 55.9631C77.8178 56.6853 72.7366 58.1617 69.2725 60.1186C65.9147 62.0154 63.9486 64.4324 62.7212 67.421C61.4422 70.5352 60.912 74.4012 60.7496 79.2412C60.6472 82.2916 60.6908 85.4944 60.7385 88.9951Z" fill="#1AA648"/>
<path fill-rule="evenodd" clip-rule="evenodd" d="M55.8258 89.3522C55.7979 91.4536 55.7694 93.5993 55.7694 95.7529H48.7694C48.7694 93.368 48.7999 91.1263 48.8289 88.9951C48.8766 85.4944 48.9201 82.2916 48.8178 79.2412C48.6554 74.4012 48.1252 70.5352 46.8462 67.421C45.6188 64.4324 43.6527 62.0154 40.2949 60.1186C36.8308 58.1617 31.7496 56.6853 24.2224 55.9631L24.8909 48.9951C32.9247 49.7659 39.0881 51.3971 43.7379 54.0238C48.4939 56.7105 51.5108 60.3532 53.3214 64.7617C55.0803 69.0445 55.6429 73.9131 55.8138 79.0064C55.9208 82.1946 55.8742 85.7067 55.8258 89.3522Z" fill="#80CE99"/>
<path d="M27.4159 44.4048L12.5679 51.9662L26.5469 61.0429L27.4159 44.4048Z" fill="#80CE99"/>
<defs>
<linearGradient id="paint0_linear" x1="110.012" y1="64.6818" x2="0" y2="64.6818" gradientUnits="userSpaceOnUse">
<stop stop-color="#168F3D"/>
<stop offset="1" stop-color="#4BB86F"/>
</linearGradient>
<linearGradient id="paint1_linear" x1="55.0001" y1="8.31934" x2="55.0001" y2="119.244" gradientUnits="userSpaceOnUse">
<stop stop-color="#CCEBD6"/>
<stop offset="1" stop-color="#4DBA71"/>
</linearGradient>
<linearGradient id="paint2_linear" x1="1194.41" y1="469.468" x2="1344.42" y2="469.468" gradientUnits="userSpaceOnUse">
<stop stop-color="#168F3D"/>
<stop offset="1" stop-color="#4BB86F"/>
</linearGradient>
</defs>
</svg>
