<svg width="110" height="130" viewBox="0 0 110 130" fill="none" xmlns="http://www.w3.org/2000/svg">
<path d="M83.3853 0H109.668C109.834 0 110 0.165418 110 0.330835V74.438C110 74.438 104.688 93.9573 83.3853 109.892C62.0825 125.828 55 129.412 55 129.412C55 129.412 47.9175 125.883 26.6147 109.892C5.31187 93.9021 0 74.438 0 74.438V0.330835C0 0.165418 0.165996 0 0.331992 0H26.6147H83.3853Z" fill="url(#paint0_linear)"/>
<path d="M78.5365 8.31934C88.0828 8.65211 100.263 8.31934 100.263 8.31934C100.592 8.31934 100.756 8.48572 100.756 8.65211V72.0454C100.756 72.0454 96.038 88.795 78.3719 102.494C60.7058 116.193 54.8354 119.244 54.8354 119.244C54.8354 119.244 49.0199 116.249 31.2989 102.494C13.6328 88.795 9.2437 72.1008 9.2437 72.1008V8.65211C9.2437 8.48572 9.40829 8.31934 9.57288 8.31934H78.5365Z" fill="url(#paint1_linear)"/>
<path d="M54.5378 8.31934H42.807C42.807 8.31934 41.5035 8.31934 31.0761 8.31934C20.6487 8.31934 9.56956 8.31934 9.56956 8.31934C9.40663 8.31934 9.2437 8.48572 9.2437 8.65211V72.0454C9.2437 72.0454 13.5885 88.795 31.0761 102.494C48.5638 116.193 54.3749 119.244 54.3749 119.244V8.31934H54.5378Z" fill="#CCEBD6"/>
<path d="M29.5986 79.125L82.0155 70.3703C82.7671 70.2404 83.3626 69.7948 83.6198 69.1539C84.4404 67.1468 85.9384 62.5988 86.487 56.375C87.2153 47.8868 84.7578 31.2444 62.2115 29.2785C39.6165 27.3972 26.2798 49.1297 24.921 65.9369C24.3331 72.8147 26.3751 76.7001 27.6272 78.4378C27.9881 78.9845 28.7624 79.206 29.5986 79.125Z" fill="url(#paint2_linear)"/>
<path d="M55.6106 48.135L31.405 46.1134C27.5737 52.3589 25.3135 59.3988 24.8007 65.756C24.5425 69.3283 24.9418 72.1525 25.5625 74.2024L54.0494 66.8553L55.6106 48.135Z" fill="#008C2E"/>
<path d="M56.5352 66.2606L64.6242 64.1648C67.5592 63.3784 69.8244 60.6266 70.1183 57.1877C70.4646 52.8769 67.6223 49.2061 63.8808 48.8502L58.093 48.3278L56.5352 66.2606Z" fill="#008C2E"/>
<defs>
<linearGradient id="paint0_linear" x1="110.012" y1="64.6818" x2="0" y2="64.6818" gradientUnits="userSpaceOnUse">
<stop stop-color="#168F3D"/>
<stop offset="1" stop-color="#4BB86F"/>
</linearGradient>
<linearGradient id="paint1_linear" x1="55" y1="8.31934" x2="55" y2="119.244" gradientUnits="userSpaceOnUse">
<stop stop-color="#CCEBD6"/>
<stop offset="1" stop-color="#4DBA71"/>
</linearGradient>
<linearGradient id="paint2_linear" x1="28.4994" y1="55.5" x2="86.0504" y2="57.6093" gradientUnits="userSpaceOnUse">
<stop stop-color="#99D7AD"/>
<stop offset="1" stop-color="#33B05C"/>
</linearGradient>
</defs>
</svg>
