<svg width="110" height="130" viewBox="0 0 110 130" fill="none" xmlns="http://www.w3.org/2000/svg">
<path d="M83.3853 0H109.668C109.834 0 110 0.165418 110 0.330835V74.438C110 74.438 104.688 93.9573 83.3853 109.892C62.0825 125.828 55 129.412 55 129.412C55 129.412 47.9175 125.883 26.6147 109.892C5.31187 93.9021 0 74.438 0 74.438V0.330835C0 0.165418 0.165996 0 0.331992 0H26.6147H83.3853Z" fill="url(#paint0_linear)"/>
<path d="M78.5365 8.31934C88.0828 8.65211 100.263 8.31934 100.263 8.31934C100.592 8.31934 100.756 8.48572 100.756 8.65211V72.0454C100.756 72.0454 96.038 88.795 78.3719 102.494C60.7058 116.193 54.8354 119.244 54.8354 119.244C54.8354 119.244 49.0199 116.249 31.2989 102.494C13.6328 88.795 9.2437 72.1008 9.2437 72.1008V8.65211C9.2437 8.48572 9.40829 8.31934 9.57288 8.31934H78.5365Z" fill="url(#paint1_linear)"/>
<path d="M54.5378 8.31934H42.807C42.807 8.31934 41.5035 8.31934 31.0761 8.31934C20.6487 8.31934 9.56956 8.31934 9.56956 8.31934C9.40663 8.31934 9.2437 8.48572 9.2437 8.65211V72.0454C9.2437 72.0454 13.5885 88.795 31.0761 102.494C48.5638 116.193 54.3749 119.244 54.3749 119.244V8.31934H54.5378Z" fill="#CCEBD6"/>
<path d="M31.4924 38.7752C32.6345 38.9539 33.0463 38.8374 34.4915 40.2748L47.3194 53.1027L50.5128 49.9171L37.6771 37.0892C36.2397 35.6518 36.3563 35.2322 36.1776 34.09C35.9175 33.1679 35.4252 32.3279 34.7479 31.6503L26.0613 25.5977L24.8725 26.7787L24.1888 27.4702L23 28.659L29.0604 37.3378C29.7352 38.0165 30.5724 38.5114 31.4924 38.7752Z" fill="#4DBA71"/>
<path d="M84.9719 74.8889L83.9152 73.8167L72.043 61.9522C70.9785 60.8955 67.8551 61.3928 67.047 60.8334C66.239 60.2739 63.6672 58.5801 64.11 56.7698C64.1833 56.403 64.1833 56.0254 64.11 55.6587L53.2323 66.5364C53.5991 66.6096 53.9767 66.6096 54.3434 66.5364C56.1616 66.1013 57.8476 68.6575 58.407 69.4734C58.9664 70.2892 58.4692 73.4049 59.5336 74.4693L71.4059 86.3416L72.4626 87.406C72.4626 87.406 74.3662 89.3718 75.7103 88.0276L85.6013 78.1444C87.0464 76.6837 84.9719 74.8889 84.9719 74.8889Z" fill="url(#paint2_linear)"/>
<path d="M85.6787 33.7402L78.4761 40.9428C77.564 41.8543 76.3274 42.3663 75.038 42.3663C73.7486 42.3663 72.5119 41.8543 71.5998 40.9428L70.4888 39.8473L36.1463 74.1975C36.9706 75.0218 37.4337 76.1397 37.4337 77.3054C37.4337 78.4711 36.9706 79.5891 36.1463 80.4133C35.322 81.2376 34.2041 81.7007 33.0384 81.7007C31.8727 81.7007 30.7548 81.2376 29.9305 80.4133L26.5351 83.8087C27.9557 85.2068 29.7926 86.1048 31.7685 86.367C33.7443 86.6293 35.7519 86.2416 37.4881 85.2626C39.2242 84.2835 40.5947 82.7662 41.3927 80.9397C42.1907 79.1132 42.3728 77.0767 41.9115 75.1376C41.9115 75.1376 41.9115 75.1376 41.9503 75.1376L67.9325 49.1166C70.1842 50.0709 72.6583 50.3746 75.0739 49.9933C77.4895 49.6119 79.7498 48.5609 81.598 46.9595C83.4463 45.358 84.8084 43.2704 85.5297 40.9337C86.251 38.597 86.3027 36.1048 85.6787 33.7402V33.7402Z" fill="url(#paint3_linear)"/>
<path d="M26.551 83.7934L29.9464 80.3981C29.9143 80.3764 29.8855 80.3502 29.8609 80.3204C29.0367 79.4961 28.5736 78.3781 28.5736 77.2124C28.5736 76.0467 29.0367 74.9288 29.8609 74.1045C30.6852 73.2803 31.8031 72.8172 32.9688 72.8172C34.1345 72.8172 35.2525 73.2803 36.0767 74.1045C36.0984 74.1366 36.1246 74.1654 36.1544 74.19L70.4891 39.8475L69.2226 38.5811C68.3164 37.6647 67.8081 36.4279 67.8081 35.1391C67.8081 33.8502 68.3164 32.6134 69.2226 31.697L76.4641 24.4556C74.0966 23.8137 71.5963 23.8507 69.2488 24.5624C66.9013 25.274 64.8013 26.6316 63.1887 28.48C61.5761 30.3284 60.516 32.5931 60.1293 35.0154C59.7427 37.4377 60.0452 39.9199 61.0022 42.1785L35.0123 68.1684L34.9424 68.2461C33.0006 67.8143 30.9711 68.0246 29.1591 68.8454C27.3471 69.6663 25.8507 71.0532 24.8948 72.7977C23.9388 74.5422 23.5752 76.5499 23.8584 78.5188C24.1417 80.4878 25.0566 82.3115 26.4655 83.7157L26.551 83.7934Z" fill="#009C33"/>
<path d="M31.2473 37.5306C32.3895 37.7093 32.8013 37.5927 34.2464 39.0302L47.0744 51.8581L50.2677 48.6724L37.4321 35.8445C35.9946 34.4071 36.1112 33.9876 35.9325 32.8454C35.6724 31.9233 35.1802 31.0833 34.5028 30.4057L25.8162 24.353L24.6274 25.534L23.9437 26.2255L22.7549 27.4143L28.8154 36.0932C29.4901 36.7719 30.3273 37.2667 31.2473 37.5306Z" fill="#4DBA71"/>
<path d="M84.7268 73.6443L83.6701 72.5721L71.7979 60.7076C70.7335 59.6509 67.61 60.1482 66.8019 59.5887C65.9939 59.0293 63.4221 57.3355 63.865 55.5251C63.9382 55.1584 63.9382 54.7808 63.865 54.4141L52.9873 65.2918C53.354 65.365 53.7316 65.365 54.0984 65.2918C55.9165 64.8567 57.6025 67.4129 58.1619 68.2287C58.7214 69.0446 58.2241 72.1602 59.2886 73.2247L71.1608 85.0969L72.2175 86.1614C72.2175 86.1614 74.1211 88.1272 75.4653 86.783L85.3562 76.8998C86.8014 75.4391 84.7268 73.6443 84.7268 73.6443Z" fill="url(#paint4_linear)"/>
<path d="M85.4336 32.4956L78.231 39.6982C77.319 40.6096 76.0823 41.1216 74.7929 41.1216C73.5035 41.1216 72.2668 40.6096 71.3548 39.6982L70.2437 38.6027L35.9012 72.9529C36.7255 73.7771 37.1886 74.8951 37.1886 76.0608C37.1886 77.2265 36.7255 78.3444 35.9012 79.1687C35.077 79.993 33.959 80.456 32.7933 80.456C31.6276 80.456 30.5097 79.993 29.6854 79.1687L26.29 82.5641C27.7107 83.9622 29.5476 84.8601 31.5234 85.1224C33.4993 85.3847 35.5068 84.997 37.243 84.018C38.9791 83.0389 40.3497 81.5216 41.1476 79.6951C41.9456 77.8686 42.1277 75.8321 41.6664 73.893C41.6664 73.893 41.6664 73.893 41.7053 73.893L67.6874 47.872C69.9391 48.8262 72.4132 49.13 74.8288 48.7486C77.2444 48.3673 79.5047 47.3163 81.353 45.7148C83.2012 44.1134 84.5633 42.0258 85.2846 39.6891C86.006 37.3524 86.0576 34.8602 85.4336 32.4956Z" fill="url(#paint5_linear)"/>
<path d="M26.3059 82.5488L29.7013 79.1534C29.6693 79.1318 29.6405 79.1056 29.6158 79.0757C28.7916 78.2515 28.3285 77.1335 28.3285 75.9678C28.3285 74.8021 28.7916 73.6842 29.6158 72.8599C30.4401 72.0356 31.5581 71.5726 32.7238 71.5726C33.8895 71.5726 35.0074 72.0356 35.8317 72.8599C35.8533 72.892 35.8795 72.9207 35.9094 72.9454L70.244 38.6029L68.9776 37.3364C68.0713 36.4201 67.563 35.1832 67.563 33.8944C67.563 32.6056 68.0713 31.3688 68.9776 30.4524L76.219 23.211C73.8515 22.5691 71.3512 22.6061 69.0037 23.3177C66.6562 24.0294 64.5563 25.3869 62.9437 27.2353C61.3311 29.0837 60.2709 31.3485 59.8843 33.7708C59.4976 36.1931 59.8001 38.6753 60.7571 40.9339L34.7672 66.9238L34.6973 67.0015C32.7555 66.5697 30.726 66.78 28.914 67.6008C27.1021 68.4216 25.6056 69.8086 24.6497 71.5531C23.6938 73.2975 23.3301 75.3052 23.6134 77.2742C23.8966 79.2431 24.8115 81.0669 26.2205 82.4711L26.3059 82.5488Z" fill="#009C33"/>
<defs>
<linearGradient id="paint0_linear" x1="110.012" y1="64.6818" x2="0" y2="64.6818" gradientUnits="userSpaceOnUse">
<stop stop-color="#168F3D"/>
<stop offset="1" stop-color="#4BB86F"/>
</linearGradient>
<linearGradient id="paint1_linear" x1="55" y1="8.31934" x2="55" y2="119.244" gradientUnits="userSpaceOnUse">
<stop stop-color="#CCEBD6"/>
<stop offset="1" stop-color="#4DBA71"/>
</linearGradient>
<linearGradient id="paint2_linear" x1="2413.74" y1="3134.64" x2="3805.25" y2="3134.64" gradientUnits="userSpaceOnUse">
<stop stop-color="#168F3D"/>
<stop offset="1" stop-color="#4BB86F"/>
</linearGradient>
<linearGradient id="paint3_linear" x1="6824.8" y1="4161.2" x2="2257.67" y2="4161.2" gradientUnits="userSpaceOnUse">
<stop stop-color="#168F3D"/>
<stop offset="1" stop-color="#4BB86F"/>
</linearGradient>
<linearGradient id="paint4_linear" x1="2413.49" y1="3133.4" x2="3805" y2="3133.4" gradientUnits="userSpaceOnUse">
<stop stop-color="#168F3D"/>
<stop offset="1" stop-color="#4BB86F"/>
</linearGradient>
<linearGradient id="paint5_linear" x1="6824.55" y1="4159.95" x2="2257.43" y2="4159.95" gradientUnits="userSpaceOnUse">
<stop stop-color="#168F3D"/>
<stop offset="1" stop-color="#4BB86F"/>
</linearGradient>
</defs>
</svg>
