<svg width="110" height="130" viewBox="0 0 110 130" fill="none" xmlns="http://www.w3.org/2000/svg">
<path d="M83.3853 0H109.668C109.834 0 110 0.165418 110 0.330835V74.438C110 74.438 104.688 93.9572 83.3853 109.892C62.0825 125.828 55 129.412 55 129.412C55 129.412 47.9175 125.883 26.6147 109.892C5.31187 93.9021 0 74.438 0 74.438V0.330835C0 0.165418 0.165999 0 0.331995 0H26.6147H83.3853Z" fill="url(#paint0_linear)"/>
<path d="M78.3121 8.31934C87.9548 8.65211 100.258 8.31934 100.258 8.31934C100.59 8.31934 100.756 8.48572 100.756 8.65211V72.0454C100.756 72.0454 95.9904 88.795 78.1458 102.494C60.3013 116.193 54.3716 119.244 54.3716 119.244C54.3716 119.244 48.4973 116.249 30.5973 102.494C12.7528 88.795 8.31934 72.1009 8.31934 72.1009V8.65211C8.31934 8.48572 8.48559 8.31934 8.65185 8.31934H78.3121Z" fill="url(#paint1_linear)"/>
<path d="M54.5378 8.31934H42.5676C42.5676 8.31934 41.2375 8.31934 30.5973 8.31934C19.9571 8.31934 8.65185 8.31934 8.65185 8.31934C8.48559 8.31934 8.31934 8.48572 8.31934 8.65211V72.0454C8.31934 72.0454 12.7528 88.795 30.5973 102.494C48.4419 116.193 54.3716 119.244 54.3716 119.244V8.31934H54.5378Z" fill="#CCEBD6"/>
<path d="M52.3792 75.3801C50.5016 75.3801 49.8389 75.2697 49.8389 75.2697H49.7285H49.5628C49.5628 75.2697 49.1762 75.2697 48.624 75.2697C46.1389 75.2697 44.1508 74.9383 43.212 74.4413C42.8255 74.2204 42.4941 74.1652 41.1687 74.1652C38.2971 74.1652 32.1672 74.4965 31.8911 74.4965H31.7807H31.6702C31.6702 74.4965 31.2836 74.5518 30.7866 74.5518C29.6821 74.5518 29.4612 74.2204 29.406 74.0548C29.7374 72.7294 34.1553 67.8144 38.1866 63.9488L46.415 59.4756L46.5807 59.1995C46.6359 59.1443 50.0046 54.0084 56.2449 52.0204C59.1718 51.0815 61.2703 50.9159 62.5957 50.9159C63.2584 50.9159 63.5897 50.9711 63.6449 50.9711L65.0808 51.192L65.2464 49.7562C65.3016 49.4248 65.7987 46.3323 69.4987 46.3323H72.7569C73.2539 46.3323 73.2539 46.6636 73.2539 46.9397V52.2412V52.3517C73.2539 52.3517 73.2539 52.4069 73.2539 52.4621C73.2539 52.4621 73.1987 52.4621 73.1435 52.4621H67.842H67.7315C67.3449 52.5174 65.4673 53.0696 65.136 56.6592C64.9151 59.1443 62.7061 70.3547 62.4852 71.5697C62.3195 72.0667 60.939 75.104 56.6315 75.2697C55.03 75.3801 53.5941 75.3801 52.3792 75.3801Z" fill="#007D29"/>
<path d="M71.8736 47.768V51.0815H68.008H67.7318L67.4557 51.1367C67.29 51.1919 66.9035 51.2472 66.4617 51.5233L66.5721 49.977C66.6826 49.1486 67.2348 47.768 69.499 47.768H71.8736ZM62.596 52.3516C63.0378 52.3516 63.3139 52.3516 63.3692 52.4069L65.0259 52.7934C64.4184 53.6218 63.9214 54.7815 63.7557 56.5487C63.59 58.592 61.8781 67.5935 61.1602 71.183C60.8841 71.7905 59.7796 73.7786 56.5766 73.889C54.9751 73.9442 53.5393 73.9995 52.3243 73.9995C50.7781 73.9995 50.1154 73.9442 50.0049 73.9442L49.784 73.889H49.4527C49.4527 73.889 49.1213 73.889 48.5691 73.889C46.084 73.889 44.4273 73.5577 43.8198 73.2263C43.1019 72.8398 42.4945 72.7845 41.1139 72.7845C38.2422 72.7845 32.0571 73.1159 31.781 73.1159H31.6153C33.1064 71.1278 36.1989 67.8144 39.0153 65.1084L46.8019 60.8561L47.4094 60.5248L47.796 59.9726C47.8512 59.9173 50.999 55.1681 56.7423 53.3457C59.5587 52.5173 61.6572 52.3516 62.596 52.3516ZM73.0886 45.0068H72.7572C73.0334 45.0068 73.0886 45.0068 73.0886 45.0068ZM72.7572 45.0068C72.3155 45.0068 71.3766 45.0068 69.499 45.0068C64.3632 45.0068 63.8662 49.6457 63.8662 49.6457C63.8662 49.6457 63.4244 49.5904 62.6512 49.5904C61.3258 49.5904 59.0064 49.7561 55.9139 50.7501C49.0661 52.9039 45.4765 58.4815 45.4765 58.4815L37.3586 62.8994C37.3586 62.8994 27.8048 72.1219 28.0257 74.1651C28.1914 75.7114 29.6825 75.9875 30.7869 75.9875C31.4496 75.9875 31.9467 75.8771 31.9467 75.8771C31.9467 75.8771 38.2974 75.5457 41.1691 75.5457C41.887 75.5457 42.4392 75.5457 42.4945 75.601C44.096 76.4845 47.0228 76.595 48.5691 76.595C49.1766 76.595 49.6184 76.595 49.6184 76.595C49.6184 76.595 50.281 76.7054 52.3796 76.7054C53.4288 76.7054 54.8646 76.7054 56.7423 76.595C62.3751 76.3741 63.8662 71.901 63.8662 71.901C63.8662 71.901 66.296 59.4203 66.5721 56.7143C66.793 54.0084 68.0632 53.7875 68.0632 53.7875C68.0632 53.7875 71.4871 53.7875 73.199 53.7875C74.911 53.7875 74.6901 52.1307 74.6901 52.1307C74.6901 52.1307 74.6901 48.8725 74.6901 46.9397C74.6349 45.0068 72.7572 45.0068 72.7572 45.0068Z" fill="#007D29"/>
<path d="M29.3521 64.7769L21.5656 64.1695C21.6208 63.8933 21.7312 63.3963 22.173 62.568C23.0014 60.9665 26.0387 60.359 28.6342 60.359C29.076 60.359 29.4074 60.359 29.4074 60.359L31.2298 60.4694L30.8432 58.7023C30.788 58.4814 30.7327 57.5978 31.5059 57.3217C31.6716 57.2665 32.0029 57.156 32.6104 57.156C33.991 57.156 35.7581 57.5978 36.9178 57.8739C37.3044 57.9844 37.6358 58.0396 37.8566 58.0948C38.6298 58.2605 39.7343 58.2605 41.0044 58.2605C42.0537 58.2605 43.2134 58.2605 43.8208 58.3709C43.9313 58.3709 43.9865 58.4262 44.097 58.4814L33.3283 66.4336L29.3521 64.7769Z" fill="#007D29"/>
<path d="M32.5546 58.5919C33.7696 58.5919 35.5367 59.0337 36.586 59.2546C36.9725 59.365 37.3039 59.4203 37.58 59.4755C38.2979 59.6411 39.1815 59.6411 40.1755 59.6411L33.1069 64.8874L30.18 63.5621L29.7382 63.3964L29.2412 63.3412L23.6083 62.8994C24.2158 62.2919 26.0382 61.7397 28.6337 61.7397C29.0755 61.7397 29.2964 61.7397 29.2964 61.7397L33.2725 62.1815L32.2785 58.5367C32.2785 58.5919 32.389 58.5919 32.5546 58.5919ZM32.5546 55.8307C31.9472 55.8307 31.3949 55.8859 30.9531 56.0516C28.9651 56.7695 29.4621 58.9785 29.4621 58.9785C29.4621 58.9785 29.1307 58.9785 28.5785 58.9785C26.6456 58.9785 22.2277 59.2546 20.9023 61.9606C19.1904 65.3844 20.9023 65.4949 20.9023 65.4949L29.0203 66.1576L33.4382 68.1457L45.6979 59.0889C45.6979 59.0889 45.477 57.377 43.986 57.1008C42.4949 56.8799 39.3472 57.1008 38.077 56.8799C37.1382 56.6038 34.5427 55.8307 32.5546 55.8307Z" fill="#007D29"/>
<path d="M54.7548 45.7247C54.7548 45.7247 63.9772 48.5412 64.916 48.8173C65.91 49.0382 79.2743 73.9994 79.2743 73.9994" stroke="#007D29" stroke-width="3.5" stroke-miterlimit="10" stroke-linecap="round"/>
<path d="M30.5112 65.1084C35.2604 65.1084 39.0709 68.9741 39.0709 73.6681C39.0709 78.3621 35.2052 82.2278 30.5112 82.2278C25.7619 82.2278 21.9514 78.3621 21.9514 73.6681C21.9514 68.9741 25.8171 65.1084 30.5112 65.1084ZM30.5112 62.6233C24.3813 62.6233 19.4111 67.5935 19.4111 73.7233C19.4111 79.8532 24.3813 84.8234 30.5112 84.8234C36.641 84.8234 41.6112 79.8532 41.6112 73.7233C41.6112 67.5935 36.641 62.6233 30.5112 62.6233Z" fill="#007D29" stroke="#007D29" stroke-width="3" stroke-miterlimit="10"/>
<path d="M78.6109 65.1084C83.3602 65.1084 87.1706 68.9741 87.1706 73.6681C87.1706 78.3621 83.3049 82.2278 78.6109 82.2278C73.8616 82.2278 70.0512 78.3621 70.0512 73.6681C70.0512 68.9741 73.9168 65.1084 78.6109 65.1084ZM78.6109 62.6233C72.481 62.6233 67.5109 67.5935 67.5109 73.7233C67.5109 79.8532 72.5362 84.7681 78.6109 84.7681C84.7408 84.7681 89.7109 79.798 89.7109 73.6681C89.7109 67.5382 84.7408 62.6233 78.6109 62.6233Z" fill="#007D29" stroke="#007D29" stroke-width="3" stroke-miterlimit="10"/>
<path d="M49.1219 36.8337H75.7951L79.8817 33.0232L75.7951 28.5501H73.1444L70.9906 26.3411L68.7817 28.5501L66.1861 25.9545L63.6458 28.4948L60.8846 25.7336L58.51 28.1083H44.9801L49.1219 36.8337Z" fill="#009C33"/>
<path d="M45.919 21.2605H33.5489C31.4503 21.2605 29.7384 22.9724 29.7384 25.071V38.7113C29.7384 40.8098 31.4503 42.5218 33.5489 42.5218H45.919C48.0176 42.5218 49.7295 40.8098 49.7295 38.7113V25.071C49.7295 22.9724 48.0176 21.2605 45.919 21.2605ZM35.9235 35.2322C35.9235 36.0053 35.2608 36.668 34.4877 36.668C33.7145 36.668 33.0518 36.0053 33.0518 35.2322V28.5501C33.0518 27.7769 33.7145 27.1142 34.4877 27.1142C35.2608 27.1142 35.9235 27.7769 35.9235 28.5501V35.2322Z" fill="#009C33"/>
<defs>
<linearGradient id="paint0_linear" x1="110.012" y1="64.6818" x2="0" y2="64.6818" gradientUnits="userSpaceOnUse">
<stop stop-color="#168F3D"/>
<stop offset="1" stop-color="#4BB86F"/>
</linearGradient>
<linearGradient id="paint1_linear" x1="54.5378" y1="8.31934" x2="54.5378" y2="119.244" gradientUnits="userSpaceOnUse">
<stop stop-color="#CCEBD6"/>
<stop offset="1" stop-color="#4DBA71"/>
</linearGradient>
</defs>
</svg>
