<svg width="110" height="130" viewBox="0 0 110 130" fill="none" xmlns="http://www.w3.org/2000/svg">
<path d="M83.3853 0H109.668C109.834 0 110 0.165418 110 0.330835V74.438C110 74.438 104.688 93.9572 83.3853 109.892C62.0825 125.828 55 129.412 55 129.412C55 129.412 47.9175 125.883 26.6147 109.892C5.31186 93.9021 0 74.438 0 74.438V0.330835C0 0.165418 0.165982 0 0.331978 0H26.6147H83.3853Z" fill="url(#paint0_linear)"/>
<path d="M78.5364 8.31934C88.0827 8.65211 100.262 8.31934 100.262 8.31934C100.592 8.31934 100.756 8.48572 100.756 8.65211V72.0454C100.756 72.0454 96.038 88.795 78.3719 102.494C60.7058 116.193 54.8353 119.244 54.8353 119.244C54.8353 119.244 49.0198 116.249 31.2988 102.494C13.6328 88.795 9.24365 72.1009 9.24365 72.1009V8.65211C9.24365 8.48572 9.40823 8.31934 9.57282 8.31934H78.5364Z" fill="url(#paint1_linear)"/>
<path d="M55.4621 8.31934H43.4919C43.4919 8.31934 42.1619 8.31934 31.5216 8.31934C20.8814 8.31934 9.57615 8.31934 9.57615 8.31934C9.40989 8.31934 9.24365 8.48572 9.24365 8.65211V72.0454C9.24365 72.0454 13.6771 88.795 31.5216 102.494C49.3662 116.193 55.2959 119.244 55.2959 119.244V8.31934H55.4621Z" fill="#CCEBD6"/>
<path d="M46.7932 77.0222C46.1305 76.6909 45.4126 76.2491 44.9708 75.6969C44.8604 75.5864 44.8052 75.476 44.6947 75.3655C44.3082 74.8685 44.1425 74.7028 44.032 74.2058C43.8111 73.1566 43.8111 71.1685 43.8111 70.4506V50.5147V50.4595C43.8111 50.4595 43.6455 47.2012 45.6335 45.7654L46.738 44.9371L45.9649 43.8326C45.8544 43.6669 44.8604 42.1206 46.0753 40.5744C46.7932 39.6356 47.4559 39.5251 47.6768 39.5251C47.732 39.5251 47.732 39.5251 47.732 39.5251L50.2171 40.3535L49.3335 37.8684C49.3335 37.8684 49.2231 36.8744 50.3828 35.3833L54.0828 37.537V55.6505C52.9231 55.3744 51.2664 54.7669 49.941 53.3863L49.7753 53.1654L49.2783 52.8893H48.947C47.1798 52.8893 46.8484 55.0983 46.8484 61.3938C46.8484 66.861 46.7932 73.7088 46.7932 77.0222Z" fill="#007D29"/>
<path d="M50.9344 37.3162L52.7568 38.3654V53.7729C52.1493 53.4968 51.5419 53.055 50.9896 52.5028L50.6583 52.1162L50.1613 51.8953L49.5538 51.6192H48.8911C45.412 51.6192 45.412 55.9819 45.412 61.5043C45.412 65.5909 45.412 70.5611 45.3568 74.1506C45.3568 74.0954 45.3568 74.0954 45.3568 74.0954C45.1911 73.267 45.1359 71.4999 45.1359 70.6163V50.5699V50.5147V50.4043C45.0807 49.7416 45.2463 47.6983 46.406 46.8699L48.615 45.2684L47.0135 43.0595C47.0135 43.0595 46.4613 42.2311 47.0687 41.4028C47.2896 41.1266 47.4553 40.961 47.5658 40.961L51.5419 41.8998L50.7135 37.8132C50.7687 37.7027 50.824 37.5371 50.9344 37.3162ZM50.1613 33.6714C47.621 36.2669 48.0075 38.1998 48.0075 38.1998C48.0075 38.1998 47.8971 38.1445 47.6762 38.1445C47.1239 38.1445 46.0195 38.3654 44.9702 39.746C43.0926 42.1759 44.8598 44.661 44.8598 44.661C42.209 46.5938 42.4851 50.5699 42.4851 50.5699V70.5058C42.4851 70.5058 42.4851 73.1014 42.7613 74.482C42.9269 75.476 43.424 75.9178 43.9762 76.5253C45.4672 78.3476 48.2284 78.9551 48.2284 78.9551C48.2284 78.9551 48.2837 68.8491 48.2837 61.3939C48.2837 54.5461 48.8911 54.27 49.0016 54.27C51.6523 57.1968 55.518 57.1968 55.518 57.1968V36.7639L50.1613 33.6714Z" fill="#007D29"/>
<path d="M64.1883 77.0222C64.1883 73.7088 64.1331 66.8058 64.1331 61.3938C64.1331 55.0983 63.8017 52.8893 62.0346 52.8893H61.7032L61.4271 53.055L61.2062 53.1654L61.0405 53.3863C59.7152 54.8222 58.0584 55.4296 56.8987 55.6505V37.3161L60.5436 35.3833C61.7585 36.8744 61.648 37.8684 61.648 37.9236L60.9301 40.4639L63.36 39.5251H63.4152C63.6913 39.5251 64.2988 39.6356 65.0167 40.5744C66.2316 42.1206 65.2376 43.6669 65.1271 43.8326L64.354 44.9371L65.4033 45.7102C67.3913 47.146 67.2256 50.4042 67.2256 50.4595V50.5699V70.5058C67.2256 71.1685 67.1704 73.2118 67.0047 74.261C66.8943 74.7028 66.7286 74.9237 66.3421 75.4207C66.2316 75.5312 66.1764 75.6416 66.066 75.7521C65.5689 76.2491 64.851 76.7461 64.1883 77.0222Z" fill="#007D29"/>
<path d="M60.0468 37.2057C60.1573 37.4818 60.2125 37.7027 60.2125 37.8132L59.3842 41.8998L63.3603 40.961C63.4707 41.0162 63.6364 41.1266 63.8573 41.4028C64.3543 42.0654 64.1334 42.7281 63.9125 43.0595L62.2558 45.2132L64.5752 46.8699C65.7349 47.6983 65.9006 49.7416 65.8454 50.4043V50.5147V50.6252V70.5058C65.8454 71.3894 65.7901 73.1566 65.6245 73.985C65.6245 74.0402 65.6245 74.0402 65.6245 74.0402C65.6245 70.4506 65.5693 65.4804 65.5693 61.3939C65.5693 55.8715 65.5693 51.5088 62.0901 51.5088H61.4274L60.8752 51.7849L60.3782 52.0058L60.0468 52.3923C59.4946 52.9998 58.8871 53.3864 58.2797 53.6625V38.1445L60.0468 37.2057ZM60.82 33.6714L55.4633 36.4878V57.2521C55.4633 57.2521 59.3289 57.2521 61.9797 54.3252C62.0901 54.3252 62.6976 54.6013 62.6976 61.4491C62.6976 68.9043 62.7528 79.0103 62.7528 79.0103C62.7528 79.0103 65.5692 78.3476 67.0051 76.5805C67.5573 75.9178 67.9991 75.476 68.22 74.5372C68.4961 73.1014 68.4961 70.5611 68.4961 70.5611V50.5699C68.4961 50.5699 68.7722 46.5938 66.1215 44.661C66.1215 44.661 67.8334 42.2311 66.011 39.746C64.9618 38.3654 63.8573 38.1445 63.3051 38.1445C63.0842 38.1445 62.9737 38.1998 62.9737 38.1998C62.9737 38.1998 63.3603 36.2669 60.82 33.6714Z" fill="#007D29"/>
<path d="M55.5736 37.3162C51.7631 37.3162 48.7258 34.2237 48.7258 30.4684C48.7258 26.7132 51.7631 23.5654 55.5736 23.5654C59.384 23.5654 62.4213 26.658 62.4213 30.4132C62.4213 34.1685 59.384 37.3162 55.5736 37.3162ZM55.5736 23.7863C51.8736 23.7863 48.8914 26.7684 48.8914 30.4684C48.8914 34.1684 51.8736 37.1505 55.5736 37.1505C59.2736 37.1505 62.2557 34.1132 62.2557 30.4684C62.2557 26.8236 59.2736 23.7863 55.5736 23.7863Z" fill="#007D29"/>
<path d="M55.5736 22.1848C51.0452 22.1848 47.3452 25.8848 47.3452 30.4132C47.3452 34.9416 51.0452 38.6416 55.5736 38.6416C60.102 38.6416 63.802 34.9416 63.802 30.4132C63.802 25.8848 60.102 22.1848 55.5736 22.1848ZM55.5736 35.7147C52.6467 35.7147 50.2721 33.3401 50.2721 30.4132C50.2721 27.4863 52.6467 25.1117 55.5736 25.1117C58.5005 25.1117 60.8751 27.4863 60.8751 30.4132C60.8751 33.3401 58.5005 35.7147 55.5736 35.7147Z" fill="#007D29"/>
<path d="M62.9735 31.6834C62.5318 31.6834 62.1452 31.4073 62.0347 30.9655C61.8691 30.4685 62.2004 29.9162 62.6974 29.7505L71.5885 27.3207C72.0855 27.155 72.6378 27.4864 72.8034 27.9834C72.9691 28.4804 72.6378 29.0326 72.1408 29.1983L63.2497 31.6282C63.1392 31.6282 63.084 31.6834 62.9735 31.6834Z" fill="#007D29" stroke="#007D29" stroke-width="2" stroke-miterlimit="10" stroke-linecap="round"/>
<path d="M47.6214 31.4073C47.511 31.4073 47.4557 31.4073 47.3453 31.352L38.5094 28.9222C38.0124 28.7565 37.6811 28.2595 37.8467 27.7073C38.0124 27.2102 38.5094 26.8789 39.0617 27.0446L47.9527 29.4744C48.4498 29.6401 48.7811 30.1371 48.6154 30.6893C48.4498 31.1311 48.0632 31.4073 47.6214 31.4073Z" fill="#007D29" stroke="#007D29" stroke-width="2" stroke-miterlimit="10" stroke-linecap="round"/>
<path d="M54.8553 96.4612C53.1986 96.4612 51.818 95.0806 51.818 93.4239V64.0999C51.818 62.4432 53.1986 61.0626 54.8553 61.0626H55.9598C57.6165 61.0626 58.9971 62.4432 58.9971 64.0999V93.4239C58.9971 95.0806 57.6165 96.4612 55.9598 96.4612H54.8553Z" fill="#007D29"/>
<path d="M55.9052 62.4432C56.7888 62.4432 57.5619 63.2163 57.5619 64.0999V93.4239C57.5619 94.3075 56.7888 95.0806 55.9052 95.0806H54.8007C53.9172 95.0806 53.144 94.3075 53.144 93.4239V64.0999C53.144 63.2163 53.9172 62.4432 54.8007 62.4432H55.9052ZM55.9052 59.682H54.8007C52.3709 59.682 50.3828 61.6701 50.3828 64.0999V93.4239C50.3828 95.8538 52.3709 97.8418 54.8007 97.8418H55.9052C58.3351 97.8418 60.3231 95.8538 60.3231 93.4239V64.0999C60.3231 61.6701 58.3351 59.682 55.9052 59.682Z" fill="#007D29"/>
<path d="M74.6938 49.576H87.7267V52.9447L95.1267 45.5446L87.7267 38.1998V41.6237H74.6938V49.576Z" fill="#009C33"/>
<path d="M36.2028 58.4118H23.1147V55.0431L15.7147 62.3879L23.1147 69.7879V66.364H36.2028V58.4118Z" fill="#009C33"/>
<defs>
<linearGradient id="paint0_linear" x1="110.012" y1="64.6818" x2="0" y2="64.6818" gradientUnits="userSpaceOnUse">
<stop stop-color="#168F3D"/>
<stop offset="1" stop-color="#4BB86F"/>
</linearGradient>
<linearGradient id="paint1_linear" x1="55" y1="8.31934" x2="55" y2="119.244" gradientUnits="userSpaceOnUse">
<stop stop-color="#CCEBD6"/>
<stop offset="1" stop-color="#4DBA71"/>
</linearGradient>
</defs>
</svg>
