<svg width="110" height="130" viewBox="0 0 110 130" fill="none" xmlns="http://www.w3.org/2000/svg">
<path d="M83.3853 0H109.668C109.834 0 110 0.165418 110 0.330835V74.438C110 74.438 104.688 93.9572 83.3853 109.892C62.0825 125.828 55 129.412 55 129.412C55 129.412 47.9175 125.883 26.6147 109.892C5.31186 93.9021 0 74.438 0 74.438V0.330835C0 0.165418 0.165982 0 0.331978 0H26.6147H83.3853Z" fill="url(#paint0_linear)"/>
<path d="M78.5364 8.31934C88.0827 8.65211 100.262 8.31934 100.262 8.31934C100.592 8.31934 100.756 8.48572 100.756 8.65211V72.0454C100.756 72.0454 96.038 88.795 78.3719 102.494C60.7058 116.193 54.8353 119.244 54.8353 119.244C54.8353 119.244 49.0198 116.249 31.2988 102.494C13.6328 88.795 9.24365 72.1009 9.24365 72.1009V8.65211C9.24365 8.48572 9.40823 8.31934 9.57282 8.31934H78.5364Z" fill="url(#paint1_linear)"/>
<path d="M55.4621 8.31934H43.4919C43.4919 8.31934 42.1619 8.31934 31.5216 8.31934C20.8814 8.31934 9.57615 8.31934 9.57615 8.31934C9.40989 8.31934 9.24365 8.48572 9.24365 8.65211V72.0454C9.24365 72.0454 13.6771 88.795 31.5216 102.494C49.3662 116.193 55.2959 119.244 55.2959 119.244V8.31934H55.4621Z" fill="#CCEBD6"/>
<path d="M46.7931 77.0222C46.1304 76.6909 45.4125 76.2491 44.9707 75.6969C44.8603 75.5864 44.8051 75.476 44.6946 75.3655C44.308 74.8685 44.1424 74.7028 44.0319 74.2058C43.811 73.1566 43.811 71.1685 43.811 70.4506V50.5147V50.4595C43.811 50.4595 43.6454 47.2012 45.6334 45.7654L46.7379 44.9371L45.9647 43.8326C45.8543 43.6669 44.8603 42.1206 46.0752 40.5744C46.7931 39.6356 47.4558 39.5251 47.6767 39.5251C47.7319 39.5251 47.7319 39.5251 47.7319 39.5251L50.217 40.3535L49.3334 37.8684C49.3334 37.8684 49.223 36.8744 50.3827 35.3833L54.0827 37.537V55.6505C52.923 55.3744 51.2663 54.7669 49.9409 53.3863L49.7752 53.1654L49.2782 52.8893H48.9469C47.1797 52.8893 46.8483 55.0983 46.8483 61.3938C46.8483 66.861 46.7931 73.7088 46.7931 77.0222Z" fill="#007D29"/>
<path d="M50.9343 37.3162L52.7567 38.3654V53.7729C52.1492 53.4968 51.5417 53.055 50.9895 52.5028L50.6582 52.1162L50.1611 51.8953L49.5537 51.6192H48.891C45.4119 51.6192 45.4119 55.9819 45.4119 61.5043C45.4119 65.5909 45.4119 70.5611 45.3567 74.1506C45.3567 74.0954 45.3567 74.0954 45.3567 74.0954C45.191 73.267 45.1358 71.4999 45.1358 70.6163V50.5699V50.5147V50.4043C45.0805 49.7416 45.2462 47.6983 46.4059 46.8699L48.6149 45.2684L47.0134 43.0595C47.0134 43.0595 46.4611 42.2311 47.0686 41.4028C47.2895 41.1266 47.4552 40.961 47.5656 40.961L51.5417 41.8998L50.7134 37.8132C50.7686 37.7027 50.8238 37.5371 50.9343 37.3162ZM50.1611 33.6714C47.6208 36.2669 48.0074 38.1998 48.0074 38.1998C48.0074 38.1998 47.897 38.1445 47.6761 38.1445C47.1238 38.1445 46.0194 38.3654 44.9701 39.746C43.0925 42.1759 44.8596 44.661 44.8596 44.661C42.2089 46.5938 42.485 50.5699 42.485 50.5699V70.5058C42.485 70.5058 42.485 73.1014 42.7611 74.482C42.9268 75.476 43.4238 75.9178 43.9761 76.5253C45.4671 78.3476 48.2283 78.9551 48.2283 78.9551C48.2283 78.9551 48.2835 68.8491 48.2835 61.3939C48.2835 54.5461 48.891 54.27 49.0014 54.27C51.6522 57.1968 55.5179 57.1968 55.5179 57.1968V36.7639L50.1611 33.6714Z" fill="#007D29"/>
<path d="M64.1883 77.0222C64.1883 73.7088 64.1331 66.8058 64.1331 61.3938C64.1331 55.0983 63.8017 52.8893 62.0345 52.8893H61.7032L61.4271 53.055L61.2062 53.1654L61.0405 53.3863C59.7151 54.8222 58.0584 55.4296 56.8987 55.6505V37.3161L60.5435 35.3833C61.7584 36.8744 61.648 37.8684 61.648 37.9236L60.93 40.4639L63.3599 39.5251H63.4151C63.6912 39.5251 64.2987 39.6356 65.0166 40.5744C66.2316 42.1206 65.2375 43.6669 65.1271 43.8326L64.3539 44.9371L65.4032 45.7102C67.3913 47.146 67.2256 50.4042 67.2256 50.4595V50.5699V70.5058C67.2256 71.1685 67.1704 73.2118 67.0047 74.261C66.8942 74.7028 66.7286 74.9237 66.342 75.4207C66.2316 75.5312 66.1763 75.6416 66.0659 75.7521C65.5689 76.2491 64.851 76.7461 64.1883 77.0222Z" fill="#007D29"/>
<path d="M60.0467 37.2057C60.1572 37.4818 60.2124 37.7027 60.2124 37.8132L59.384 41.8998L63.3602 40.961C63.4706 41.0162 63.6363 41.1266 63.8572 41.4028C64.3542 42.0654 64.1333 42.7281 63.9124 43.0595L62.2557 45.2132L64.5751 46.8699C65.7348 47.6983 65.9005 49.7416 65.8453 50.4043V50.5147V50.6252V70.5058C65.8453 71.3894 65.79 73.1566 65.6243 73.985C65.6243 74.0402 65.6243 74.0402 65.6243 74.0402C65.6243 70.4506 65.5691 65.4804 65.5691 61.3939C65.5691 55.8715 65.5691 51.5088 62.09 51.5088H61.4273L60.8751 51.7849L60.3781 52.0058L60.0467 52.3923C59.4945 52.9998 58.887 53.3864 58.2795 53.6625V38.1445L60.0467 37.2057ZM60.8199 33.6714L55.4631 36.4878V57.2521C55.4631 57.2521 59.3288 57.2521 61.9796 54.3252C62.09 54.3252 62.6975 54.6013 62.6975 61.4491C62.6975 68.9043 62.7527 79.0103 62.7527 79.0103C62.7527 79.0103 65.5691 78.3476 67.0049 76.5805C67.5572 75.9178 67.999 75.476 68.2199 74.5372C68.496 73.1014 68.496 70.5611 68.496 70.5611V50.5699C68.496 50.5699 68.7721 46.5938 66.1214 44.661C66.1214 44.661 67.8333 42.2311 66.0109 39.746C64.9617 38.3654 63.8572 38.1445 63.305 38.1445C63.0841 38.1445 62.9736 38.1998 62.9736 38.1998C62.9736 38.1998 63.3602 36.2669 60.8199 33.6714Z" fill="#007D29"/>
<path d="M55.5734 37.3162C51.7629 37.3162 48.7256 34.2237 48.7256 30.4684C48.7256 26.7132 51.7629 23.5654 55.5734 23.5654C59.3838 23.5654 62.4211 26.658 62.4211 30.4132C62.4211 34.1685 59.3838 37.3162 55.5734 37.3162ZM55.5734 23.7863C51.8734 23.7863 48.8913 26.7684 48.8913 30.4684C48.8913 34.1684 51.8734 37.1505 55.5734 37.1505C59.2734 37.1505 62.2555 34.1132 62.2555 30.4684C62.2555 26.8236 59.2734 23.7863 55.5734 23.7863Z" fill="#007D29"/>
<path d="M55.5734 22.1848C51.045 22.1848 47.345 25.8848 47.345 30.4132C47.345 34.9416 51.045 38.6416 55.5734 38.6416C60.1017 38.6416 63.8017 34.9416 63.8017 30.4132C63.8017 25.8848 60.1017 22.1848 55.5734 22.1848ZM55.5734 35.7147C52.6465 35.7147 50.2718 33.3401 50.2718 30.4132C50.2718 27.4863 52.6465 25.1117 55.5734 25.1117C58.5002 25.1117 60.8749 27.4863 60.8749 30.4132C60.8749 33.3401 58.5002 35.7147 55.5734 35.7147Z" fill="#007D29"/>
<path d="M62.9734 31.6834C62.5316 31.6834 62.145 31.4073 62.0346 30.9655C61.8689 30.4685 62.2002 29.9162 62.6972 29.7505L71.5883 27.3207C72.0854 27.155 72.6376 27.4864 72.8032 27.9834C72.9689 28.4804 72.6376 29.0326 72.1406 29.1983L63.2495 31.6282C63.139 31.6282 63.0838 31.6834 62.9734 31.6834Z" fill="#007D29" stroke="#007D29" stroke-width="2" stroke-miterlimit="10" stroke-linecap="round"/>
<path d="M47.6212 31.4073C47.5108 31.4073 47.4556 31.4073 47.3451 31.352L38.5093 28.9222C38.0122 28.7565 37.6809 28.2595 37.8466 27.7073C38.0122 27.2102 38.5093 26.8789 39.0615 27.0446L47.9526 29.4744C48.4496 29.6401 48.7809 30.1371 48.6153 30.6893C48.4496 31.1311 48.063 31.4073 47.6212 31.4073Z" fill="#007D29" stroke="#007D29" stroke-width="2" stroke-miterlimit="10" stroke-linecap="round"/>
<path d="M54.855 96.4612C53.1982 96.4612 51.8176 95.0806 51.8176 93.4239V64.0999C51.8176 62.4432 53.1982 61.0626 54.855 61.0626H55.9594C57.6162 61.0626 58.9968 62.4432 58.9968 64.0999V93.4239C58.9968 95.0806 57.6162 96.4612 55.9594 96.4612H54.855Z" fill="#007D29"/>
<path d="M55.905 62.4432C56.7886 62.4432 57.5617 63.2163 57.5617 64.0999V93.4239C57.5617 94.3075 56.7886 95.0806 55.905 95.0806H54.8005C53.9169 95.0806 53.1438 94.3075 53.1438 93.4239V64.0999C53.1438 63.2163 53.9169 62.4432 54.8005 62.4432H55.905ZM55.905 59.682H54.8005C52.3706 59.682 50.3826 61.6701 50.3826 64.0999V93.4239C50.3826 95.8538 52.3706 97.8418 54.8005 97.8418H55.905C58.3348 97.8418 60.3229 95.8538 60.3229 93.4239V64.0999C60.3229 61.6701 58.3348 59.682 55.905 59.682Z" fill="#007D29"/>
<path d="M74.6936 49.576H87.7265V52.9447L95.1265 45.5446L87.7265 38.1998V41.6237H74.6936V49.576Z" fill="#009C33"/>
<path d="M36.2027 58.4118H23.1146V55.0431L15.7146 62.3879L23.1146 69.7879V66.364H36.2027V58.4118Z" fill="#009C33"/>
<circle cx="70" cy="70" r="12.5" fill="white" stroke="#009C33"/>
<line x1="70.3635" y1="61.3334" x2="70.3635" y2="79.5334" stroke="#007D29" stroke-width="4"/>
<line x1="79.5337" y1="70.2666" x2="60.467" y2="70.2666" stroke="#007D29" stroke-width="4"/>
<defs>
<linearGradient id="paint0_linear" x1="110.012" y1="64.6818" x2="0" y2="64.6818" gradientUnits="userSpaceOnUse">
<stop stop-color="#168F3D"/>
<stop offset="1" stop-color="#4BB86F"/>
</linearGradient>
<linearGradient id="paint1_linear" x1="55" y1="8.31934" x2="55" y2="119.244" gradientUnits="userSpaceOnUse">
<stop stop-color="#CCEBD6"/>
<stop offset="1" stop-color="#4DBA71"/>
</linearGradient>
</defs>
</svg>
