<svg width="110" height="130" viewBox="0 0 110 130" fill="none" xmlns="http://www.w3.org/2000/svg">
<path d="M83.3853 0H109.668C109.834 0 110 0.165418 110 0.330835V74.438C110 74.438 104.688 93.9572 83.3853 109.892C62.0825 125.828 55 129.412 55 129.412C55 129.412 47.9175 125.883 26.6147 109.892C5.31186 93.9021 0 74.438 0 74.438V0.330835C0 0.165418 0.165982 0 0.331978 0H26.6147H83.3853Z" fill="url(#paint0_linear)"/>
<path d="M78.5364 8.31934C88.0827 8.65211 100.262 8.31934 100.262 8.31934C100.592 8.31934 100.756 8.48572 100.756 8.65211V72.0454C100.756 72.0454 96.038 88.795 78.3719 102.494C60.7058 116.193 54.8353 119.244 54.8353 119.244C54.8353 119.244 49.0198 116.249 31.2988 102.494C13.6328 88.795 9.24365 72.1009 9.24365 72.1009V8.65211C9.24365 8.48572 9.40823 8.31934 9.57282 8.31934H78.5364Z" fill="url(#paint1_linear)"/>
<path d="M55.4621 8.31934H43.4919C43.4919 8.31934 42.1619 8.31934 31.5216 8.31934C20.8814 8.31934 9.57615 8.31934 9.57615 8.31934C9.40989 8.31934 9.24365 8.48572 9.24365 8.65211V72.0454C9.24365 72.0454 13.6771 88.795 31.5216 102.494C49.3662 116.193 55.2959 119.244 55.2959 119.244V8.31934H55.4621Z" fill="#CCEBD6"/>
<path d="M54.4467 22.957C41.831 22.957 31.6499 33.1531 31.6499 45.7874C31.6499 48.6689 32.4799 52.3816 33.4759 54.9306L54.4467 99.7047L75.4175 54.9306C76.4135 52.3816 77.2435 48.7243 77.2435 45.7874C77.2988 33.1531 67.0624 22.957 54.4467 22.957Z" fill="#007D29"/>
<path d="M54.668 22.957C54.6127 22.957 54.502 22.957 54.4467 22.957C41.831 22.957 31.6499 33.1531 31.6499 45.7874C31.6499 48.6689 32.4799 52.3816 33.4759 54.9306L54.4467 99.7047L54.6127 99.3168V22.957H54.668Z" fill="#4DBA71"/>
<path d="M63.5766 34.185C62.6913 33.0213 61.474 32.1347 60.0353 31.5806C58.5967 31.0264 57.1027 30.694 55.4981 30.694C54.5021 30.694 53.5061 30.8048 52.5102 31.0819C51.5142 31.3589 50.6289 31.7468 49.7989 32.301C49.0243 32.8551 48.3603 33.5201 47.8623 34.4067C47.3643 35.2379 47.143 36.2353 47.143 37.3436C47.143 39.3385 47.9729 40.89 49.5776 41.9429L48.1389 42.8849L46.9216 44.1594C46.5343 44.6582 46.2577 45.1569 46.0363 45.7664C45.815 46.376 45.7043 47.0409 45.7043 47.7613C45.7043 48.7033 45.8703 49.4791 46.2577 50.1995C46.645 50.8645 47.0876 51.474 47.641 51.9727C48.1943 52.4715 48.8583 52.9148 49.6329 53.2472L54.5021 55.2421L56.3834 56.1842C56.8814 56.5166 57.2687 56.9045 57.5454 57.2924C57.822 57.7357 57.9327 58.2345 57.9327 58.7886C57.9327 59.2873 57.822 59.6752 57.5454 60.0631C57.3241 60.451 56.9921 60.7281 56.6047 60.9497L55.3874 61.5039L54.0595 61.6701C53.0635 61.6701 52.0675 61.4484 51.1269 60.9497C50.1309 60.5064 49.4116 59.786 48.9136 58.844L44.9297 61.2268C45.4277 62.0026 46.0363 62.723 46.7556 63.2771C47.475 63.8312 48.2496 64.3299 49.0243 64.6624C49.8542 65.0503 50.6842 65.3274 51.5142 65.4936C52.3995 65.6599 53.2295 65.7707 54.0595 65.7707C55.1108 65.7707 56.1621 65.6045 57.2134 65.3274C58.2647 65.0503 59.2053 64.607 60.0353 63.9975C60.8653 63.3879 61.5293 62.6121 62.0826 61.7255C62.5806 60.7835 62.8573 59.7306 62.8573 58.5115C62.8573 57.5695 62.6913 56.6829 62.4146 55.9071C62.1379 55.1313 61.5846 54.4663 60.7546 53.8568C61.6953 53.4135 62.4699 52.6931 63.0786 51.7511C63.7426 50.8091 64.0192 49.8116 64.0192 48.6479C64.0192 47.6505 63.7979 46.7639 63.4106 46.0435C63.0233 45.3231 62.4699 44.6582 61.8059 44.104C61.142 43.5499 60.4226 43.0512 59.5927 42.6079L53.3955 39.6155C52.9528 39.2831 52.5655 38.9506 52.2888 38.5627C52.0122 38.1748 51.9015 37.7315 51.9015 37.1773C51.9015 36.734 52.0122 36.3461 52.2335 36.0137C52.4548 35.6812 52.7315 35.4041 53.0635 35.1825L54.2255 34.6837L55.4981 34.5175C56.3281 34.5175 57.2134 34.7392 58.0434 35.2379C58.8734 35.6812 59.5927 36.2907 60.0907 37.0665L63.5766 34.185ZM52.6762 44.104L57.4347 46.3206L58.486 47.0964L59.2607 48.0384C59.482 48.4263 59.5927 48.8142 59.5927 49.3683C59.5927 49.9224 59.4267 50.4212 59.0947 50.9753C58.7627 51.474 58.3754 51.8619 57.822 52.139L52.5102 49.867L51.4589 49.1467L50.6842 48.26C50.4629 47.8721 50.4076 47.4288 50.4076 46.9855C50.4076 46.2097 50.6289 45.6002 51.1269 45.1569C51.5142 44.7136 52.0675 44.3811 52.6762 44.104Z" fill="#CCEBD6"/>
<defs>
<linearGradient id="paint0_linear" x1="110.012" y1="64.6818" x2="0" y2="64.6818" gradientUnits="userSpaceOnUse">
<stop stop-color="#168F3D"/>
<stop offset="1" stop-color="#4BB86F"/>
</linearGradient>
<linearGradient id="paint1_linear" x1="55" y1="8.31934" x2="55" y2="119.244" gradientUnits="userSpaceOnUse">
<stop stop-color="#CCEBD6"/>
<stop offset="1" stop-color="#4DBA71"/>
</linearGradient>
</defs>
</svg>
