<svg xmlns="http://www.w3.org/2000/svg" width="532" height="445" fill="none" viewBox="0 0 532 445">
    <path fill="#fff" fill-rule="evenodd" d="M319 1c-3.314 0-6 2.686-6 6v103.5L331.5 92H525c3.314 0 6-2.686 6-6V7c0-3.314-2.686-6-6-6H319z" clip-rule="evenodd"/>
    <path fill="#FF9632" d="M313 110.5h-1v2.414l1.707-1.707-.707-.707zM331.5 92v-1h-.414l-.293.293.707.707zM314 7c0-2.761 2.239-5 5-5V0c-3.866 0-7 3.134-7 7h2zm0 49V7h-2v49h2zm0 30V56h-2v30h2zm0 24.5V86h-2v24.5h2zm16.793-19.207l-18.5 18.5 1.414 1.414 18.5-18.5-1.414-1.414zM525 91H331.5v2H525v-2zm5-5c0 2.761-2.239 5-5 5v2c3.866 0 7-3.134 7-7h-2zm0-79v79h2V7h-2zm-5-5c2.761 0 5 2.239 5 5h2c0-3.866-3.134-7-7-7v2zM319 2h206V0H319v2zM336.584 27.326V42h1.87v-6.094h.924c1.408 0 2.2-.154 2.97-.616 1.386-.792 2.09-2.046 2.09-3.674 0-1.562-.748-2.992-1.936-3.674-.726-.418-1.738-.616-3.146-.616h-2.772zm1.87 1.496h.77c1.034 0 1.562.088 2.068.374.77.44 1.254 1.364 1.254 2.442 0 .814-.264 1.518-.748 2.002-.528.528-1.342.77-2.574.77h-.77v-5.588zm14.45 8.272c.022-.176.022-.418.022-.726 0-3.278-1.452-5.302-3.806-5.302-2.53 0-4.07 2.112-4.07 5.522 0 3.652 1.606 5.632 4.554 5.632.99 0 1.672-.176 2.706-.66l-.088-1.694c-.902.66-1.672.946-2.64.946-.924 0-1.672-.484-2.222-1.452-.308-.572-.44-1.1-.528-2.266h6.072zm-6.072-1.32c.264-2.354.968-3.366 2.288-3.366 1.32 0 1.914.99 2.046 3.366h-4.334zm8.84-3.08v5.874c0 2.002.088 2.464.638 2.97.418.396.968.572 1.782.572.594 0 .968-.044 1.518-.22v-1.496c-.374.198-.704.286-1.056.286-.374 0-.726-.154-.88-.396-.22-.352-.22-.352-.22-2.662v-4.928h2.068v-1.408h-2.068v-2.838l-1.782.572v2.266h-1.76v1.408h1.76zm12.787 4.4c.022-.176.022-.418.022-.726 0-3.278-1.452-5.302-3.806-5.302-2.53 0-4.07 2.112-4.07 5.522 0 3.652 1.606 5.632 4.554 5.632.99 0 1.672-.176 2.706-.66l-.088-1.694c-.902.66-1.672.946-2.64.946-.924 0-1.672-.484-2.222-1.452-.308-.572-.44-1.1-.528-2.266h6.072zm-6.072-1.32c.264-2.354.968-3.366 2.288-3.366 1.32 0 1.914.99 2.046 3.366h-4.334zm12.822-4.598c-.176-.022-.308-.022-.462-.022-1.342 0-1.936.462-2.662 2.024v-1.892h-1.694c.088 1.518.11 2.728.11 3.916V42h1.804v-4.686c0-1.87.132-2.618.572-3.366.396-.704.946-1.056 1.584-1.056.22 0 .594.044.682.088l.066.022v-1.826zm6.924-3.85V42h3.014c1.606 0 2.398-.154 3.212-.594 1.188-.66 1.848-1.914 1.848-3.476 0-1.21-.462-2.288-1.232-2.904-.484-.396-.924-.572-1.804-.748 1.782-.44 2.618-1.496 2.618-3.278 0-1.364-.594-2.486-1.65-3.102-.682-.396-1.606-.572-2.904-.572h-3.102zm1.87 1.496h1.144c.968 0 1.738.198 2.112.528.44.396.726 1.122.726 1.848 0 1.562-.99 2.42-2.838 2.42h-1.144v-4.796zm0 6.27h1.21c.88 0 1.474.11 1.87.33.748.44 1.232 1.364 1.232 2.398 0 1.76-1.1 2.684-3.168 2.684h-1.144v-5.412zm9.242-1.496c1.188-.814 1.914-1.1 2.838-1.1 1.254 0 1.98.902 1.98 2.53v.506c-.44-.044-.44-.044-1.012-.044-1.76 0-3.19.44-3.96 1.232-.572.572-.88 1.364-.88 2.354 0 1.914 1.21 3.146 3.08 3.146 1.298 0 2.024-.44 2.772-1.672 0 .55.022.858.088 1.452h1.738c-.11-1.364-.154-2.464-.154-3.982V36.06c0-1.936-.132-2.794-.528-3.52-.506-.946-1.606-1.474-3.036-1.474-1.166 0-1.98.242-3.124.968l.198 1.562zm4.818 3.102v.682c0 2.134-.924 3.498-2.354 3.498-1.056 0-1.738-.748-1.738-1.892 0-.528.154-1.034.484-1.408.44-.55 1.474-.88 2.816-.88h.792zm11.822-5.412h-1.782v5.17c0 3.08-.594 4.202-2.178 4.202-.66 0-1.1-.242-1.364-.726-.33-.572-.396-1.21-.396-3.432v-5.214h-1.782v5.522c0 2.662.088 3.212.594 4.114.484.858 1.32 1.298 2.42 1.298 1.342 0 2.156-.506 2.882-1.76l.088 1.54h1.65c-.066-.44-.11-1.386-.132-4.004v-6.71zm4.356 0h-1.738c.088 1.694.11 2.75.11 4.488V42h1.804v-5.28c0-1.606.132-2.42.484-3.124.33-.594.902-.968 1.518-.968.484 0 .88.22 1.1.616.374.682.44 1.276.44 3.52V42h1.782v-5.038c0-1.892.11-2.64.506-3.388.33-.594.902-.946 1.54-.946.528 0 .924.22 1.144.616.308.572.374 1.188.374 3.278V42h1.782v-5.83c0-2.288-.11-3.014-.594-3.872-.462-.792-1.276-1.232-2.266-1.232-1.276 0-2.09.55-2.816 1.936-.528-1.364-1.276-1.936-2.486-1.936-1.078 0-1.848.506-2.684 1.738v-1.518zm15.805 8.602H428l-.99 4.818h1.65l1.386-4.818zm14.653-12.474h-6.688v7.37c1.188-.374 1.804-.506 2.552-.506 1.716 0 2.772 1.166 2.772 3.058 0 1.98-1.078 3.212-2.772 3.212-.88 0-1.518-.176-2.596-.726l-.11 1.782c1.188.418 1.892.55 2.816.55 2.882 0 4.642-1.826 4.642-4.752 0-2.926-1.562-4.62-4.268-4.62-.44 0-.77.044-1.298.176v-3.982h4.95v-1.562zm8.14-.088h-1.672l-3.19 3.124 1.034 1.254 2.024-2.112V42h1.804V27.326zm14.003 0h-1.87v9.9c0 2.398-.396 3.212-1.562 3.212-.396 0-.638-.044-1.166-.198v1.694c.682.176 1.012.22 1.518.22 1.056 0 1.98-.55 2.508-1.452.418-.726.572-1.672.572-3.388v-9.988zm3.081 6.27c1.188-.814 1.914-1.1 2.838-1.1 1.254 0 1.98.902 1.98 2.53v.506c-.44-.044-.44-.044-1.012-.044-1.76 0-3.19.44-3.96 1.232-.572.572-.88 1.364-.88 2.354 0 1.914 1.21 3.146 3.08 3.146 1.298 0 2.024-.44 2.772-1.672 0 .55.022.858.088 1.452h1.738c-.11-1.364-.154-2.464-.154-3.982V36.06c0-1.936-.132-2.794-.528-3.52-.506-.946-1.606-1.474-3.036-1.474-1.166 0-1.98.242-3.124.968l.198 1.562zm4.818 3.102v.682c0 2.134-.924 3.498-2.354 3.498-1.056 0-1.738-.748-1.738-1.892 0-.528.154-1.034.484-1.408.44-.55 1.474-.88 2.816-.88h.792zM486.673 42v-5.39c0-2.772-.066-3.322-.594-4.224-.484-.88-1.32-1.32-2.486-1.32-1.232 0-1.958.418-2.75 1.628v-6.556h-1.782V42h1.782v-4.796c0-1.848.154-2.816.55-3.498.418-.704 1.034-1.078 1.76-1.078.594 0 1.056.264 1.32.77.352.616.418 1.232.418 3.542V42h1.782zm7.237-10.824c-.176-.022-.308-.022-.462-.022-1.342 0-1.936.462-2.662 2.024v-1.892h-1.694c.088 1.518.11 2.728.11 3.916V42h1.804v-4.686c0-1.87.132-2.618.572-3.366.396-.704.946-1.056 1.584-1.056.22 0 .594.044.682.088l.066.022v-1.826zm8.805 5.918c.022-.176.022-.418.022-.726 0-3.278-1.452-5.302-3.806-5.302-2.53 0-4.07 2.112-4.07 5.522 0 3.652 1.606 5.632 4.554 5.632.99 0 1.672-.176 2.706-.66l-.088-1.694c-.902.66-1.672.946-2.64.946-.924 0-1.672-.484-2.222-1.452-.308-.572-.44-1.1-.528-2.266h6.072zm-6.072-1.32c.264-2.354.968-3.366 2.288-3.366 1.32 0 1.914.99 2.046 3.366h-4.334zM341.688 67V53.998h3.41v-2.354h-9.636v2.354h3.366V67h2.86zm11.429-2.838l-.11.066c-.022 0-.022 0-.088.044-1.034.682-1.892.99-2.838.99-1.21 0-2.134-.616-2.596-1.738-.132-.33-.176-.55-.242-1.364h6.578c.044-.858.044-.924.044-1.386 0-3.3-1.76-5.39-4.51-5.39-2.926 0-4.796 2.288-4.796 5.874 0 3.806 1.892 5.962 5.258 5.962 1.276 0 2.2-.198 3.388-.704l-.088-2.354zm-5.896-3.872c.22-2.112.902-3.08 2.178-3.08 1.254 0 1.782.88 1.848 3.08h-4.026zm11.77 6.71V55.626h-2.816V67h2.816zm0-13.662v-2.64h-2.816v2.64h2.816zM364.662 67V50.39h-2.728V67h2.728zm11.83 0l-4.004-6.292 3.784-5.082h-3.014l-3.168 4.422V50.39h-2.662V67h2.662v-5.324L373.236 67h3.256zm10.45 0c-.11-1.716-.198-3.08-.198-3.388v-2.398c0-2.706-.176-3.63-.792-4.422-.726-.88-2.024-1.408-3.542-1.408-1.188 0-2.266.286-3.432.902l.154 2.244c1.232-.88 2.09-1.21 3.058-1.21 1.32 0 2.09.88 2.09 2.398v.374c-.968-.044-1.21-.044-1.43-.044-3.234 0-4.928 1.254-4.928 3.674 0 2.178 1.298 3.542 3.366 3.542 1.32 0 2.244-.484 2.992-1.584.066.594.088.792.242 1.32h2.42zm-2.662-5.104c0 2.222-.814 3.498-2.244 3.498-.968 0-1.54-.638-1.54-1.694 0-1.43 1.056-2.222 2.794-2.134l.418.022c.11 0 .132 0 .572.022v.286zm4.686 4.686c.088.022.528.154 1.342.396.77.22.946.242 1.694.242 2.772 0 4.334-1.232 4.334-3.454 0-1.188-.396-1.98-1.276-2.596-.286-.198-.902-.506-2.156-1.122-1.056-.484-1.32-.77-1.32-1.386 0-.748.682-1.21 1.76-1.21.638 0 1.408.176 2.288.528l.154-2.134c-1.144-.33-1.958-.462-2.728-.462-2.442 0-4.07 1.386-4.07 3.498 0 1.54.77 2.464 2.794 3.366.88.396.968.418 1.122.528.506.308.726.682.726 1.188 0 .792-.616 1.188-1.804 1.188-.88 0-1.518-.198-2.728-.836l-.132 2.266zm18.485.418l-4.004-6.292 3.784-5.082h-3.014l-3.168 4.422V50.39h-2.662V67h2.662v-5.324L404.195 67h3.256zm6.363-11.616c-1.188 0-2.31.374-3.124 1.012-1.276 1.012-1.87 2.574-1.87 4.95 0 2.068.44 3.454 1.43 4.466.88.924 2.09 1.408 3.564 1.408 3.168 0 4.972-2.134 4.972-5.918 0-2.046-.462-3.476-1.43-4.51-.88-.924-2.112-1.408-3.542-1.408zm-.022 1.936c1.386 0 2.156 1.43 2.156 4.004s-.748 3.96-2.156 3.96c-1.408 0-2.134-1.364-2.134-3.96 0-2.618.748-4.004 2.134-4.004z"/>
    <path fill="#008C2E" d="M166.425 318.093l38.973 84.17 52.667-.383h10.82c10.629 0 19.439-8.139 20.301-18.672 1.915-23.269 10.054-47.304 45.101-66.264H231.253l-64.828 1.149z"/>
    <path fill="#0B8735" d="M135.496 276.63c-1.054-.192-2.203-.383-3.16-.096-2.203.67-3.256 3.064-3.926 5.267-2.682 8.809-3.543 18.289-2.586 27.482 10.438 2.202 29.781 4.405 33.898-9.384 4.213-14.555-13.406-21.162-24.226-23.269z"/>
    <path fill="#59B267" d="M132.719 281.705c-4.022 8.522-4.022 18.289-3.16 27.674v.67c-.096.479-.575.862-1.053.957-1.245.383-2.586-.383-3.256-1.532-.67-1.053-.862-2.394-.958-3.638-.766-8.906.575-18.003 3.926-26.334.288-.766.671-1.627 1.245-2.298 1.628-2.011 5.363-2.489 7.182-.478-1.724 1.34-2.969 2.968-3.926 4.979z"/>
    <path fill="#009C33" d="M62.72 423.042c22.9 0 41.464-18.563 41.464-41.463 0-22.899-18.564-41.462-41.463-41.462-22.9 0-41.463 18.563-41.463 41.462 0 22.9 18.564 41.463 41.463 41.463z"/>
    <path fill="#009C33" d="M62.72 318.859C28.058 318.859 0 346.916 0 381.58s28.057 62.72 62.72 62.72c34.665 0 62.722-28.056 62.722-62.72s-28.057-62.721-62.721-62.721zm0 100.162c-20.683 0-37.44-16.758-37.44-37.441 0-20.684 16.757-37.441 37.44-37.441 20.684 0 37.442 16.757 37.442 37.441 0 20.683-16.758 37.441-37.441 37.441z"/>
    <path fill="#C8DFC7" d="M62.72 340.117c-22.885 0-41.462 18.577-41.462 41.462 0 22.886 18.577 41.463 41.463 41.463s41.463-18.577 41.463-41.463c0-22.885-18.577-41.462-41.463-41.462zm34.952 39.835H85.99c-.383-5.267-2.394-9.959-5.65-13.694l8.235-8.235c5.267 5.841 8.714 13.502 9.097 21.929zm-19.63-15.992c-3.734-3.256-8.618-5.362-13.885-5.745v-11.587c8.523.383 16.279 3.735 22.12 9.097l-8.235 8.235zm-16.757-5.745c-5.363.287-10.15 2.394-13.885 5.745l-8.235-8.235c5.937-5.362 13.597-8.81 22.12-9.097v11.587zM47.4 399.199c3.734 3.255 8.618 5.362 13.885 5.745v11.587c-8.523-.383-16.28-3.735-22.12-9.097l8.235-8.235zm16.757 5.745c5.363-.287 10.15-2.394 13.885-5.745l8.235 8.235c-5.937 5.362-13.597 8.809-22.12 9.097v-11.587zm-27.29-46.921l8.235 8.235c-3.256 3.735-5.363 8.523-5.65 13.694H27.77c.383-8.427 3.734-16.088 9.097-21.929zm-9.097 25.184h11.682c.383 5.267 2.394 9.959 5.65 13.694l-8.235 8.235c-5.363-5.842-8.714-13.502-9.097-21.929zm60.805 21.929l-8.235-8.235c3.256-3.735 5.363-8.523 5.65-13.694h11.682c-.383 8.427-3.83 16.087-9.097 21.929z"/>
    <path fill="#009C33" d="M364.355 423.042c22.899 0 41.463-18.563 41.463-41.463 0-22.899-18.564-41.462-41.463-41.462s-41.463 18.563-41.463 41.462c0 22.9 18.564 41.463 41.463 41.463z"/>
    <path fill="#009C33" d="M364.355 318.859c-34.664 0-62.721 28.057-62.721 62.721s28.057 62.72 62.721 62.72 62.721-28.056 62.721-62.72-28.057-62.721-62.721-62.721zm0 100.162c-20.684 0-37.441-16.758-37.441-37.441 0-20.684 16.757-37.441 37.441-37.441 20.683 0 37.441 16.757 37.441 37.441 0 20.683-16.853 37.441-37.441 37.441z"/>
    <path fill="url(#paint0_linear)" d="M208.463 371.238l-13.406-13.406s-5.362-3.831.287-6.608l20.301-9.288s5.841-3.351 5.554 3.256l.478 21.354-13.214 4.692zm9.671-34.186c-.574-1.244-2.106-1.819-3.351-1.244l-23.748 10.629c-1.245.574-1.819 2.106-1.245 3.351.575 1.245 2.107 1.819 3.352 1.245l23.748-10.629c1.244-.575 1.819-2.107 1.244-3.352z"/>
    <path fill="#C8DFC7" d="M364.355 340.117c-22.886 0-41.463 18.577-41.463 41.462 0 22.886 18.577 41.463 41.463 41.463s41.463-18.577 41.463-41.463c0-22.885-18.673-41.462-41.463-41.462zm34.951 39.835h-11.682c-.383-5.267-2.394-9.959-5.65-13.694l8.236-8.235c5.266 5.841 8.713 13.502 9.096 21.929zm-19.63-15.992c-3.734-3.256-8.618-5.362-13.884-5.745v-11.587c8.522.383 16.278 3.735 22.119 9.097l-8.235 8.235zm-16.757-5.745c-5.363.287-10.15 2.394-13.885 5.745l-8.235-8.235c5.937-5.362 13.597-8.81 22.12-9.097v11.587zm-13.885 40.984c3.735 3.255 8.618 5.362 13.885 5.745v11.587c-8.523-.383-16.279-3.735-22.12-9.097l8.235-8.235zm16.662 5.745c5.362-.287 10.15-2.394 13.885-5.745l8.235 8.235c-5.937 5.362-13.598 8.809-22.12 9.097v-11.587zm-27.195-46.921l8.235 8.235c-3.256 3.735-5.362 8.523-5.65 13.694h-11.682c.383-8.427 3.734-16.088 9.097-21.929zm-9.097 25.184h11.682c.383 5.267 2.394 9.959 5.65 13.694l-8.235 8.235c-5.363-5.842-8.714-13.502-9.097-21.929zm60.806 21.929l-8.236-8.235c3.256-3.735 5.363-8.523 5.65-13.694h11.682c-.383 8.427-3.83 16.087-9.096 21.929z"/>
    <path fill="url(#paint1_linear)" d="M219.379 351.703l-19.247 8.427c-.383.191-.862 0-.958-.383-.191-.383 0-.862.384-.958l19.247-8.426c.383-.192.861 0 .957.383.192.383 0 .766-.383.957zm.383-4.309c-.191-.383-.67-.574-1.053-.383l-21.258 9.289c-.383.191-.575.67-.383 1.053.191.383.67.574 1.053.383l21.258-9.288c.383-.096.575-.671.383-1.054zm.287 6.607c-.191-.383-.574-.478-.861-.383l-17.524 7.661c-.383.191-.479.574-.383.862.192.383.575.479.862.383l17.523-7.661c.383-.096.479-.479.383-.862zm.192 3.448c-.096-.288-.479-.479-.766-.288l-15.513 6.799c-.287.096-.478.479-.287.766.096.287.479.479.766.287l15.513-6.798c.287-.096.478-.479.287-.766zm-.766 2.394l-13.789 6.032c-.287.096-.383.479-.287.671.095.287.478.383.67.287l13.789-6.033c.287-.096.383-.479.287-.67-.096-.287-.383-.383-.67-.287z"/>
    <path fill="url(#paint2_linear)" d="M226.37 366.545l.478-21.353c-.287-6.608 5.554-3.256 5.554-3.256l20.301 9.288c5.745 2.777.287 6.607.287 6.607l-13.406 13.406-13.214-4.692zm30.163-20.683l-23.748-10.533c-1.245-.575-2.777 0-3.351 1.244-.575 1.245 0 2.777 1.245 3.352l23.747 10.533c1.245.575 2.777 0 3.352-1.245.574-1.34 0-2.777-1.245-3.351z"/>
    <path fill="url(#paint3_linear)" d="M248.872 359.747c-.192.383-.575.574-.958.383l-19.247-8.427c-.383-.191-.574-.574-.383-.957.192-.383.575-.575.958-.383l19.247 8.426c.383.096.574.575.383.958zm1.819-3.447l-21.258-9.289c-.383-.191-.957 0-1.053.383-.192.383 0 .958.383 1.054l21.258 9.288c.383.191.958 0 1.053-.383.192-.383 0-.862-.383-1.053zm-4.213 5.075l-17.524-7.661c-.383-.191-.766 0-.861.383-.192.383 0 .766.383.862l17.523 7.661c.383.191.766 0 .862-.383.096-.384 0-.767-.383-.862zm-2.394 2.489l-15.512-6.798c-.288-.096-.671 0-.767.287-.095.287 0 .67.288.766l15.512 6.799c.288.095.671 0 .766-.288.192-.191.096-.574-.287-.766zm-1.724 2.011l-13.788-6.032c-.288-.096-.575 0-.671.287-.096.287 0 .574.287.67l13.789 6.033c.288.096.575 0 .671-.287.096-.192 0-.479-.288-.671z"/>
    <path fill="#66C485" d="M223.688 395.081c9.731 0 17.62-7.889 17.62-17.619 0-9.731-7.889-17.62-17.62-17.62-9.731 0-17.619 7.889-17.619 17.62 0 9.73 7.888 17.619 17.619 17.619z"/>
    <path fill="url(#paint4_linear)" d="M223.688 391.059c7.51 0 13.598-6.088 13.598-13.597 0-7.51-6.088-13.598-13.598-13.598-7.509 0-13.597 6.088-13.597 13.598 0 7.509 6.088 13.597 13.597 13.597z"/>
    <path fill="#66C485" d="M268.024 389.527c8.303 0 15.034-6.731 15.034-15.034s-6.731-15.034-15.034-15.034-15.034 6.731-15.034 15.034 6.731 15.034 15.034 15.034z"/>
    <path fill="url(#paint5_linear)" d="M268.023 386.08c6.399 0 11.587-5.188 11.587-11.587s-5.188-11.586-11.587-11.586-11.586 5.187-11.586 11.586 5.187 11.587 11.586 11.587z"/>
    <path fill="url(#paint6_linear)" d="M192.376 285.535c-12.832 0-23.173 10.342-23.173 23.173 0 11.874 9.001 21.737 20.587 23.078.862.096 1.724.191 2.682.191 2.202 0 5.649 0 9.671-.191h42.42c6.608 0 11.97-5.363 11.97-11.97v-1.724c-.096-15.512-51.326-32.557-64.157-32.557z"/>
    <path fill="url(#paint7_linear)" d="M359.472 303.442h9.671v73.35c0 2.681-2.106 4.788-4.788 4.788-2.681 0-4.788-2.107-4.788-4.788v-73.35h-.095z"/>
    <path fill="#009C33" d="M257.299 309.858c-1.915 3.543-2.49 7.565-2.873 11.491-.574 5.554-1.053 11.108-1.245 16.661-.095 2.394-.096 4.98 1.245 7.086 1.819 2.873 5.554 3.735 8.905 4.31 10.821 1.723 21.833 2.202 32.749 1.436 2.203-.192 4.597-.383 6.32-1.724 1.149-.862 2.011-2.106 2.777-3.351 9.289-13.885 23.652-24.418 39.739-29.11 2.873-.862 5.842-1.532 8.235-3.256 2.394-1.724 4.022-4.979 2.969-7.756-1.341-3.639-6.129-4.405-10.055-4.597-25.279-.957-51.613-1.628-76.892 1.245-4.98.383-9.48 3.064-11.874 7.565z"/>
    <path fill="url(#paint8_radial)" d="M348.363 294.345s42.133-8.714 77.659 19.63c27.578 22.024 24.035 51.134 18.481 62.721-4.979 10.437-13.118 9.575-13.118 9.575s6.32-29.78-18.386-53.719c-25.95-25.184-61.284-18.29-61.284-18.29l-3.352-19.917z"/>
    <path fill="#008C2E" d="M261.895 297.601c1.34-2.873 4.213-4.884 7.182-5.842 3.064-.957 6.224-1.053 9.48-.957 11.395.383 22.598 2.585 33.993 2.681 8.81.096 17.619-1.245 26.046-3.735 4.309-1.34 8.618-2.968 13.119-3.255 4.5-.383 9.384.766 12.352 4.213 3.448 4.022 3.065 10.725-.766 14.364-3.255 3.064-7.947 3.734-12.448 4.021-14.268 1.054-77.563 1.628-83.787 1.341-6.033-.383-7.374-7.948-5.171-12.831z"/>
    <path fill="url(#paint9_linear)" d="M288.516 405.614h-92.118c-13.598 0-25.185-10.437-25.951-24.035-.67-10.054 4.597-19.438 13.406-24.226l3.448 6.415c-6.32 3.448-10.151 10.246-9.576 17.524.766 9.576 9.001 16.949 18.577 16.949h91.16l88.48-45.485c1.245-.67 2.777.288 2.777 1.724v22.886c0 .862-.575 1.532-1.341 1.819l-87.043 25.855c-.479.383-1.149.574-1.819.574z"/>
    <path fill="url(#paint10_linear)" d="M208.655 396.996l-36.675-73.637v-33.61c0-2.011-1.628-3.639-3.639-3.639h-9.672c-2.01 0-3.638 1.628-3.638 3.639s1.628 3.638 3.638 3.638h6.033v27.1h-14.459l-10.916-12.066c-1.341-1.532-3.639-1.628-5.171-.287-1.532 1.341-1.628 3.639-.288 5.171l11.97 13.31c.67.766 1.724 1.245 2.681 1.245h17.524l36.004 72.392c.671 1.245 1.916 2.011 3.256 2.011.575 0 1.149-.096 1.628-.383 1.819-.862 2.585-3.064 1.724-4.884z"/>
    <path fill="url(#paint11_linear)" d="M62.721 385.218c-.957 0-1.915-.383-2.681-1.149-1.437-1.436-1.34-3.734.096-5.171l117.302-112.227c8.714-8.331 21.832-10.15 32.461-4.405l28.44 15.226c1.82.957 2.49 3.16 1.532 4.979-.957 1.819-3.16 2.49-4.979 1.532l-28.44-15.225c-7.852-4.213-17.523-2.873-23.939 3.256L65.211 384.261c-.67.67-1.628.957-2.49.957z"/>
    <path fill="#D4E5D3" d="M298.091 138.069c-6.99.479-17.811 5.267-20.204 8.81-1.628 2.394-2.586 9.672-2.49 11.299 0 .671.383 4.405.862 8.714-1.245 1.341-2.969 4.022-2.873 4.788.191.766 2.394 1.532 3.543 1.628.479 4.501.958 8.427 1.053 9.288.288 2.011 3.16 2.586 4.309 2.873 1.149.287 15.13-4.883 17.045-6.511 1.915-1.628 2.873-7.948 2.873-7.948l3.351-.67s8.044-3.065 7.086-13.885c-.862-10.055-7.66-18.864-14.555-18.386z"/>
    <path fill="#B8CEB7" d="M304.411 169.095l5.65 20.3s-9.48 6.129-22.407 6.703c0 0-1.82-9.959-2.298-11.108-.575-1.053 19.055-15.895 19.055-15.895z"/>
    <path fill="#009C33" d="M300.389 168.807c-.192-.478-3.064-5.554-3.064-5.554s-5.65 3.735-6.416 4.884c-.766 1.149-4.213 5.171-4.692 4.884-.575-.288-6.224-.192-6.99-.096s-2.107 1.245-2.107 1.245-3.639 6.32-3.639 10.724c0 4.405 4.022 11.587 7.852 11.587 3.448 0 11.778-4.022 13.789-6.033 3.065-3.16 6.225-10.916 6.608-11.873.383-.958 3.064-10.534 3.064-10.534s-4.214 1.149-4.405.766zm-18.385 8.714c-.096-.096-2.777.479-3.735 1.054l-.766-2.49c.862-1.82 4.022-1.437 4.884-.479l-.383 1.915z"/>
    <path fill="#D4E5D3" d="M295.793 159.806s3.831-3.16 5.075-2.872c1.245.287 3.256 8.33 2.777 9.767-.478 1.34-5.649 3.351-5.649 3.351s0-4.788-2.203-10.246z"/>
    <path fill="#009C33" d="M275.492 413.754c-.191-4.405-.862-14.843-.766-17.045.096-2.681 1.436-8.235 1.149-9.48-.191-1.245-14.651-.958-16.566-3.352 0 0-.479 6.033-2.106 8.714-1.628 2.682-19.535 9.384-21.258 9.384-1.724 0-9.768.479-10.917 1.245-.957.575-2.106 4.309-2.489 6.32v.383c0 .192-.096.383-.096.575v.287c-.096.575-.479 2.203-.383 2.777 0 .192.67.383 1.532.67.096-.383.191-.861.287-.957.192-.096.575-.096.671.096 0 .095-.096.67-.096 1.149.479.191 1.149.287 1.723.478.096-.383.192-.766.288-.861.191-.096.574-.096.67.095 0 .096 0 .575-.096.958.479.096 1.054.287 1.628.383.096-.383.192-.766.287-.766.192-.096.575-.096.671.096 0 .095 0 .574-.096.957.574.096 1.245.288 1.819.383.096-.383.192-.766.288-.862.191-.095.574-.095.67.096 0 .096 0 .575-.096.958.575.096 1.053.191 1.628.287.096-.287.191-.67.287-.766.192-.096.575-.096.671.096 0 .096 0 .479-.096.862.574.095 1.245.191 1.723.287.096-.383.192-.766.288-.862.191-.096.574-.096.67.096 0 .096 0 .574-.096.957.287 0 .575.096.862.096.287 0 .575.096.862.096.096-.383.096-.766.191-.862.192-.096.575-.191.671 0v.862c.67.096 1.34.096 2.106.096 0-.383 0-.862.096-.958.192-.191.575-.191.67-.096.096.096.096.575.096 1.054.67 0 1.341.095 1.915.095 0-.383 0-.766.096-.861.192-.192.575-.192.67-.096 0 .096.096.574.096.957h1.628c0-.383 0-.861.096-.957.191-.192.574-.192.67-.096.096.096.096.575.096.958h1.532c0-.383 0-.766.096-.862.191-.192.574-.192.67-.096 0 .096.096.479.096.862.574 0 1.053-.096 1.532-.096 0-.383 0-.862.096-1.053.191-.192.574-.192.67-.096 0 .096.096.575.096.958.191 0 .383-.096.574-.096 3.16-.575 7.565-1.054 7.565-1.054l-.287 2.011s.478 0 1.244.096c0-.479.096-1.053.192-1.34.192-.479 1.053-.383.958.478 0 .288-.096.575-.096.862.574.096 1.34.096 2.106.192 0-.479.096-.958.192-1.149.191-.479 1.053-.383.958.478 0 .288-.096.479-.096.766.766.096 1.532.096 2.298.192 0-.479.096-.958.191-1.149.192-.479 1.054-.383.958.479 0 .287-.096.478-.096.766.766.095 1.532.095 2.203.191 0-.383.095-.862.191-1.149.192-.479 1.054-.383.958.479 0 .191-.096.479-.096.67 1.436.096 2.394.096 2.394 0 0-.287.383-3.639.383-3.639v-.478c-.096-.288 0-.958-.096-1.149z"/>
    <path fill="#D4E5D3" d="M273.96 246.37s-12.831 10.438-21.641 14.651c-8.905 4.117-19.63 8.618-19.63 8.618s-9.192.287-5.937-9.097c.383-1.149 30.451-21.641 31.6-22.886 1.149-1.245 11.012-7.086 14.555-.574 2.107 3.926 1.053 9.288 1.053 9.288z"/>
    <path fill="#009C33" d="M226.369 258.628s-4.213 1.245-6.224 2.585c-4.788 2.873-10.342 5.842-13.502 8.044-1.915 1.341-.383 5.841 2.586 8.139 3.16 2.49 7.086 3.16 8.809 3.256 2.682.096 13.885-9.48 16.662-13.597 1.532-2.203 2.011-9.385-8.331-8.427z"/>
    <path fill="#009C33" d="M227.614 273.662s4.788-2.49 7.469-3.639l4.692-2.203-6.607-12.257-3.83 2.107s-2.107.575-4.309 1.149c-2.299.575-1.341 15.896 2.585 14.843z"/>
    <path fill="url(#paint12_linear)" d="M340.607 268.969l-43.953 1.724s-.095 9.48.288 19.247c-14.172 5.458-29.589 11.395-35.43 14.268-5.363.67-9.672 4.117-9.768 12.257 0 0-1.053 13.118-1.819 36.387-.67 20.301 1.245 30.547 2.969 33.802 1.723 3.256 19.247 7.853 23.268 2.873 2.969-3.639 5.363-37.154 6.32-58.124 14.939-3.256 39.069-8.523 54.295-13.885 1.819-.67 3.255-1.819 4.309-3.352 1.532-1.149 2.106-2.106 2.489-2.585 8.906-12.448-2.968-42.612-2.968-42.612z"/>
    <path fill="url(#paint13_linear)" d="M285.835 196.29s17.427-11.395 26.716-9.768c0 0 12.352 15.513 14.555 20.588 5.362 12.544 6.032 29.11 8.522 40.122 1.436 6.703 6.512 26.716 6.512 26.716s-21.163 18.673-45.006 12.066c0 0-4.501-16.949-9.48-33.898-2.969-10.15-8.81-28.631-7.661-34.568 1.82-8.618 5.842-21.258 5.842-21.258z"/>
    <path fill="#D4E5D3" d="M307.283 205.769s-8.139 12.066-16.47 22.12c-9.001 10.916-16.757 18.098-18.768 19.726-2.011 1.628-12.449 1.245-14.364-7.277-.479-2.011 26.046-40.218 27.674-42.708 1.532-2.49 21.067-11.299 21.928 8.139z"/>
    <path fill="url(#paint14_linear)" d="M297.421 133.856c-.767-.096-1.533-.096-2.299-.096-10.054.096-18.672 7.757-19.726 17.907l-.478 4.309 35.334 3.734 4.501.479.478-4.309c1.149-10.916-6.894-20.875-17.81-22.024z"/>
    <path fill="#0B8735" d="M314.083 160.86l-38.59-4.118c-1.054-.096-1.82-1.053-1.724-2.106.096-1.054 1.053-1.82 2.107-1.724l38.59 4.117c1.053.096 1.819 1.054 1.723 2.107-.191 1.053-1.053 1.819-2.106 1.724z"/>
    <path fill="#0B8735" d="M288.133 157.029l-1.533 14.842c-.191 2.203 1.341 4.213 3.639 4.501 2.969.287 5.937-.575 8.14-2.586l16.374-13.98-26.62-2.777zM276.258 158.082l-3.064-.287c-1.053-.096-1.819-1.053-1.724-2.202l1.341-12.64c.096-1.053 1.053-1.819 2.202-1.724l3.065.288c3.83.383 6.511 3.83 6.128 7.564l-.287 2.777c-.383 3.831-3.83 6.608-7.661 6.224z"/>
    <path fill="#009C33" d="M276.354 155.784l-1.053-.095c-1.053-.096-1.819-1.054-1.724-2.203l.862-8.043c.096-1.054 1.053-1.82 2.203-1.724l1.053.096c1.723.191 3.064 1.819 2.873 3.543l-.575 5.554c-.287 1.723-1.915 3.064-3.639 2.872z"/>
    <defs>
        <linearGradient id="paint0_linear" x1="225.431" x2="205.02" y1="348.614" y2="355.796" gradientUnits="userSpaceOnUse">
            <stop stop-color="#B3E1C2"/>
            <stop offset=".163" stop-color="#ACDEBC"/>
            <stop offset=".402" stop-color="#98D7AD"/>
            <stop offset=".687" stop-color="#78CB93"/>
            <stop offset="1" stop-color="#4DBA71"/>
        </linearGradient>
        <linearGradient id="paint1_linear" x1="195.394" x2="215.11" y1="364.549" y2="355.661" gradientUnits="userSpaceOnUse">
            <stop stop-color="#B3E1C2"/>
            <stop offset=".163" stop-color="#ACDEBC"/>
            <stop offset=".402" stop-color="#98D7AD"/>
            <stop offset=".687" stop-color="#78CB93"/>
            <stop offset="1" stop-color="#4DBA71"/>
        </linearGradient>
        <linearGradient id="paint2_linear" x1="263.965" x2="230.703" y1="364.42" y2="351.38" gradientUnits="userSpaceOnUse">
            <stop stop-color="#B3E1C2"/>
            <stop offset=".163" stop-color="#ACDEBC"/>
            <stop offset=".402" stop-color="#98D7AD"/>
            <stop offset=".687" stop-color="#78CB93"/>
            <stop offset="1" stop-color="#4DBA71"/>
        </linearGradient>
        <linearGradient id="paint3_linear" x1="215.584" x2="245.158" y1="347.895" y2="361.147" gradientUnits="userSpaceOnUse">
            <stop stop-color="#B3E1C2"/>
            <stop offset=".163" stop-color="#ACDEBC"/>
            <stop offset=".402" stop-color="#98D7AD"/>
            <stop offset=".687" stop-color="#78CB93"/>
            <stop offset="1" stop-color="#4DBA71"/>
        </linearGradient>
        <linearGradient id="paint4_linear" x1="223.661" x2="223.661" y1="357.688" y2="378.978" gradientUnits="userSpaceOnUse">
            <stop stop-color="#B3E1C2"/>
            <stop offset=".163" stop-color="#ACDEBC"/>
            <stop offset=".402" stop-color="#98D7AD"/>
            <stop offset=".687" stop-color="#78CB93"/>
            <stop offset="1" stop-color="#4DBA71"/>
        </linearGradient>
        <linearGradient id="paint5_linear" x1="268.009" x2="268.009" y1="351.877" y2="378.549" gradientUnits="userSpaceOnUse">
            <stop stop-color="#B3E1C2"/>
            <stop offset=".163" stop-color="#ACDEBC"/>
            <stop offset=".402" stop-color="#98D7AD"/>
            <stop offset=".687" stop-color="#78CB93"/>
            <stop offset="1" stop-color="#4DBA71"/>
        </linearGradient>
        <linearGradient id="paint6_linear" x1="212.801" x2="212.801" y1="365.059" y2="303.748" gradientUnits="userSpaceOnUse">
            <stop offset=".246" stop-color="#59B267"/>
            <stop offset=".364" stop-color="#C8DFC7"/>
            <stop offset=".495" stop-color="#C8DFC7"/>
            <stop offset=".576" stop-color="#ABD3AD"/>
            <stop offset=".691" stop-color="#87C58F"/>
            <stop offset=".799" stop-color="#6EBA79"/>
            <stop offset=".897" stop-color="#5EB46C"/>
            <stop offset=".976" stop-color="#59B267"/>
        </linearGradient>
        <linearGradient id="paint7_linear" x1="359.515" x2="369.138" y1="342.503" y2="342.503" gradientUnits="userSpaceOnUse">
            <stop stop-color="#59B267"/>
            <stop offset=".364" stop-color="#C8DFC7"/>
            <stop offset=".495" stop-color="#C8DFC7"/>
            <stop offset=".576" stop-color="#ABD3AD"/>
            <stop offset=".691" stop-color="#87C58F"/>
            <stop offset=".799" stop-color="#6EBA79"/>
            <stop offset=".897" stop-color="#5EB46C"/>
            <stop offset=".976" stop-color="#59B267"/>
        </linearGradient>
        <linearGradient id="paint9_linear" x1="290.797" x2="280.024" y1="410.379" y2="383.165" gradientUnits="userSpaceOnUse">
            <stop offset=".246" stop-color="#59B267"/>
            <stop offset=".364" stop-color="#C8DFC7"/>
            <stop offset=".495" stop-color="#C8DFC7"/>
            <stop offset=".537" stop-color="#BADABB"/>
            <stop offset=".663" stop-color="#97CB9D"/>
            <stop offset=".782" stop-color="#7EC187"/>
            <stop offset=".889" stop-color="#6EBB7A"/>
            <stop offset=".976" stop-color="#69B975"/>
        </linearGradient>
        <linearGradient id="paint10_linear" x1="140.683" x2="255.493" y1="276.881" y2="506.076" gradientUnits="userSpaceOnUse">
            <stop offset=".246" stop-color="#59B267"/>
            <stop offset=".364" stop-color="#C8DFC7"/>
            <stop offset=".495" stop-color="#C8DFC7"/>
            <stop offset=".576" stop-color="#ABD3AD"/>
            <stop offset=".691" stop-color="#87C58F"/>
            <stop offset=".799" stop-color="#6EBA79"/>
            <stop offset=".897" stop-color="#5EB46C"/>
            <stop offset=".976" stop-color="#59B267"/>
        </linearGradient>
        <linearGradient id="paint11_linear" x1="130.701" x2="136.731" y1="311.403" y2="317.683" gradientUnits="userSpaceOnUse">
            <stop stop-color="#59B267"/>
            <stop offset=".364" stop-color="#C8DFC7"/>
            <stop offset=".495" stop-color="#C8DFC7"/>
            <stop offset=".576" stop-color="#ABD3AD"/>
            <stop offset=".691" stop-color="#87C58F"/>
            <stop offset=".799" stop-color="#6EBA79"/>
            <stop offset=".897" stop-color="#5EB46C"/>
            <stop offset=".976" stop-color="#59B267"/>
        </linearGradient>
        <linearGradient id="paint12_linear" x1="247.492" x2="307.563" y1="286.548" y2="337.062" gradientUnits="userSpaceOnUse">
            <stop stop-color="#C8DFC7"/>
            <stop offset=".169" stop-color="#ABD3AD"/>
            <stop offset=".408" stop-color="#87C58F"/>
            <stop offset=".633" stop-color="#6EBA79"/>
            <stop offset=".837" stop-color="#5EB46C"/>
            <stop offset="1" stop-color="#59B267"/>
        </linearGradient>
        <linearGradient id="paint13_linear" x1="325.9" x2="310.541" y1="291.107" y2="240.934" gradientUnits="userSpaceOnUse">
            <stop stop-color="#C8DFC7"/>
            <stop offset=".169" stop-color="#ABD3AD"/>
            <stop offset=".408" stop-color="#87C58F"/>
            <stop offset=".633" stop-color="#6EBA79"/>
            <stop offset=".837" stop-color="#5EB46C"/>
            <stop offset="1" stop-color="#59B267"/>
        </linearGradient>
        <linearGradient id="paint14_linear" x1="307.015" x2="292.338" y1="138.45" y2="156.881" gradientUnits="userSpaceOnUse">
            <stop stop-color="#C8DFC7"/>
            <stop offset=".169" stop-color="#ABD3AD"/>
            <stop offset=".408" stop-color="#87C58F"/>
            <stop offset=".633" stop-color="#6EBA79"/>
            <stop offset=".837" stop-color="#5EB46C"/>
            <stop offset="1" stop-color="#59B267"/>
        </linearGradient>
        <radialGradient id="paint8_radial" cx="0" cy="0" r="1" gradientTransform="translate(371.691 364.208) scale(71.4476)" gradientUnits="userSpaceOnUse">
            <stop offset=".246" stop-color="#59B267"/>
            <stop offset=".364" stop-color="#C8DFC7"/>
            <stop offset=".495" stop-color="#C8DFC7"/>
            <stop offset=".576" stop-color="#ABD3AD"/>
            <stop offset=".691" stop-color="#87C58F"/>
            <stop offset=".799" stop-color="#6EBA79"/>
            <stop offset=".897" stop-color="#5EB46C"/>
            <stop offset=".976" stop-color="#59B267"/>
        </radialGradient>
    </defs>
</svg>
