<svg xmlns="http://www.w3.org/2000/svg" width="617" height="417" fill="none" viewBox="0 0 617 417">
    <mask id="ycjm7db08a" width="787" height="417" x="0" y="0" maskUnits="userSpaceOnUse">
        <path fill="#C4C4C4" d="M0 0H787V417H0z"/>
    </mask>
    <g mask="url(#ycjm7db08a)">
        <path fill="#E6F5EB" d="M1512 113.6l-1.33 57.156h18.84V408H-235.555V163.289L-180 122.756v30.222l41.511-30.222v19.911h24.178v33.777h39.2v-43.2l39.2 23.823v34.4h3.556l-1.778-77.867h4.889v-8.356h3.644l2.933-50.31 2.934 50.31H-.8v8.356h18.667l-.623 29.067h16.178v70.044H52.89v-17.155h13.244V107.2l28.178-37.6 28.178 37.6v26.044h5.778l23.555-10.488v10.488h10.756v43.2h20.444V36.089h15.556V0h3.555v36.089h15.556v36.978l14.844 13.066v22.845H267.2v38.578h9.422v15.822h18.311v-25.422l13.6-15.2v-13.778h6.578v-4.267H357.6v4.267h6.578V145.6h14.4V86.044h6.578v-4.266h42.488v4.266h6.578v103.467h13.245v-80.533h6.577v-4.267h42.489v4.267h6.578v38.578h18.311V64.533h23.823V48.444h23.911v-17.6h23.822V113.6h40.178l-1.334 57.156h11.467v-7.467l55.644-40.533v30.222l41.423-30.222v19.911h24.177v33.777h39.289v-43.2l39.2 23.823v34.4h3.467l-1.778-77.867h4.889v-8.356h3.645l2.933-50.31 2.933 50.31h18.934v8.356H896.8l-.711 29.067h16.178v70.044h19.555v-17.155h13.156V107.2l28.178-37.6 28.174 37.6v26.044h5.78l23.56-10.488v10.488h10.75v43.2h20.45V36.089h15.55V0h3.56v36.089h15.55v36.978l14.85 13.066v22.845h34.75v38.578h9.34v15.822h18.31v-25.422l13.6-15.2v-13.778h6.58v-4.267h42.48v4.267h6.58V145.6h14.49V86.044h6.49v-4.266h42.58v4.266h6.49v103.467h13.33v-80.533h6.49v-4.267h42.58v4.267h6.49v38.578h18.31V64.533h23.91V48.444H1448v-17.6h23.82V113.6H1512z"/>
        <path fill="#CCEBD6" d="M1489.64 240.667v68.711l41.43 30.222V416H-234V233.467l33.6-51.289V142h29.422v21.689h29.423v19.822l.088 102.311h32.889v38.134h4.623v-38.667h6.489v-4.178h42.577v4.178h6.49v80.533h6.755V254.889h8.089v-5.245h52.533v5.245h8.089v67.022h7.91v-36.622h6.579v-4.178h42.489v4.178h6.577v13.867l13.6 15.111v25.422h35.823v-15.733h9.422v-38.667h34.755v-22.845l14.756-12.977V212.4h34.667v140.356h20.444v-43.2h10.756v-10.4l23.555 10.4h5.778v-78.223l35.378-47.289 35.466 47.289v157.689h11.556v-86.666h18.133l-1.066-31.912h20.533v-9.155h31.289v9.155h5.422l-3.2 97.334h4.889v-34.311l39.2-23.911v43.2h39.2v-33.778h12.978V173.022l66.844 67.645v68.711l34.045 24.889v-100.8l33.688-51.289V142h29.334v21.689h29.422v19.822l.178 102.311h32.8v38.134h4.622v-38.667h6.578v-4.178h42.489v4.178h6.577v80.533h6.756V254.889h8v-5.245h52.533v5.245h8.089v67.022h7.911v-36.622h6.578v-4.178h42.489v4.178h6.578v13.867l13.6 15.111v25.422h35.823v-15.733h9.42v-38.667h34.76v-22.845l14.84-12.977V212.4h34.58v140.356h20.44v-43.2h10.76v-10.4l23.55 10.4h5.78v-78.223l35.47-47.289 35.38 47.289v157.689h11.55v-86.666h18.14l-1.07-31.912h20.53v-9.155h31.29v9.155h5.42l-3.2 97.334h4.89v-34.311l39.2-23.911v43.2h39.2v-33.778h12.98V173.022l66.84 67.645z"/>
        <path fill="#66C485" d="M1511.38 406.489H-195.289v11.644H1511.38v-11.644z"/>
        <path fill="#B3E1C2" d="M568.5 407.176s0-8.773 13.158-17.545c13.159-8.773 19.03-26.317 4.387-26.317-14.644 0 19.029-10.257 17.544-21.931-1.484-11.674-7.287-4.386-8.772-10.257-1.485-5.871 10.257-32.188-1.485-20.514-11.674 11.674-13.158 21.931-17.544 11.674-4.387-10.257-13.159-5.871-10.257 8.772 2.901 14.644-.405 16.6-7.491 9.785-7.085-6.815-27.599-9.785-15.925 10.729s-1.214 26.047 8.165 37.856c9.38 11.877 18.22 3.104 18.22 17.748z"/>
        <path stroke="#009C33" stroke-linecap="round" stroke-linejoin="round" stroke-miterlimit="10" stroke-width="1.675" d="M587.191 330.316s-19.164 33.132-19.501 47.438c-.338 14.306-.405 20.514-11.134 28.207"/>
        <path stroke="#009C33" stroke-linecap="round" stroke-linejoin="round" stroke-miterlimit="10" stroke-width="1.675" d="M575.113 337.874s.54 10.864-1.484 19.366c0 0 5.398-6.343 8.772-8.502M568.499 353.664s-.067 12.754-.674 22.133c0 0 6.343-10.391 9.717-12.551"/>
        <path fill="#66C485" d="M564.72 406.973s-13.158-7.288-8.772-33.673c4.386-26.384-3.644-55.738-17.41-72.405-16.06-19.367-42.579-30.029-42.579-30.029s-13.159 35.09 7.287 71.731c20.447 36.574 51.217 64.376 61.474 64.376z"/>
        <path stroke="#C8DFC7" stroke-linecap="round" stroke-linejoin="round" stroke-miterlimit="10" stroke-width="1.675" d="M505.136 287.601s32.998 48.99 35.359 72.271c2.362 23.28 5.669 35.967 24.226 47.101"/>
        <path stroke="#C8DFC7" stroke-linecap="round" stroke-linejoin="round" stroke-miterlimit="10" stroke-width="1.675" d="M525.718 298.465s-.203 17.882 4.183 31.446c0 0-8.84-9.717-14.643-12.821M538.538 323.298s-3.239 17.882 1.148 31.446c0 0-8.908-11.674-14.778-14.778"/>
        <path fill="#009C33" d="M477.47 407.175s44.941-17.342 66.265-12.551c21.256 4.723 40.218-9.447 53.444-11.337 13.226-1.889 11.336-1.417 28.409 6.141 17.005 7.558 55.805 12.281 58.167 13.698l46.224 4.252-252.509-.203z"/>
        <path fill="#99D7AD" d="M500.21 333.69l.067-.067s24.833 5.735 39.881 16.195c12.889 8.975 20.446 24.832 16.33 39.07-2.362 8.098.675 12.889 3.712 15.453-29.624-16.937-57.898-66.872-59.99-70.651z"/>
        <path fill="#80CE99" d="M507.094 372.221c-18.422-18.894-7.828-37.113-6.883-38.598 2.092 3.779 30.366 53.781 59.922 70.651 2.294 1.957 4.521 2.7 4.521 2.7-9.582 0-38.328-14.981-57.56-34.753z"/>
        <path fill="#33B05C" d="M433 407.175s44.942-17.342 66.265-12.551c21.256 4.723 40.218-9.447 53.444-11.337 13.226-1.889 11.337-1.417 28.409 6.141 17.005 7.558 41.163 12.754 45.414 10.864 0 0 2.834-16.532 8.503-18.422 0 0-6.613 13.226-5.196 17.477 0 0 4.251-14.17 8.03-16.06 0 0-5.669 12.754-2.362 18.895 0 0 1.417-8.031 2.362-9.448 0 0-.945 8.975 1.417 10.392l46.223 4.251L433 407.175z"/>
        <path fill="url(#paint0_radial)" d="M-1 419H371V628H-1z" opacity=".9" transform="rotate(-90 -1 419)"/>
        <path fill="url(#paint1_linear)" d="M-1 419H371V628H-1z" opacity=".9" transform="rotate(-90 -1 419)"/>
    </g>
    <defs>
        <radialGradient id="paint0_radial" cx="0" cy="0" r="1" gradientTransform="matrix(95 104.99997 -310.02348 280.49748 6 424)" gradientUnits="userSpaceOnUse">
            <stop stop-color="#fff"/>
            <stop offset="1" stop-color="#fff" stop-opacity="0"/>
        </radialGradient>
        <linearGradient id="paint1_linear" x1="185" x2="185" y1="428" y2="622" gradientUnits="userSpaceOnUse">
            <stop stop-color="#fff"/>
            <stop offset="1" stop-color="#fff" stop-opacity="0"/>
        </linearGradient>
    </defs>
</svg>
